<svg width="1024" height="845" viewBox="0 0 1024 845" fill="none" xmlns="http://www.w3.org/2000/svg">
<path d="M117.466 257.995C117.003 257.995 116.543 257.88 116.117 257.634L56.9942 223.5C55.6999 222.753 55.2572 221.101 56.0041 219.806C56.7509 218.512 58.4034 218.07 59.6976 218.816L118.821 252.953C120.115 253.7 120.558 255.353 119.811 256.647C119.307 257.509 118.398 257.995 117.466 257.995Z" fill="url(#header-paint0_linear)"/>
<path d="M51.2529 226.004C44.4606 226.004 39.1417 222.077 39.1417 217.062C39.1417 212.048 44.4606 208.121 51.2529 208.121C58.0417 208.121 63.3607 212.048 63.3607 217.062C63.3607 222.074 58.0417 226.004 51.2529 226.004ZM51.2529 213.528C47.414 213.528 44.5485 215.397 44.5485 217.062C44.5485 218.728 47.4174 220.594 51.2529 220.594C55.0883 220.594 57.9506 218.728 57.9506 217.062C57.9506 215.397 55.0883 213.528 51.2529 213.528Z" fill="url(#header-paint1_linear)"/>
<path d="M339.333 386.007C338.877 386.007 338.414 385.892 337.988 385.646L229.758 323.241C228.464 322.495 228.017 320.842 228.764 319.548C229.511 318.254 231.164 317.811 232.458 318.558L340.688 380.962C341.982 381.709 342.428 383.361 341.681 384.656C341.178 385.524 340.272 386.007 339.333 386.007Z" fill="url(#header-paint2_linear)"/>
<path d="M223.53 325.465C216.738 325.465 211.419 321.538 211.419 316.524C211.419 311.509 216.738 307.582 223.53 307.582C230.319 307.582 235.638 311.509 235.638 316.524C235.638 321.538 230.319 325.465 223.53 325.465ZM223.53 312.989C219.691 312.989 216.825 314.858 216.825 316.524C216.825 318.19 219.694 320.055 223.53 320.055C227.365 320.055 230.227 318.19 230.227 316.524C230.227 314.858 227.365 312.989 223.53 312.989Z" fill="url(#header-paint3_linear)"/>
<path d="M286.509 415.444C286.049 415.444 285.586 415.326 285.16 415.082L126.65 323.606H46.5862C45.096 323.606 43.8795 322.397 43.8795 320.903C43.8795 319.409 45.0926 318.2 46.5862 318.2H127.377C127.853 318.2 128.316 318.325 128.729 318.561L287.864 410.399C289.158 411.146 289.601 412.798 288.854 414.092C288.35 414.957 287.441 415.444 286.509 415.444Z" fill="url(#header-paint4_linear)"/>
<path d="M37.175 329.841C30.3828 329.841 25.0638 325.914 25.0638 320.9C25.0638 315.888 30.3828 311.958 37.175 311.958C43.9639 311.958 49.2828 315.885 49.2828 320.9C49.2828 325.914 43.9639 329.841 37.175 329.841ZM37.175 317.365C33.3362 317.365 30.474 319.23 30.474 320.9C30.474 322.569 33.3396 324.434 37.175 324.434C41.0105 324.434 43.8726 322.569 43.8726 320.9C43.8726 319.23 41.0105 317.365 37.175 317.365Z" fill="url(#header-paint5_linear)"/>
<path d="M234.015 445.144C233.552 445.144 233.093 445.026 232.664 444.782L120.23 379.79H21.5122C20.0186 379.79 18.8088 378.58 18.8088 377.086C18.8088 375.593 20.0152 374.383 21.5122 374.383H120.953C121.429 374.383 121.896 374.508 122.305 374.744L235.371 440.102C236.665 440.849 237.108 442.501 236.361 443.796C235.857 444.661 234.948 445.144 234.015 445.144Z" fill="url(#header-paint6_linear)"/>
<path d="M12.1044 386.024C5.31554 386.024 0 382.098 0 377.083C0 372.068 5.31554 368.141 12.1044 368.141C18.8967 368.141 24.2157 372.068 24.2157 377.083C24.2157 382.098 18.8933 386.024 12.1044 386.024ZM12.1044 373.552C8.269 373.552 5.4068 375.417 5.4068 377.086C5.4068 378.756 8.27238 380.621 12.1044 380.621C15.9432 380.621 18.8089 378.756 18.8089 377.086C18.8089 375.417 15.9399 373.552 12.1044 373.552Z" fill="url(#header-paint7_linear)"/>
<path d="M639.919 619.526C639.46 619.526 638.997 619.408 638.571 619.161L515.996 548.187C514.702 547.44 514.262 545.784 515.009 544.494C515.759 543.203 517.412 542.76 518.706 543.51L641.281 614.484C642.572 615.235 643.015 616.887 642.265 618.178C641.761 619.043 640.852 619.526 639.919 619.526Z" fill="url(#header-paint8_linear)"/>
<path d="M647.012 629.856C640.224 629.856 634.905 625.926 634.905 620.915C634.905 615.9 640.224 611.974 647.012 611.974C653.805 611.974 659.12 615.9 659.12 620.915C659.12 625.93 653.805 629.856 647.012 629.856ZM647.012 617.38C643.177 617.38 640.311 619.246 640.311 620.915C640.311 622.584 643.18 624.45 647.012 624.45C650.851 624.45 653.714 622.584 653.714 620.915C653.717 619.246 650.851 617.38 647.012 617.38Z" fill="url(#header-paint9_linear)"/>
<path d="M686.553 670.982H625.314C624.838 670.982 624.375 670.857 623.966 670.62L459.086 575.333C457.792 574.586 457.349 572.933 458.096 571.639C458.846 570.348 460.499 569.906 461.79 570.652L626.041 665.575H686.553C688.046 665.575 689.256 666.785 689.256 668.278C689.256 669.772 688.05 670.982 686.553 670.982Z" fill="url(#header-paint10_linear)"/>
<path d="M695.961 677.22C689.172 677.22 683.853 673.29 683.853 668.278C683.853 663.267 689.172 659.337 695.961 659.337C702.753 659.337 708.069 663.264 708.069 668.278C708.069 673.293 702.75 677.22 695.961 677.22ZM695.961 664.744C692.125 664.744 689.26 666.609 689.26 668.275C689.26 669.944 692.129 671.81 695.961 671.81C699.8 671.81 702.662 669.944 702.662 668.275C702.662 666.609 699.796 664.744 695.961 664.744Z" fill="url(#header-paint11_linear)"/>
<path d="M813.933 780.395C813.47 780.395 813.004 780.277 812.575 780.026L741.898 738.709C741.07 738.222 740.56 737.337 740.56 736.373V618.154L575.214 522.843C573.92 522.096 573.474 520.444 574.22 519.149C574.967 517.855 576.616 517.412 577.914 518.159L744.615 614.251C745.45 614.734 745.967 615.627 745.967 616.593V734.822L815.302 775.36C816.593 776.113 817.029 777.769 816.272 779.057C815.768 779.915 814.863 780.395 813.933 780.395Z" fill="url(#header-paint12_linear)"/>
<path d="M820.993 790.756C814.2 790.756 808.881 786.829 808.881 781.814C808.881 776.799 814.2 772.873 820.993 772.873C827.781 772.873 833.1 776.799 833.1 781.814C833.1 786.829 827.778 790.756 820.993 790.756ZM820.993 778.279C817.154 778.279 814.291 780.148 814.291 781.817C814.291 783.483 817.157 785.349 820.993 785.349C824.828 785.349 827.69 783.483 827.69 781.817C827.69 780.145 824.825 778.279 820.993 778.279Z" fill="url(#header-paint13_linear)"/>
<path d="M896.461 832.138C894.971 832.138 893.758 830.928 893.758 829.434V766.493L791.705 707.572C790.87 707.089 790.356 706.197 790.356 705.23V604.458C790.356 602.965 791.566 601.755 793.06 601.755C794.553 601.755 795.763 602.965 795.763 604.458V703.669L897.816 762.59C898.651 763.073 899.168 763.965 899.168 764.928V829.431C899.164 830.928 897.955 832.138 896.461 832.138Z" fill="url(#header-paint14_linear)"/>
<path d="M793.056 607.162C786.267 607.162 780.949 603.235 780.949 598.22C780.949 593.205 786.267 589.279 793.056 589.279C799.845 589.279 805.164 593.205 805.164 598.22C805.164 603.235 799.845 607.162 793.056 607.162ZM793.056 594.689C789.221 594.689 786.355 596.558 786.355 598.223C786.355 599.889 789.224 601.755 793.056 601.755C796.888 601.755 799.757 599.889 799.757 598.223C799.757 596.558 796.892 594.689 793.056 594.689Z" fill="url(#header-paint15_linear)"/>
<path d="M896.461 844.614C889.672 844.614 884.353 840.687 884.353 835.672C884.353 830.657 889.672 826.731 896.461 826.731C903.253 826.731 908.572 830.661 908.572 835.672C908.572 840.684 903.25 844.614 896.461 844.614ZM896.461 832.138C892.626 832.138 889.763 834.003 889.763 835.672C889.763 837.342 892.629 839.207 896.461 839.207C900.3 839.207 903.162 837.342 903.162 835.672C903.162 834.003 900.297 832.138 896.461 832.138Z" fill="url(#header-paint16_linear)"/>
<path d="M1022.64 587.15C1022.42 587.15 1022.18 587.092 1021.97 586.967L985.45 565.884C984.804 565.512 984.581 564.685 984.956 564.039C985.332 563.394 986.153 563.171 986.805 563.546L1023.32 584.629C1023.97 585.001 1024.19 585.828 1023.82 586.474C1023.56 586.906 1023.11 587.15 1022.64 587.15Z" fill="url(#header-paint17_linear)"/>
<path d="M888.719 509.826C888.493 509.826 888.256 509.769 888.047 509.644L802.816 460.435C802.17 460.063 801.947 459.235 802.322 458.59C802.694 457.945 803.518 457.722 804.171 458.097L889.398 507.305C890.044 507.677 890.267 508.505 889.892 509.15C889.638 509.586 889.185 509.826 888.719 509.826Z" fill="#5E72E4"/>
<path d="M791.272 453.565C791.042 453.565 790.809 453.504 790.596 453.383L698.539 400.231C697.894 399.859 697.671 399.031 698.046 398.385C698.421 397.74 699.242 397.517 699.894 397.892L791.951 451.044C792.597 451.416 792.82 452.244 792.445 452.889C792.191 453.325 791.735 453.565 791.272 453.565Z" fill="url(#header-paint18_linear)"/>
<path d="M673.806 385.747C673.58 385.747 673.343 385.686 673.134 385.565L649.148 371.717C648.503 371.345 648.28 370.517 648.655 369.872C649.026 369.226 649.851 369.003 650.503 369.378L674.486 383.226C675.131 383.598 675.354 384.426 674.979 385.071C674.725 385.504 674.276 385.747 673.806 385.747Z" fill="url(#header-paint19_linear)"/>
<path d="M373.703 212.484C373.477 212.484 373.24 212.426 373.03 212.304L273.498 154.837C272.853 154.462 272.63 153.637 273.005 152.989C273.377 152.343 274.205 152.12 274.854 152.495L374.386 209.959C375.031 210.331 375.254 211.159 374.879 211.804C374.629 212.244 374.173 212.484 373.703 212.484Z" fill="url(#header-paint20_linear)"/>
<path d="M240.683 135.684C240.453 135.684 240.22 135.626 240.01 135.501L134.568 74.6242C133.922 74.2525 133.696 73.4246 134.075 72.7791C134.446 72.1337 135.274 71.9107 135.92 72.2858L241.362 133.163C242.007 133.534 242.23 134.362 241.855 135.008C241.605 135.44 241.152 135.684 240.683 135.684Z" fill="url(#header-paint21_linear)"/>
<path d="M69.1797 36.6652C68.9499 36.6652 68.7167 36.6078 68.5038 36.4827L39.0774 19.4953C38.4354 19.1236 38.2124 18.2957 38.5841 17.6502C38.9558 17.0048 39.7803 16.7818 40.4291 17.1569L69.8555 34.1443C70.501 34.516 70.724 35.3439 70.3489 35.9894C70.1022 36.4219 69.6461 36.6652 69.1797 36.6652Z" fill="url(#header-paint22_linear)"/>
<path d="M1007.58 590.884C1007.35 590.884 1007.12 590.826 1006.91 590.701L750.201 442.491C749.555 442.12 749.332 441.292 749.707 440.646C750.079 440.001 750.904 439.778 751.556 440.153L1008.26 588.363C1008.91 588.738 1009.13 589.562 1008.76 590.208C1008.51 590.64 1008.05 590.884 1007.58 590.884Z" fill="url(#header-paint23_linear)"/>
<path d="M684.897 404.58C684.671 404.58 684.434 404.522 684.225 404.397L172.96 109.217C172.314 108.846 172.088 108.018 172.466 107.372C172.838 106.727 173.662 106.504 174.311 106.879L685.576 402.059C686.222 402.43 686.445 403.258 686.07 403.904C685.82 404.336 685.367 404.58 684.897 404.58Z" fill="url(#header-paint24_linear)"/>
<path d="M88.0224 59.9718C87.7926 59.9718 87.5594 59.911 87.3465 59.7894L55.4702 41.386C54.8248 41.0143 54.5984 40.1864 54.9768 39.541C55.3452 38.8955 56.1731 38.6725 56.8219 39.0476L88.7016 57.4509C89.3436 57.8226 89.57 58.6506 89.1949 59.296C88.9449 59.7285 88.4887 59.9718 88.0224 59.9718Z" fill="url(#header-paint25_linear)"/>
<path d="M1022.64 611.94C1022.42 611.94 1022.18 611.882 1021.97 611.761L996.118 596.835C995.473 596.463 995.25 595.635 995.625 594.99C996 594.344 996.821 594.121 997.47 594.496L1023.32 609.422C1023.97 609.797 1024.19 610.622 1023.81 611.271C1023.56 611.7 1023.11 611.94 1022.64 611.94Z" fill="url(#header-paint26_linear)"/>
<path d="M889.088 534.836C888.861 534.836 888.624 534.775 888.415 534.653L872.489 525.458C871.843 525.087 871.62 524.259 871.995 523.613C872.37 522.968 873.192 522.745 873.84 523.12L889.767 532.315C890.412 532.687 890.635 533.514 890.26 534.16C890.007 534.592 889.557 534.836 889.088 534.836Z" fill="url(#header-paint27_linear)"/>
<path d="M808.212 488.141C807.986 488.141 807.749 488.084 807.54 487.959L777.772 470.775C777.126 470.404 776.903 469.576 777.279 468.93C777.65 468.285 778.475 468.059 779.127 468.437L808.891 485.62C809.537 485.992 809.76 486.82 809.385 487.466C809.135 487.898 808.682 488.141 808.212 488.141Z" fill="#5E72E4"/>
<path d="M702.364 427.028C702.138 427.028 701.901 426.97 701.692 426.845L658.901 402.14C658.255 401.768 658.032 400.94 658.407 400.295C658.779 399.649 659.603 399.426 660.256 399.801L703.043 424.507C703.689 424.882 703.912 425.707 703.537 426.352C703.287 426.788 702.834 427.028 702.364 427.028Z" fill="url(#header-paint28_linear)"/>
<path d="M375.166 238.122C374.94 238.122 374.703 238.061 374.494 237.939L263.057 173.602C262.411 173.227 262.185 172.402 262.563 171.754C262.935 171.108 263.759 170.885 264.408 171.26L375.845 235.598C376.491 235.969 376.714 236.797 376.339 237.443C376.085 237.879 375.636 238.122 375.166 238.122Z" fill="url(#header-paint29_linear)"/>
<path d="M106.267 82.8696C106.037 82.8696 105.804 82.8121 105.591 82.6871L46.7078 48.6919C46.0623 48.3202 45.8393 47.4923 46.2144 46.8469C46.5895 46.2015 47.414 45.9784 48.0629 46.3535L106.943 80.3486C107.588 80.7204 107.815 81.5483 107.436 82.1937C107.183 82.6262 106.73 82.8696 106.267 82.8696Z" fill="url(#header-paint30_linear)"/>
<path d="M371.527 194.509C371.527 195.709 370.557 196.121 369.354 195.429C368.154 194.736 367.178 193.198 367.178 191.999C367.178 190.799 368.151 190.387 369.354 191.08C370.557 191.772 371.527 193.306 371.527 194.509Z" fill="#5E72E4"/>
<path d="M382.202 245.925C382.202 247.124 381.229 247.536 380.026 246.844C378.823 246.151 377.849 244.617 377.849 243.414C377.849 242.211 378.823 241.798 380.026 242.495C381.229 243.191 382.202 244.725 382.202 245.925Z" fill="#11CDEF"/>
<path d="M366.14 252.899C366.14 254.099 365.167 254.515 363.968 253.818C362.768 253.126 361.788 251.588 361.788 250.389C361.788 249.189 362.765 248.777 363.968 249.469C365.167 250.162 366.14 251.7 366.14 252.899Z" fill="#11CDEF"/>
<path d="M281.18 196.831C281.18 198.031 280.21 198.446 279.007 197.75C277.804 197.054 276.827 195.52 276.827 194.32C276.827 193.121 277.804 192.708 279.007 193.401C280.21 194.094 281.18 195.628 281.18 196.831Z" fill="#11CDEF"/>
<path d="M269.217 172.335C269.217 173.534 268.244 173.947 267.041 173.254C265.838 172.561 264.868 171.027 264.868 169.824C264.868 168.624 265.838 168.209 267.041 168.905C268.244 169.601 269.217 171.132 269.217 172.335Z" fill="#2DCE89"/>
<path d="M276.449 149.42C276.449 150.62 275.479 151.036 274.276 150.339C273.073 149.643 272.096 148.113 272.096 146.91C272.096 145.707 273.073 145.294 274.276 145.99C275.479 146.687 276.449 148.217 276.449 149.42Z" fill="#FB6340"/>
<path d="M172.476 132.74C172.476 133.94 171.503 134.352 170.3 133.66C169.097 132.967 168.124 131.433 168.124 130.23C168.124 129.027 169.097 128.614 170.3 129.31C171.503 130.007 172.476 131.541 172.476 132.74Z" fill="#FB6340"/>
<path d="M162.072 113.516C162.072 114.716 161.098 115.131 159.895 114.435C158.692 113.739 157.719 112.205 157.719 111.005C157.719 109.806 158.692 109.393 159.895 110.086C161.098 110.779 162.072 112.316 162.072 113.516Z" fill="#11CDEF"/>
<path d="M174.649 86.9179C174.649 88.1176 173.676 88.5298 172.473 87.8371C171.27 87.1443 170.297 85.6102 170.297 84.4072C170.297 83.2041 171.27 82.7919 172.473 83.488C173.676 84.1841 174.649 85.7149 174.649 86.9179Z" fill="#2DCE89"/>
<path d="M153.681 53.183C153.681 54.3826 152.704 54.7948 151.505 54.1021C150.305 53.4094 149.328 51.8752 149.328 50.6722C149.328 49.4692 150.302 49.0569 151.505 49.753C152.704 50.4458 153.681 51.9833 153.681 53.183Z" fill="#5E72E4"/>
<path d="M56.9706 3.76839C56.9706 4.96802 55.994 5.38366 54.7943 4.68754C53.5947 3.9948 52.6182 2.46063 52.6182 1.25762C52.6182 0.0546089 53.5913 -0.357656 54.7943 0.338467C55.994 1.03459 56.9706 2.56876 56.9706 3.76839Z" fill="#11CDEF"/>
<path d="M650.645 366.759C650.645 367.959 649.672 368.371 648.469 367.678C647.266 366.986 646.293 365.451 646.293 364.248C646.293 363.045 647.266 362.633 648.469 363.329C649.672 364.025 650.645 365.56 650.645 366.759Z" fill="#2DCE89"/>
<path d="M677.334 398.23C677.334 399.43 676.361 399.842 675.158 399.149C673.955 398.457 672.982 396.922 672.982 395.719C672.982 394.52 673.955 394.104 675.158 394.8C676.361 395.496 677.334 397.027 677.334 398.23Z" fill="#11CDEF"/>
<path d="M652.821 416.954C652.821 418.154 651.848 418.57 650.645 417.874C649.442 417.178 648.469 415.647 648.469 414.444C648.469 413.241 649.442 412.828 650.645 413.525C651.848 414.221 652.821 415.751 652.821 416.954Z" fill="#5E72E4"/>
<path d="M682.609 360.2C682.609 361.4 681.636 361.815 680.433 361.119C679.23 360.423 678.257 358.889 678.257 357.689C678.257 356.49 679.23 356.078 680.433 356.77C681.636 357.463 682.609 359.001 682.609 360.2Z" fill="#FB6340"/>
<path d="M777.096 423.855C777.096 425.054 776.123 425.467 774.92 424.774C773.717 424.081 772.744 422.547 772.744 421.344C772.744 420.144 773.717 419.729 774.92 420.425C776.123 421.121 777.096 422.655 777.096 423.855Z" fill="#2DCE89"/>
<path d="M794.016 460.422C794.016 461.621 793.043 462.037 791.84 461.341C790.637 460.645 789.664 459.114 789.664 457.911C789.664 456.708 790.637 456.296 791.84 456.992C793.043 457.688 794.016 459.222 794.016 460.422Z" fill="#FB6340"/>
<path d="M774.924 483.667C774.924 484.867 773.95 485.283 772.751 484.586C771.551 483.894 770.574 482.36 770.574 481.157C770.574 479.954 771.548 479.541 772.751 480.237C773.95 480.93 774.924 482.468 774.924 483.667Z" fill="#FB6340"/>
<path d="M892.247 544.284C892.247 545.484 891.274 545.899 890.071 545.203C888.868 544.507 887.895 542.976 887.895 541.773C887.895 540.57 888.868 540.158 890.071 540.854C891.274 541.55 892.247 543.081 892.247 544.284Z" fill="#5E72E4"/>
<path d="M898.634 498.083C898.634 499.283 897.661 499.695 896.458 499.002C895.258 498.31 894.281 496.772 894.281 495.572C894.281 494.373 895.255 493.96 896.458 494.653C897.661 495.346 898.634 496.884 898.634 498.083Z" fill="#FB6340"/>
<path d="M883.299 481.886C883.299 483.086 882.326 483.498 881.126 482.806C879.926 482.113 878.95 480.579 878.95 479.376C878.95 478.176 879.923 477.76 881.126 478.457C882.326 479.149 883.299 480.683 883.299 481.886Z" fill="#11CDEF"/>
<path d="M1015.46 561.484C1015.46 562.684 1014.49 563.1 1013.28 562.404C1012.08 561.707 1011.11 560.173 1011.11 558.974C1011.11 557.774 1012.08 557.362 1013.28 558.054C1014.49 558.747 1015.46 560.285 1015.46 561.484Z" fill="#5E72E4"/>
<path d="M991.296 613.197C991.296 614.397 990.323 614.812 989.12 614.116C987.917 613.42 986.943 611.886 986.943 610.686C986.943 609.486 987.917 609.074 989.12 609.767C990.323 610.46 991.296 611.997 991.296 613.197Z" fill="#11CDEF"/>
<path d="M885.475 516.236C885.475 517.436 884.502 517.848 883.299 517.156C882.099 516.463 881.123 514.925 881.123 513.726C881.123 512.526 882.096 512.114 883.299 512.807C884.502 513.499 885.475 515.033 885.475 516.236Z" fill="#2DCE89"/>
<path d="M62.8302 73.526C62.8302 74.7256 61.8603 75.1379 60.6573 74.4451C59.4543 73.7524 58.4777 72.2182 58.4777 71.0152C58.4777 69.8122 59.4543 69.3999 60.6573 70.096C61.8603 70.7922 62.8302 72.323 62.8302 73.526Z" fill="#2DCE89"/>
<path d="M318.726 466.136C319.456 462.294 314.982 463.672 313.465 464.44L313.691 461.949C313.691 461.949 320.754 458.438 321.156 464.308C321.585 470.495 315.313 473.574 312.394 473.303L312.708 470.471C315.648 470.488 318.351 468.089 318.726 466.136Z" fill="url(#header-paint31_radial)"/>
<path d="M313.397 477.923C312.688 480.741 309.308 482.826 305.247 482.755C301.32 482.687 297.816 480.626 296.957 477.923C294.403 468.981 294.217 460.428 294.217 457.951L305.247 457.752L316.266 458.269C316.263 458.272 316.425 467.589 313.397 477.923Z" fill="url(#header-paint32_linear)"/>
<path d="M316.263 458.229C316.263 461.466 311.329 464.024 305.243 463.946C299.157 463.868 294.223 461.185 294.223 457.951C294.223 454.718 299.157 452.156 305.243 452.234C311.329 452.312 316.263 454.995 316.263 458.229Z" fill="url(#header-paint33_linear)"/>
<path d="M305.247 456.88C300.715 456.823 296.825 458.228 295.136 460.286C296.825 462.388 300.715 463.889 305.247 463.946C309.778 464.004 313.668 462.598 315.357 460.54C313.668 458.441 309.775 456.938 305.247 456.88Z" fill="#765540"/>
<path d="M311.549 446.675C311.539 446.685 311.735 446.793 311.961 447.087C312.198 447.374 312.569 447.804 312.813 448.415C313.147 448.993 313.262 449.774 313.414 450.608C313.35 451.24 313.468 451.352 313.164 452.011C312.931 452.602 312.529 452.923 312.194 453.22C311.441 453.748 310.88 454.089 310.653 454.626C310.582 454.94 310.441 455.12 310.42 455.525C310.366 455.88 310.319 456.218 310.272 456.525C310.204 457.14 310.001 457.671 310.015 458.009C309.967 458.374 309.944 458.583 309.944 458.583C309.944 458.583 309.582 457.752 309.515 456.505C309.488 456.194 309.461 455.856 309.437 455.498C309.373 455.18 309.43 454.633 309.565 454.197C309.897 453.231 310.805 452.619 311.36 452.159C311.66 451.946 311.924 451.703 312.002 451.531C312.177 451.504 312.215 450.737 312.245 450.622C312.147 449.926 312.309 449.213 312.096 448.648C311.988 448.06 311.883 447.564 311.745 447.226C311.64 446.871 311.549 446.675 311.549 446.675Z" fill="#9BA0A4"/>
<path d="M304.625 441.217C304.625 441.217 305.27 442.018 305.794 443.478C305.902 443.846 306.108 444.225 306.159 444.674C306.243 445.114 306.348 445.587 306.395 446.077C306.385 446.766 306.46 446.976 306.182 447.699C305.973 448.364 305.547 448.773 305.182 449.165C304.374 449.858 303.776 450.365 303.57 451.156C303.449 451.423 303.381 452.004 303.273 452.382C303.175 452.805 303.077 453.2 303.074 453.545C303.009 454.244 302.915 454.863 302.939 455.299C302.911 455.738 302.925 455.995 302.925 455.995C302.925 455.995 302.435 455.089 302.313 453.494C302.249 453.089 302.273 452.683 302.293 452.254C302.34 451.791 302.249 451.446 302.438 450.831C302.563 450.301 302.824 449.787 303.168 449.324C303.52 448.888 303.922 448.517 304.243 448.192C304.577 447.895 304.895 447.567 304.99 447.29C305.172 447.145 305.226 446.323 305.216 446.104C305.172 445.668 305.182 445.239 305.182 444.826C305.213 444.411 305.084 444.029 305.047 443.667C304.881 442.214 304.625 441.217 304.625 441.217Z" fill="#9BA0A4"/>
<path d="M298.414 443.901C298.414 443.901 299.035 444.465 299.529 445.621C299.806 446.182 299.992 446.905 300.1 447.709C300.147 448.28 300.127 448.459 300.012 448.993C299.874 449.53 299.613 449.959 299.336 450.311C299.035 450.652 298.708 450.912 298.522 451.142C298.299 451.355 298.255 451.612 298.197 451.754C298.241 452.497 298.174 453.2 298.17 453.795C298.218 454.944 298.177 455.772 298.177 455.772C298.177 455.772 297.792 455.049 297.414 453.856C297.305 453.268 297.116 452.585 297.028 451.845C296.988 450.608 297.947 449.949 298.302 449.439C298.539 449.189 298.694 448.929 298.785 448.716C298.88 448.517 298.975 447.902 298.934 447.743C298.877 447.067 298.968 446.398 298.806 445.84C298.657 444.698 298.414 443.901 298.414 443.901Z" fill="#9BA0A4"/>
<path opacity="0.5" d="M391.275 383.25L224.784 479.376C224.784 479.376 217.616 483.046 217.616 486.911C217.616 490.973 224.452 494.653 224.452 494.653L437.486 617.647C437.486 617.647 444.555 622.821 451.236 622.821C457.315 622.821 464.632 617.85 464.632 617.85L631.123 521.724C631.123 521.724 638.294 518.058 638.294 514.189C638.294 510.13 631.458 506.447 631.458 506.447L418.424 383.453C418.424 383.453 411.355 378.276 404.67 378.276C398.591 378.283 391.275 383.25 391.275 383.25Z" fill="#EBEBFA"/>
<path d="M385.46 351.161L218.968 447.287C218.968 447.287 211.8 450.956 211.8 454.822C211.8 458.884 218.637 462.564 218.637 462.564L431.667 585.558C431.667 585.558 438.736 590.735 445.421 590.735C451.496 590.735 458.816 585.764 458.816 585.764L625.308 489.639L385.46 351.161Z" fill="url(#header-paint34_linear)"/>
<path d="M389.068 132.48C384.926 135.859 385.456 142.702 385.456 142.702L385.459 351.161L625.311 489.639V281.478C625.311 281.478 625.561 268.849 623.418 265.146C621.644 262.067 612.997 257.252 612.997 257.252L400.247 134.42C400.247 134.417 392.826 129.415 389.068 132.48Z" fill="url(#header-paint35_linear)"/>
<path d="M398.111 342.371V151.377L612.608 275.216L612.605 466.21L398.111 342.371Z" fill="url(#header-paint36_linear)"/>
<path d="M458.106 244.668C458.596 244.668 465.612 261.077 470.731 268.545C475.851 276.013 486.573 294.129 493.48 298.114C493.48 298.114 495.386 318.166 488.479 331.636C484.856 338.705 476.297 352.844 458.106 347.292C439.919 331.862 431.363 307.849 427.737 296.6C420.827 275.158 422.739 257.309 422.739 257.309C429.646 261.293 438.885 256.856 445.481 253.981C452.406 250.96 457.708 244.668 458.106 244.668Z" fill="url(#header-paint37_linear)"/>
<path d="M458.106 257.167C458.556 257.167 463.378 270.451 467.223 276.456C471.069 282.458 479.122 296.995 484.309 300.286C484.309 300.286 485.742 316.159 480.551 326.648C477.828 332.153 471.765 343.544 458.106 338.779C444.451 326.208 437.655 306.663 434.931 297.701C429.744 280.626 431.177 266.572 431.177 266.572C436.364 269.863 444.562 266.038 448.262 264.423C453.037 262.338 457.647 257.167 458.106 257.167Z" stroke="white" stroke-width="0.6" stroke-miterlimit="10"/>
<path d="M521.714 340.215V312.398C521.714 310.299 523.224 309.468 525.093 310.546L574.524 339.063C576.393 340.138 577.904 342.713 577.904 344.811V372.629C577.904 390.09 565.323 396.99 549.809 388.042C534.295 379.09 521.714 357.679 521.714 340.215Z" fill="url(#header-paint38_linear)"/>
<path d="M541.388 340.607C541.388 343.845 539.586 345.423 537.36 344.142C535.136 342.858 533.331 339.195 533.331 335.961V294.643C533.331 291.406 535.136 289.828 537.36 291.112C539.586 292.396 541.388 296.059 541.388 299.293V340.607Z" fill="url(#header-paint39_linear)"/>
<path d="M558.226 350.319C558.226 353.553 560.031 357.216 562.254 358.5C564.481 359.781 566.283 358.203 566.283 354.966V313.648C566.283 310.414 564.481 306.751 562.254 305.467C560.031 304.183 558.226 305.764 558.226 308.998V350.319Z" fill="url(#header-paint40_linear)"/>
<path d="M555.273 419.55L544.344 413.248V378.739L555.273 385.044V419.55Z" fill="url(#header-paint41_linear)"/>
<path d="M420.668 192.279C420.668 195.429 418.113 196.51 414.963 194.692C411.811 192.874 409.259 188.846 409.259 185.693C409.259 182.544 411.814 181.462 414.963 183.28C418.113 185.102 420.668 189.126 420.668 192.279Z" fill="white"/>
<path d="M438.716 202.691C438.716 205.84 436.161 206.921 433.012 205.103C429.859 203.285 427.308 199.257 427.308 196.105C427.308 192.952 429.863 191.874 433.012 193.692C436.161 195.51 438.716 199.538 438.716 202.691Z" fill="white"/>
<path d="M456.761 213.099C456.761 216.252 454.207 217.329 451.057 215.511C447.904 213.693 445.353 209.665 445.353 206.513C445.353 203.36 447.908 202.282 451.057 204.1C454.207 205.918 456.761 209.949 456.761 213.099Z" fill="white"/>
<path d="M486.482 235.959C483.325 234.141 480.774 230.113 480.774 226.96C480.774 223.807 483.329 222.73 486.482 224.548L592.306 285.597C595.459 287.415 598.01 291.443 598.01 294.592C598.01 297.745 595.455 298.823 592.306 297.005L486.482 235.959Z" fill="white"/>
<path d="M391.819 377.134C389.825 378.289 388.413 379.347 386.26 378.107L376.887 372.697C374.734 371.453 376.373 370.531 378.367 369.375C380.36 368.216 381.83 367.364 383.986 368.604L393.232 373.94C395.381 375.18 393.816 375.978 391.819 377.134Z" fill="#C3C3ED"/>
<path d="M488.587 517.632L479.274 512.262C477.135 511.029 478.078 510.505 480.815 508.92C483.468 507.379 484.329 506.883 486.468 508.116L495.653 513.411C497.792 514.645 496.548 515.25 494.18 516.625C492.098 517.838 490.726 518.866 488.587 517.632Z" fill="#C3C3ED"/>
<path d="M518.669 534.981L509.356 529.612C507.217 528.378 508.16 527.854 510.897 526.266C513.549 524.725 514.411 524.228 516.55 525.465L525.735 530.76C527.874 531.994 526.63 532.602 524.258 533.974C522.173 535.187 520.808 536.215 518.669 534.981Z" fill="#C3C3ED"/>
<path d="M407.404 386.122C405.414 387.278 404.001 388.336 401.849 387.096L392.472 381.685C390.319 380.442 391.958 379.516 393.952 378.364C395.945 377.204 397.419 376.353 399.571 377.593L408.817 382.929C410.969 384.169 409.398 384.967 407.404 386.122Z" fill="#C3C3ED"/>
<path d="M422.993 395.111C420.999 396.267 419.586 397.324 417.434 396.084L408.057 390.674C405.904 389.434 407.543 388.508 409.537 387.352C411.53 386.193 413.004 385.342 415.156 386.582L424.405 391.918C426.558 393.158 424.986 393.955 422.993 395.111Z" fill="#C3C3ED"/>
<path d="M438.581 404.103C436.587 405.259 435.175 406.317 433.022 405.076L423.645 399.666C421.492 398.426 423.131 397.5 425.125 396.345C427.119 395.185 428.592 394.334 430.745 395.574L439.994 400.91C442.143 402.147 440.571 402.944 438.581 404.103Z" fill="#C3C3ED"/>
<path d="M453.99 412.987C451.997 414.146 450.584 415.201 448.432 413.96L439.054 408.55C436.902 407.31 438.541 406.384 440.534 405.229C442.528 404.069 444.001 403.218 446.154 404.458L455.4 409.794C457.552 411.034 455.981 411.832 453.99 412.987Z" fill="#C3C3ED"/>
<path d="M469.366 421.858C467.372 423.013 465.96 424.071 463.807 422.828L454.433 417.421C452.277 416.177 453.916 415.255 455.91 414.096C457.903 412.94 459.38 412.088 461.529 413.329L470.778 418.664C472.931 419.905 471.36 420.702 469.366 421.858Z" fill="#C3C3ED"/>
<path d="M484.843 430.782C482.849 431.938 481.437 432.996 479.284 431.756L469.907 426.345C467.754 425.105 469.393 424.179 471.387 423.024C473.38 421.864 474.854 421.013 477.006 422.253L486.255 427.589C488.408 428.829 486.833 429.627 484.843 430.782Z" fill="#C3C3ED"/>
<path d="M500.61 439.879C498.617 441.035 497.204 442.093 495.052 440.849L485.674 435.442C483.522 434.199 485.161 433.273 487.154 432.117C489.148 430.961 490.621 430.11 492.774 431.35L502.023 436.682C504.175 437.923 502.604 438.72 500.61 439.879Z" fill="#C3C3ED"/>
<path d="M515.753 448.611C513.759 449.77 512.346 450.825 510.194 449.584L500.816 444.174C498.664 442.934 500.303 442.008 502.297 440.852C504.287 439.693 505.76 438.842 507.913 440.082L517.162 445.418C519.314 446.655 517.743 447.452 515.753 448.611Z" fill="#C3C3ED"/>
<path d="M531.409 457.641C529.415 458.796 527.999 459.851 525.847 458.61L516.472 453.2C514.32 451.96 515.959 451.034 517.953 449.878C519.946 448.723 521.42 447.868 523.572 449.108L532.818 454.444C534.97 455.684 533.399 456.481 531.409 457.641Z" fill="#C3C3ED"/>
<path d="M546.916 466.582C544.922 467.738 543.51 468.792 541.357 467.552L531.98 462.142C529.827 460.901 531.466 459.976 533.46 458.82C535.45 457.664 536.927 456.813 539.08 458.053L548.325 463.385C550.478 464.629 548.906 465.426 546.916 466.582Z" fill="#C3C3ED"/>
<path d="M562.363 475.493C560.369 476.649 558.956 477.706 556.807 476.466L547.43 471.056C545.277 469.813 546.916 468.89 548.91 467.734C550.903 466.575 552.374 465.724 554.53 466.964L563.775 472.3C565.928 473.54 564.36 474.334 562.363 475.493Z" fill="#C3C3ED"/>
<path d="M577.87 484.435C575.876 485.594 574.464 486.648 572.311 485.408L562.934 479.998C560.781 478.757 562.42 477.831 564.414 476.676C566.407 475.517 567.881 474.665 570.033 475.909L579.282 481.241C581.435 482.481 579.864 483.279 577.87 484.435Z" fill="#C3C3ED"/>
<path d="M593.452 493.423C591.458 494.579 590.045 495.633 587.893 494.393L578.515 488.983C576.366 487.743 578.002 486.817 579.995 485.661C581.986 484.502 583.462 483.654 585.612 484.894L594.861 490.227C597.013 491.467 595.445 492.264 593.452 493.423Z" fill="#C3C3ED"/>
<path d="M443.586 489.733C442.657 490.27 440.801 490.074 439.44 489.287L371.372 450.031C370.013 449.247 369.662 448.172 370.591 447.635L381.131 441.515C382.057 440.974 383.912 441.174 385.277 441.958L453.345 481.214C454.703 481.998 455.055 483.073 454.122 483.61L443.586 489.733Z" fill="#C3C3ED"/>
<path d="M462.084 500.398C461.154 500.939 459.299 500.739 457.934 499.955L446.069 493.112C444.711 492.328 444.36 491.254 445.292 490.716L455.829 484.597C456.758 484.056 458.613 484.255 459.978 485.039L471.843 491.882C473.201 492.666 473.553 493.741 472.62 494.278L462.084 500.398Z" fill="#C3C3ED"/>
<path d="M477.175 509.1C476.246 509.64 474.387 509.441 473.026 508.657L464.868 503.953C463.51 503.169 463.158 502.094 464.091 501.557L474.627 495.437C475.557 494.897 477.412 495.096 478.774 495.88L486.931 500.584C488.29 501.368 488.644 502.442 487.712 502.98L477.175 509.1Z" fill="#C3C3ED"/>
<path d="M507.098 526.361C506.169 526.901 504.314 526.702 502.952 525.918L494.795 521.214C493.433 520.43 493.081 519.355 494.014 518.818L504.551 512.698C505.48 512.158 507.338 512.357 508.7 513.141L516.858 517.845C518.216 518.629 518.568 519.704 517.638 520.244L507.098 526.361Z" fill="#C3C3ED"/>
<path d="M353.85 420.438C353.053 420.901 351.924 420.999 351.329 420.655L321.636 403.529C321.041 403.184 321.207 402.532 322.004 402.069L331.047 396.818C331.845 396.355 332.97 396.257 333.565 396.598L363.261 413.724C363.856 414.069 363.69 414.721 362.893 415.184L353.85 420.438Z" fill="#C3C3ED"/>
<path d="M537.12 526.134C536.322 526.597 535.193 526.695 534.599 526.351L504.905 509.225C504.314 508.883 504.48 508.231 505.274 507.765L514.316 502.513C515.114 502.05 516.243 501.952 516.837 502.297L546.531 519.423C547.126 519.764 546.96 520.417 546.162 520.883L537.12 526.134Z" fill="#C3C3ED"/>
<path d="M320.054 418.762C319.257 419.225 318.128 419.327 317.533 418.982L306.24 412.467C305.645 412.126 305.811 411.473 306.608 411.007L317.625 404.61C318.422 404.147 319.547 404.049 320.142 404.39L331.439 410.906C332.034 411.25 331.868 411.903 331.071 412.365L320.054 418.762Z" fill="#C3C3ED"/>
<path d="M334.876 427.312C334.082 427.775 332.953 427.873 332.358 427.531L321.061 421.016C320.467 420.672 320.632 420.019 321.426 419.556L332.446 413.16C333.24 412.697 334.369 412.599 334.964 412.943L346.26 419.458C346.855 419.8 346.69 420.452 345.892 420.918L334.876 427.312Z" fill="#C3C3ED"/>
<path d="M349.829 435.936C349.035 436.399 347.906 436.497 347.311 436.152L336.014 429.637C335.42 429.292 335.585 428.643 336.383 428.177L347.399 421.78C348.197 421.317 349.322 421.219 349.917 421.56L361.214 428.076C361.808 428.417 361.643 429.069 360.845 429.535L349.829 435.936Z" fill="#C3C3ED"/>
<path d="M368.286 446.58C367.489 447.043 366.363 447.141 365.765 446.797L351.464 438.548C350.87 438.203 351.035 437.551 351.833 437.088L362.849 430.691C363.646 430.228 364.775 430.13 365.37 430.475L379.671 438.724C380.266 439.065 380.1 439.717 379.302 440.18L368.286 446.58Z" fill="#C3C3ED"/>
<path d="M359.943 408.25C359.145 408.713 358.02 408.811 357.425 408.469L335.203 395.655C334.609 395.31 334.774 394.662 335.572 394.195L344.615 388.944C345.412 388.481 346.541 388.383 347.132 388.728L369.357 401.542C369.949 401.883 369.783 402.535 368.986 402.998L359.943 408.25Z" fill="#C3C3ED"/>
<path d="M550.684 518.257C549.89 518.72 548.758 518.818 548.166 518.474L525.945 505.659C525.35 505.315 525.515 504.666 526.313 504.2L535.356 498.952C536.153 498.489 537.278 498.387 537.873 498.732L560.095 511.546C560.69 511.887 560.524 512.54 559.727 513.006L550.684 518.257Z" fill="#C3C3ED"/>
<path d="M369.8 398.288C369.002 398.751 367.877 398.849 367.282 398.507L348.724 387.802C348.129 387.461 348.295 386.808 349.092 386.345L358.135 381.094C358.932 380.631 360.058 380.533 360.653 380.874L379.211 391.576C379.806 391.921 379.64 392.57 378.843 393.036L369.8 398.288Z" fill="#C3C3ED"/>
<path d="M577.627 502.611C576.829 503.074 575.704 503.176 575.109 502.831L556.55 492.129C555.956 491.784 556.125 491.132 556.919 490.669L565.961 485.418C566.759 484.955 567.884 484.857 568.482 485.202L587.041 495.904C587.633 496.245 587.467 496.897 586.673 497.36L577.627 502.611Z" fill="#C3C3ED"/>
<path d="M375.778 386.197C374.981 386.66 373.852 386.758 373.257 386.416L362.146 380.009C361.552 379.665 361.72 379.012 362.514 378.549L371.561 373.302C372.355 372.839 373.483 372.741 374.078 373.082L385.189 379.489C385.781 379.834 385.618 380.486 384.821 380.949L375.778 386.197Z" fill="#C3C3ED"/>
<path d="M390.69 394.8C389.893 395.263 388.764 395.361 388.17 395.02L377.059 388.613C376.464 388.268 376.629 387.619 377.427 387.153L386.473 381.902C387.267 381.439 388.396 381.341 388.991 381.685L400.102 388.092C400.693 388.437 400.531 389.086 399.733 389.552L390.69 394.8Z" fill="#C3C3ED"/>
<path d="M405.644 403.424C404.846 403.887 403.717 403.985 403.126 403.64L392.015 397.233C391.42 396.892 391.586 396.24 392.384 395.777L401.426 390.525C402.224 390.063 403.349 389.965 403.944 390.306L415.055 396.713C415.65 397.054 415.484 397.706 414.686 398.173L405.644 403.424Z" fill="#C3C3ED"/>
<path d="M420.435 411.953C419.637 412.416 418.508 412.514 417.914 412.173L406.803 405.766C406.208 405.421 406.374 404.772 407.171 404.306L416.214 399.055C417.011 398.592 418.14 398.494 418.735 398.838L429.846 405.245C430.441 405.587 430.275 406.239 429.477 406.702L420.435 411.953Z" fill="#C3C3ED"/>
<path d="M435.601 420.702C434.807 421.165 433.678 421.263 433.083 420.918L421.972 414.511C421.381 414.17 421.543 413.518 422.34 413.055L431.383 407.803C432.181 407.341 433.309 407.243 433.904 407.584L445.015 413.991C445.606 414.332 445.441 414.984 444.647 415.451L435.601 420.702Z" fill="#C3C3ED"/>
<path d="M450.672 429.393C449.871 429.856 448.746 429.954 448.151 429.613L437.04 423.206C436.445 422.865 436.611 422.213 437.408 421.75L446.455 416.498C447.249 416.035 448.377 415.937 448.972 416.282L460.08 422.689C460.678 423.034 460.509 423.686 459.715 424.149L450.672 429.393Z" fill="#C3C3ED"/>
<path d="M465.527 437.963C464.733 438.426 463.604 438.524 463.01 438.179L451.899 431.772C451.304 431.428 451.469 430.779 452.267 430.313L461.31 425.065C462.107 424.602 463.233 424.5 463.831 424.845L474.938 431.252C475.537 431.597 475.367 432.249 474.573 432.712L465.527 437.963Z" fill="#C3C3ED"/>
<path d="M480.49 446.59C479.696 447.053 478.568 447.151 477.973 446.81L466.862 440.403C466.271 440.062 466.436 439.41 467.23 438.947L476.277 433.695C477.071 433.232 478.199 433.134 478.794 433.479L489.905 439.886C490.496 440.231 490.331 440.883 489.537 441.346L480.49 446.59Z" fill="#C3C3ED"/>
<path d="M495.457 455.221C494.659 455.684 493.531 455.782 492.936 455.437L481.829 449.03C481.234 448.689 481.399 448.037 482.194 447.57L491.24 442.319C492.034 441.856 493.163 441.758 493.757 442.103L504.868 448.51C505.463 448.854 505.294 449.507 504.5 449.97L495.457 455.221Z" fill="#C3C3ED"/>
<path d="M510.417 463.852C509.619 464.314 508.491 464.413 507.899 464.068L496.788 457.661C496.194 457.319 496.359 456.667 497.157 456.204L506.2 450.953C506.997 450.49 508.122 450.392 508.717 450.737L519.828 457.144C520.423 457.488 520.257 458.141 519.46 458.604L510.417 463.852Z" fill="#C3C3ED"/>
<path d="M525.38 472.482C524.586 472.945 523.457 473.043 522.863 472.698L511.752 466.291C511.157 465.947 511.323 465.294 512.12 464.831L521.163 459.58C521.96 459.117 523.089 459.019 523.684 459.361L534.791 465.768C535.386 466.109 535.22 466.761 534.423 467.227L525.38 472.482Z" fill="#C3C3ED"/>
<path d="M540.343 481.113C539.549 481.576 538.421 481.674 537.829 481.329L526.715 474.922C526.12 474.577 526.289 473.925 527.083 473.462L536.13 468.211C536.924 467.748 538.052 467.65 538.647 467.991L549.758 474.398C550.349 474.739 550.184 475.392 549.39 475.858L540.343 481.113Z" fill="#C3C3ED"/>
<path d="M555.215 489.686C554.418 490.149 553.293 490.25 552.698 489.905L541.587 483.498C540.992 483.154 541.158 482.505 541.955 482.039L550.998 476.787C551.796 476.324 552.921 476.226 553.516 476.568L564.627 482.975C565.221 483.316 565.056 483.968 564.258 484.434L555.215 489.686Z" fill="#C3C3ED"/>
<path d="M564.157 510.434C563.363 510.897 562.234 510.995 561.639 510.651L550.528 504.244C549.934 503.899 550.099 503.247 550.897 502.784L559.94 497.532C560.737 497.069 561.866 496.971 562.46 497.313L573.571 503.72C574.163 504.061 573.997 504.713 573.203 505.18L564.157 510.434Z" fill="#C3C3ED"/>
<path d="M549.38 501.912C548.585 502.375 547.46 502.473 546.865 502.128L535.755 495.721C535.156 495.38 535.325 494.728 536.119 494.261L545.162 489.01C545.96 488.547 547.088 488.449 547.683 488.79L558.794 495.197C559.389 495.542 559.22 496.191 558.426 496.657L549.38 501.912Z" fill="#C3C3ED"/>
<path d="M534.416 493.285C533.622 493.748 532.493 493.846 531.902 493.501L520.788 487.094C520.196 486.749 520.359 486.1 521.156 485.634L530.199 480.383C530.996 479.92 532.125 479.822 532.72 480.163L543.831 486.57C544.422 486.911 544.256 487.564 543.462 488.03L534.416 493.285Z" fill="#C3C3ED"/>
<path d="M519.453 484.654C518.655 485.117 517.53 485.215 516.935 484.87L505.824 478.463C505.23 478.119 505.395 477.47 506.193 477.004L515.236 471.752C516.033 471.289 517.162 471.191 517.757 471.533L528.864 477.94C529.459 478.281 529.293 478.933 528.496 479.399L519.453 484.654Z" fill="#C3C3ED"/>
<path d="M504.277 475.899C503.479 476.365 502.354 476.463 501.759 476.118L490.648 469.711C490.054 469.366 490.219 468.718 491.017 468.251L500.059 463C500.857 462.537 501.982 462.439 502.577 462.78L513.691 469.187C514.283 469.529 514.117 470.181 513.32 470.647L504.277 475.899Z" fill="#C3C3ED"/>
<path d="M489.422 467.332C488.624 467.795 487.496 467.893 486.901 467.552L475.79 461.145C475.195 460.8 475.364 460.151 476.158 459.685L485.204 454.434C485.998 453.971 487.127 453.873 487.722 454.214L498.83 460.621C499.424 460.962 499.259 461.614 498.461 462.081L489.422 467.332Z" fill="#C3C3ED"/>
<path d="M474.455 458.702C473.658 459.165 472.532 459.263 471.938 458.921L460.827 452.514C460.232 452.17 460.397 451.521 461.195 451.054L470.238 445.803C471.035 445.34 472.164 445.242 472.755 445.587L483.866 451.994C484.461 452.335 484.295 452.987 483.498 453.454L474.455 458.702Z" fill="#C3C3ED"/>
<path d="M459.701 450.193C458.904 450.656 457.775 450.754 457.184 450.409L446.073 444.002C445.475 443.657 445.644 443.008 446.438 442.542L455.484 437.294C456.278 436.831 457.407 436.73 458.005 437.074L469.113 443.482C469.707 443.826 469.542 444.478 468.744 444.941L459.701 450.193Z" fill="#C3C3ED"/>
<path d="M444.529 441.44C443.731 441.903 442.602 442.001 442.008 441.66L430.897 435.253C430.302 434.912 430.471 434.26 431.265 433.793L440.311 428.545C441.105 428.082 442.234 427.984 442.829 428.326L453.94 434.733C454.531 435.074 454.369 435.726 453.571 436.189L444.529 441.44Z" fill="#C3C3ED"/>
<path d="M429.67 432.871C428.873 433.334 427.744 433.432 427.149 433.087L416.038 426.68C415.447 426.335 415.612 425.683 416.41 425.22L425.453 419.969C426.25 419.506 427.376 419.408 427.97 419.749L439.081 426.156C439.676 426.501 439.51 427.153 438.713 427.616L429.67 432.871Z" fill="#C3C3ED"/>
<path d="M414.602 424.183C413.804 424.646 412.676 424.744 412.084 424.402L400.974 417.995C400.379 417.654 400.544 417.002 401.342 416.535L410.385 411.287C411.182 410.825 412.307 410.727 412.902 411.068L424.017 417.475C424.608 417.816 424.442 418.472 423.648 418.935L414.602 424.183Z" fill="#C3C3ED"/>
<path d="M399.74 415.613C398.943 416.076 397.817 416.174 397.222 415.829L386.112 409.422C385.517 409.081 385.683 408.429 386.48 407.962L395.523 402.714C396.32 402.248 397.446 402.15 398.04 402.495L409.151 408.902C409.746 409.246 409.58 409.899 408.783 410.362L399.74 415.613Z" fill="#C3C3ED"/>
<path d="M384.743 406.962C383.945 407.425 382.817 407.523 382.222 407.178L371.115 400.771C370.52 400.43 370.686 399.778 371.483 399.311L380.526 394.064C381.32 393.601 382.449 393.503 383.043 393.844L394.154 400.251C394.749 400.596 394.583 401.248 393.786 401.711L384.743 406.962Z" fill="#C3C3ED"/>
<path d="M375.011 416.941C374.217 417.404 373.088 417.502 372.493 417.157L361.382 410.75C360.788 410.409 360.953 409.757 361.751 409.29L370.794 404.042C371.591 403.579 372.72 403.481 373.315 403.823L384.422 410.23C385.017 410.574 384.851 411.223 384.057 411.69L375.011 416.941Z" fill="#C3C3ED"/>
<path d="M389.974 425.568C389.18 426.031 388.051 426.133 387.457 425.788L376.346 419.381C375.751 419.04 375.92 418.387 376.714 417.924L385.757 412.673C386.554 412.21 387.683 412.112 388.278 412.457L399.389 418.864C399.984 419.205 399.815 419.857 399.02 420.324L389.974 425.568Z" fill="#C3C3ED"/>
<path d="M405.045 434.26C404.248 434.723 403.119 434.821 402.525 434.476L391.414 428.069C390.819 427.724 390.984 427.075 391.782 426.609L400.825 421.358C401.622 420.895 402.751 420.797 403.346 421.141L414.453 427.548C415.052 427.89 414.882 428.542 414.088 429.008L405.045 434.26Z" fill="#C3C3ED"/>
<path d="M419.769 442.755C418.975 443.218 417.843 443.316 417.251 442.971L406.14 436.564C405.546 436.223 405.711 435.571 406.509 435.104L415.551 429.853C416.349 429.39 417.474 429.292 418.069 429.637L429.18 436.044C429.775 436.385 429.609 437.037 428.815 437.504L419.769 442.755Z" fill="#C3C3ED"/>
<path d="M434.735 451.382C433.938 451.845 432.809 451.943 432.215 451.598L421.104 445.191C420.509 444.847 420.674 444.194 421.472 443.732L430.515 438.48C431.312 438.017 432.441 437.919 433.036 438.264L444.147 444.671C444.738 445.012 444.576 445.664 443.778 446.131L434.735 451.382Z" fill="#C3C3ED"/>
<path d="M449.8 460.074C449.006 460.537 447.877 460.635 447.283 460.29L436.172 453.883C435.577 453.538 435.742 452.889 436.54 452.423L445.583 447.172C446.38 446.709 447.509 446.611 448.1 446.955L459.211 453.362C459.806 453.707 459.64 454.356 458.846 454.822L449.8 460.074Z" fill="#C3C3ED"/>
<path d="M464.97 468.822C464.175 469.285 463.047 469.383 462.452 469.042L451.341 462.635C450.746 462.29 450.915 461.638 451.709 461.175L460.752 455.924C461.55 455.461 462.678 455.363 463.273 455.704L474.381 462.111C474.979 462.453 474.81 463.105 474.016 463.571L464.97 468.822Z" fill="#C3C3ED"/>
<path d="M479.619 477.267C478.821 477.73 477.692 477.828 477.098 477.483L465.987 471.076C465.392 470.732 465.558 470.083 466.355 469.617L475.398 464.365C476.195 463.902 477.324 463.804 477.919 464.146L489.026 470.553C489.625 470.897 489.459 471.549 488.661 472.012L479.619 477.267Z" fill="#C3C3ED"/>
<path d="M494.683 485.959C493.886 486.421 492.76 486.519 492.166 486.175L481.055 479.768C480.46 479.426 480.626 478.774 481.423 478.311L490.466 473.06C491.263 472.597 492.392 472.499 492.987 472.84L504.094 479.247C504.689 479.589 504.523 480.241 503.726 480.704L494.683 485.959Z" fill="#C3C3ED"/>
<path d="M509.646 494.589C508.852 495.052 507.724 495.15 507.129 494.805L496.018 488.398C495.423 488.054 495.589 487.401 496.386 486.938L505.429 481.687C506.227 481.224 507.355 481.126 507.95 481.471L519.058 487.878C519.656 488.223 519.487 488.875 518.689 489.338L509.646 494.589Z" fill="#C3C3ED"/>
<path d="M524.714 503.277C523.92 503.74 522.792 503.838 522.197 503.493L511.086 497.086C510.491 496.742 510.657 496.093 511.454 495.626L520.497 490.375C521.295 489.912 522.42 489.814 523.018 490.159L534.126 496.566C534.72 496.911 534.555 497.559 533.757 498.026L524.714 503.277Z" fill="#C3C3ED"/>
<path d="M503.415 506.697C502.618 507.16 501.489 507.258 500.898 506.913L489.787 500.506C489.192 500.165 489.358 499.513 490.155 499.05L499.198 493.798C499.995 493.335 501.124 493.237 501.715 493.579L512.826 499.986C513.421 500.33 513.255 500.983 512.458 501.446L503.415 506.697Z" fill="#C3C3ED"/>
<path d="M488.766 498.245C487.969 498.708 486.84 498.806 486.245 498.462L475.134 492.055C474.54 491.713 474.705 491.061 475.503 490.595L484.545 485.343C485.343 484.881 486.472 484.783 487.063 485.127L498.174 491.534C498.769 491.876 498.603 492.531 497.809 492.994L488.766 498.245Z" fill="#C3C3ED"/>
<path d="M473.708 489.564C472.911 490.027 471.785 490.125 471.187 489.78L460.08 483.373C459.485 483.032 459.651 482.38 460.448 481.917L469.491 476.666C470.289 476.203 471.414 476.105 472.009 476.446L483.119 482.853C483.714 483.194 483.545 483.846 482.751 484.309L473.708 489.564Z" fill="#C3C3ED"/>
<path d="M458.742 480.93C457.944 481.393 456.815 481.491 456.224 481.146L445.113 474.739C444.519 474.395 444.684 473.746 445.481 473.28L454.524 468.028C455.322 467.565 456.447 467.467 457.042 467.809L468.153 474.216C468.748 474.557 468.582 475.209 467.785 475.675L458.742 480.93Z" fill="#C3C3ED"/>
<path d="M443.69 472.252C442.893 472.715 441.764 472.813 441.173 472.469L430.062 466.062C429.467 465.717 429.633 465.068 430.43 464.602L439.473 459.35C440.271 458.887 441.399 458.789 441.994 459.134L453.102 465.541C453.696 465.882 453.531 466.535 452.733 466.998L443.69 472.252Z" fill="#C3C3ED"/>
<path d="M428.879 463.706C428.082 464.169 426.953 464.267 426.358 463.923L415.248 457.516C414.653 457.174 414.822 456.522 415.616 456.059L424.662 450.808C425.456 450.345 426.585 450.243 427.18 450.588L438.29 456.995C438.885 457.336 438.72 457.989 437.922 458.452L428.879 463.706Z" fill="#C3C3ED"/>
<path d="M413.95 455.096C413.152 455.559 412.024 455.657 411.429 455.312L400.318 448.905C399.727 448.564 399.892 447.912 400.69 447.449L409.733 442.197C410.53 441.734 411.655 441.636 412.25 441.978L423.361 448.385C423.956 448.729 423.79 449.382 422.993 449.845L413.95 455.096Z" fill="#C3C3ED"/>
<path d="M399.01 446.482C398.216 446.945 397.088 447.043 396.493 446.699L385.382 440.292C384.787 439.95 384.953 439.298 385.75 438.832L394.793 433.584C395.59 433.121 396.716 433.019 397.314 433.364L408.425 439.771C409.016 440.112 408.851 440.765 408.057 441.231L399.01 446.482Z" fill="#C3C3ED"/>
<path d="M383.99 437.821C383.192 438.284 382.067 438.382 381.472 438.038L370.358 431.631C369.766 431.289 369.932 430.637 370.729 430.174L379.772 424.923C380.57 424.46 381.695 424.362 382.29 424.706L393.401 431.114C393.995 431.455 393.83 432.107 393.032 432.573L383.99 437.821Z" fill="#C3C3ED"/>
<path d="M368.786 429.049C367.989 429.512 366.86 429.61 366.265 429.268L355.154 422.861C354.56 422.517 354.725 421.868 355.523 421.402L364.566 416.15C365.363 415.687 366.492 415.589 367.087 415.934L378.198 422.341C378.792 422.686 378.627 423.335 377.829 423.801L368.786 429.049Z" fill="#C3C3ED"/>
<path d="M211.8 454.822C211.8 458.884 218.637 462.564 218.637 462.564L431.667 585.558C431.667 585.558 438.736 590.735 445.421 590.735C451.496 590.735 458.816 585.764 458.816 585.764L610.544 498.161L610.52 498.114C610.52 498.114 625.304 491.534 625.304 475.449V281.478C625.304 281.478 625.554 268.849 623.412 265.146C621.638 262.067 612.99 257.252 612.99 257.252L400.24 134.42C400.24 134.42 392.819 129.419 389.062 132.484L389.727 132.044C389.727 132.044 395.408 128.709 400.234 126.485C404.532 124.505 407.796 123.464 411.317 125.499L625.666 249.229C625.666 249.229 634.31 254.045 636.087 257.123C638.226 260.83 637.976 273.455 637.976 273.455V481.616H637.987C637.987 497.701 625.301 505.521 625.301 505.521L458.809 601.647C458.809 601.647 451.49 606.618 445.414 606.618C438.726 606.618 431.66 601.441 431.66 601.441L218.63 478.446C218.63 478.446 211.794 474.766 211.794 470.705V454.822" fill="url(#header-paint42_radial)"/>
<path d="M702.564 525.85C702.564 525.85 708.129 530.818 716.229 533.727C721.518 535.627 733.369 539.455 740.844 535.14C740.844 535.14 731.96 612.426 712.276 628.481C690.649 636.578 673.624 617.222 669.694 610.788C662.219 598.524 664.28 579.334 664.28 579.334C671.759 575.018 683.36 556.983 688.898 549.502C694.443 542.013 702.179 526.073 702.564 525.85Z" fill="url(#header-paint43_linear)"/>
<path d="M712.276 531.004C712.276 531.004 717.841 535.971 725.941 538.881C731.233 540.783 743.081 544.609 750.556 540.297C750.556 540.297 752.62 557.105 745.146 577.999C741.222 588.964 731.96 612.43 712.272 628.481C692.592 635.152 683.332 622.375 679.406 615.941C671.927 603.678 673.992 584.483 673.992 584.483C681.467 580.168 693.068 562.137 698.607 554.652C704.155 547.17 711.891 531.227 712.276 531.004Z" fill="url(#header-paint44_linear)"/>
<path opacity="0.7" d="M712.276 543.034C712.597 542.848 717.108 546.96 723.562 548.964C727.972 550.333 737.728 553.124 743.905 549.559C743.905 549.559 745.608 562.792 739.435 579.445C736.191 588.187 728.54 606.908 712.279 619.999C696.021 625.676 688.371 615.789 685.127 610.791C678.953 601.265 680.656 586.068 680.656 586.068C686.833 582.503 696.414 568.017 700.996 561.991C705.568 555.97 711.958 543.22 712.276 543.034Z" fill="white"/>
<path d="M664.284 579.334L673.999 584.487C673.999 584.487 671.934 603.681 679.413 615.944C683.336 622.378 692.595 635.155 712.279 628.485C690.652 636.581 673.627 617.225 669.697 610.791C662.219 598.524 664.284 579.334 664.284 579.334Z" fill="url(#header-paint45_linear)"/>
<path d="M716.209 533.761C718.561 535.393 721.886 537.424 725.941 538.881C731.233 540.783 743.081 544.609 750.556 540.297L740.844 535.143C733.369 539.459 721.518 535.63 716.229 533.731L716.209 533.761Z" fill="url(#header-paint46_linear)"/>
<path d="M702.564 525.85C702.179 526.073 694.447 542.013 688.901 549.502C683.359 556.983 671.762 575.018 664.284 579.334L673.999 584.487C681.474 580.172 693.075 562.14 698.613 554.655C704.159 547.17 711.891 531.227 712.276 531.004L702.564 525.85Z" fill="url(#header-paint47_linear)"/>
<path d="M165.272 205.864C168.039 207.509 169.8 211.034 169.878 216.011L170.297 242.62C170.452 252.419 164.048 264.145 155.992 268.812L110.207 295.346C106.186 297.677 102.509 297.809 99.8193 296.133L90.131 290.541C86.6301 288.347 85.0622 285.401 84.9811 280.095L84.5621 253.487C84.4066 243.691 90.8136 231.961 98.863 227.295L144.645 200.761C148.994 198.24 152.268 198.845 155.668 200.413L165.272 205.864Z" fill="url(#header-paint48_linear)"/>
<path d="M151.505 203.644C151.505 203.644 151.008 207.128 147.663 208.385C142.611 210.287 142.114 206.996 142.114 206.996C141.891 192.833 136.974 188.153 126.617 194.54C117.378 200.241 112.559 211.723 112.201 226.42C112.201 226.42 111.87 229.782 107.514 231.012C102.327 232.475 102.472 228.197 102.472 228.197C102.063 202.261 111.647 191.36 122.954 184.808C137.39 176.444 151.18 182.956 151.505 203.644Z" fill="url(#header-paint49_linear)"/>
<path d="M169.878 216.011C169.719 206.215 163.065 202.055 155.009 206.725L109.224 233.259C101.171 237.926 94.7639 249.659 94.9228 259.452L95.3418 286.063C95.4972 295.859 102.154 300.016 110.207 295.349L155.992 268.815C164.052 264.145 170.452 252.419 170.297 242.623L169.878 216.011ZM138.795 267.22L127.042 274.03L126.762 256.336L126.759 256.349C124.153 255.606 122.416 252.916 122.349 248.78C122.24 241.971 126.688 233.83 132.28 230.59C137.873 227.349 142.496 230.235 142.607 237.04C142.671 241.177 141.053 245.81 138.518 249.533L138.512 249.527L138.795 267.22Z" fill="url(#header-paint50_radial)"/>
<path d="M134.581 229.579C139.093 228.241 142.519 231.194 142.611 237.04C142.675 241.177 141.056 245.81 138.522 249.534L138.515 249.527L138.795 267.22L127.042 274.03L126.904 265.311L131.182 262.834L130.902 245.141L130.905 245.147C133.443 241.42 135.061 236.79 134.997 232.654C134.977 231.515 134.835 230.488 134.581 229.579Z" fill="url(#header-paint51_linear)"/>
<path d="M180.063 392.773C162.697 392.773 148.615 403.451 148.615 416.627C148.615 429.799 162.697 440.481 180.063 440.481C197.435 440.481 211.513 429.802 211.513 416.627C211.51 403.451 197.432 392.773 180.063 392.773ZM179.603 429.769C168.894 429.769 160.216 423.456 160.216 415.67C160.216 407.885 168.894 401.572 179.603 401.572C190.309 401.572 198.986 407.885 198.986 415.67C198.986 423.456 190.309 429.769 179.603 429.769Z" fill="url(#header-paint52_linear)"/>
<path d="M138.917 430.982C138.917 430.982 128.702 408.8 123.967 408.78C119.233 408.76 97.1565 419.8 97.1565 426.558C97.1565 428.88 120.997 441.329 120.997 441.329L138.917 430.982Z" fill="url(#header-paint53_linear)"/>
<path d="M97.1565 435.03C97.1565 437.352 120.997 449.801 120.997 449.801V441.325C120.997 441.325 97.1565 428.876 97.1565 426.555V435.03Z" fill="url(#header-paint54_linear)"/>
<path d="M114.674 463.645C113.502 464.186 111.927 464.118 110.194 463.314C106.595 461.641 103.685 457.414 103.699 453.869C103.705 452.23 104.337 451.024 105.371 450.368L105.361 450.358L153.84 422.371L153.843 422.382C155.043 421.587 156.81 421.554 158.77 422.466C162.372 424.139 165.279 428.366 165.265 431.911C165.258 433.682 164.518 434.946 163.339 435.561L163.227 435.615L114.674 463.645Z" fill="url(#header-paint55_linear)"/>
<path d="M116.739 459.928C116.732 461.77 115.942 463.061 114.674 463.645C113.502 464.186 111.927 464.118 110.194 463.314C106.595 461.642 103.685 457.414 103.699 453.869C103.705 452.23 104.337 451.024 105.371 450.368C106.571 449.605 108.311 449.588 110.244 450.483C113.85 452.156 116.756 456.383 116.739 459.928Z" fill="url(#header-paint56_linear)"/>
<path d="M871.282 704.653C805.897 675.578 791.84 750.174 791.84 750.174L801.552 755.328L880.998 709.806L871.282 704.653Z" fill="url(#header-paint57_linear)"/>
<path d="M801.555 755.328C801.555 755.328 815.616 680.731 881.001 709.806C880.998 709.806 868.065 786.768 801.555 755.328Z" fill="url(#header-paint58_radial)"/>
<path d="M852.122 732.832C852.2 742.017 847.408 749.529 841.417 749.607C835.432 749.684 830.508 742.304 830.434 733.116C830.356 723.931 835.148 716.419 841.136 716.341C847.124 716.267 852.044 723.647 852.122 732.832Z" fill="url(#header-paint59_linear)"/>
<path d="M761.292 489.311C761.292 499.55 753.11 502.554 743.02 496.603L710.549 477.859C700.458 471.904 692.277 458.833 692.277 448.594V365.58C692.277 355.341 700.458 352.131 710.549 358.085L743.02 376.978C753.11 382.932 761.292 396.057 761.292 406.296V489.311Z" fill="url(#header-paint60_linear)"/>
<path d="M733.599 467.64C733.599 467.64 732.991 469.589 732.48 470.093C732.48 470.093 730.672 470.684 726.587 468.63C722.501 466.315 720.697 463.791 720.697 463.791C720.187 462.74 719.582 460.141 719.582 460.141L733.599 467.64Z" fill="white" stroke="white" stroke-miterlimit="10"/>
<path d="M726.587 465.467C731.216 467.94 734.643 468.782 734.643 468.782C736.964 464.875 737.944 450.017 737.944 450.017C737.944 450.017 731.73 448.101 726.604 445.36C721.474 442.62 715.263 437.892 715.263 437.892C715.263 437.892 716.226 453.792 718.541 460.172C718.534 460.172 721.961 462.993 726.587 465.467Z" fill="white" stroke="white" stroke-miterlimit="10"/>
<path d="M726.6 447.091C733.065 450.548 737.941 450.017 737.941 450.017C738.151 447.354 741.489 444.816 742.939 443.833C746.592 441.684 748.825 437.396 748.829 431.377C748.836 418.668 738.897 403.046 726.627 396.486C714.354 389.931 704.405 394.915 704.395 407.624C704.392 413.643 706.619 420.317 710.268 426.369C711.718 428.904 715.05 435.01 715.256 437.889C715.26 437.892 720.656 443.914 726.6 447.091Z" fill="url(#header-paint61_linear)" stroke="white" stroke-miterlimit="10"/>
<path d="M732.686 449.385C732.686 449.385 730.855 441.944 733.616 437.314C736.377 432.685 740.516 431.391 740.019 427.356C739.523 423.324 735.883 420.861 734.379 422.784C732.872 424.706 732.747 429.056 730.74 428.113C728.581 427.099 729.358 421.195 729.983 419.29C731.118 415.856 729.513 411.74 726.621 410.196C723.728 408.648 722.123 411.048 723.252 415.691C723.877 418.269 724.647 424.997 722.485 423.703C720.477 422.5 720.355 418.016 718.855 414.484C717.355 410.953 713.715 409.53 713.212 413.028C712.712 416.525 716.841 422.243 719.599 429.819C722.356 437.396 720.514 442.873 720.514 442.873" stroke="white" stroke-width="0.8" stroke-miterlimit="10" stroke-linecap="round" stroke-linejoin="round"/>
<path d="M250.848 194.648C250.848 204.887 242.67 207.891 232.579 201.937L200.105 183.196C190.015 177.242 181.833 164.171 181.833 153.928V70.9139C181.833 60.6748 190.015 57.4646 200.105 63.4188L232.579 82.3121C242.67 88.2663 250.848 101.391 250.848 111.63V194.648Z" fill="url(#header-paint62_linear)"/>
<path d="M228.93 187.356L207.468 174.988L209.986 81.8661L231.451 94.2341L228.93 187.356Z" fill="white"/>
<path d="M232.539 163.238C232.512 164.292 231.36 164.499 229.971 163.698L207.718 150.874C206.329 150.073 205.224 148.566 205.255 147.511L206.377 105.987C206.407 104.929 207.56 104.727 208.948 105.528L231.201 118.352C232.59 119.153 233.695 120.656 233.664 121.714L232.539 163.238Z" fill="url(#header-paint63_linear)" stroke="white" stroke-miterlimit="10"/>
<path d="M219.458 134.613L217.042 120.16" stroke="white" stroke-width="0.8" stroke-miterlimit="10" stroke-linecap="round" stroke-linejoin="round"/>
<path d="M219.458 134.613L224.253 132.49" stroke="white" stroke-width="0.8" stroke-miterlimit="10" stroke-linecap="round" stroke-linejoin="round"/>
<path d="M146.01 134.21C146.01 144.449 137.829 147.454 127.739 141.499L95.2675 122.758C85.1771 116.804 76.9925 103.733 76.9925 93.4906V10.4796C76.9925 0.240516 85.1771 -2.96977 95.2675 2.98445L127.739 21.8778C137.829 27.832 146.01 40.9569 146.01 51.196V134.21Z" fill="url(#header-paint64_linear)"/>
<path d="M111.021 71.9682L129.979 82.9135L120.869 51.659L111.329 46.1508L103.459 41.6091L92.0673 61.0262L111.025 71.9716L111.021 71.9682Z" fill="white"/>
<path d="M111.177 59.0596L110.542 112.262" stroke="white" stroke-miterlimit="10" stroke-linecap="round" stroke-linejoin="round"/>
<path d="M99.2651 105.75L121.825 118.777" stroke="white" stroke-miterlimit="10" stroke-linecap="round" stroke-linejoin="round"/>
<path d="M970.97 610.456C970.97 620.692 962.789 623.696 952.698 617.745L920.227 599.004C910.133 593.05 901.952 579.979 901.952 569.74V486.726C901.952 476.487 910.133 473.276 920.227 479.231L952.698 498.124C962.789 504.078 970.97 517.203 970.97 527.442V610.456Z" fill="url(#header-paint65_linear)"/>
<path d="M938.039 525.131C930.402 521.295 915.341 519.599 915.341 536.637C915.341 553.344 932.153 578.901 937.191 581.196C942.605 583.662 957.581 571.419 957.581 556.977C957.585 537.999 945.443 528.844 938.039 525.131ZM936.461 554.848C931.612 552.641 927.682 546.917 927.682 542.067C927.682 537.218 931.612 535.079 936.461 537.286C941.314 539.496 945.244 545.22 945.244 550.069C945.24 554.915 941.31 557.054 936.461 554.848Z" fill="white"/>
<path d="M866.132 549.907C866.132 560.146 857.951 563.15 847.861 557.196L815.386 538.455C805.296 532.501 797.115 519.426 797.115 509.187V426.173C797.115 415.934 805.296 412.724 815.386 418.678L847.861 437.571C857.951 443.525 866.132 456.65 866.132 466.893V549.907Z" fill="url(#header-paint66_linear)"/>
<path d="M849.787 509.789V531.653C849.037 540.276 836.54 536.786 830.045 533.123C820.259 527.597 813.94 524.87 813.94 513.638V489.098L849.787 509.789Z" fill="white" stroke="white" stroke-miterlimit="10" stroke-linecap="round" stroke-linejoin="round"/>
<path d="M849.787 509.789C849.787 515.503 841.761 514.06 831.864 508.346C821.962 502.632 813.94 494.809 813.94 489.094C813.94 485.931 822.283 484.343 834.449 491.947C844.708 498.357 849.787 504.078 849.787 509.789Z" fill="url(#header-paint67_linear)" stroke="white" stroke-miterlimit="10"/>
<path d="M812.771 443.904C812.771 443.904 810.128 459.019 811.135 469.137C812.48 482.657 819.58 489.949 831.867 498.019C831.863 498.019 841.041 460.858 812.771 443.904Z" fill="url(#header-paint68_linear)" stroke="white" stroke-miterlimit="10"/>
<path d="M819.594 464.392C819.594 464.392 825.071 483.749 831.803 497.255" stroke="white" stroke-width="0.8" stroke-miterlimit="10" stroke-linecap="round" stroke-linejoin="round"/>
<path d="M830.887 500.036C830.887 500.036 830.312 473.601 842.545 471.33C845.37 470.806 849.003 471.641 853.68 474.712C853.68 474.712 856.606 524.228 830.887 500.036Z" fill="url(#header-paint69_linear)" stroke="white" stroke-miterlimit="10"/>
<path d="M830.887 500.036C830.887 500.036 841.406 495.305 845.11 485.935" stroke="white" stroke-width="0.8" stroke-miterlimit="10" stroke-linecap="round" stroke-linejoin="round"/>
<path d="M355.688 255.194C355.688 265.433 347.507 268.437 337.417 262.486L304.942 243.742C294.852 237.787 286.674 224.716 286.674 214.477V131.463C286.674 121.224 294.852 118.014 304.942 123.968L337.417 142.861C347.507 148.815 355.688 161.94 355.688 172.179V255.194Z" fill="url(#header-paint70_linear)"/>
<path fill-rule="evenodd" clip-rule="evenodd" d="M317.574 152.925C317.567 153.138 317.55 153.344 317.547 153.56C317.533 161.2 317.516 168.844 317.5 176.488C317.5 176.721 317.5 176.951 317.5 177.218C319.544 178.414 320.582 180.317 321.058 182.348C321.535 184.406 321.862 186.447 322.068 188.417C322.551 193.107 322.589 197.585 322.302 201.88C322.068 205.391 321.822 208.908 320.94 211.984C320.734 212.693 320.362 213.288 319.953 213.812C319.436 214.477 318.523 214.342 317.456 213.829C317.456 214.079 317.456 214.292 317.456 214.501C317.452 221.973 317.446 229.444 317.446 236.919C317.446 237.149 317.5 237.406 317.523 237.652C317.564 237.672 317.598 237.693 317.638 237.713C319.669 238.467 321.44 238.487 323.062 238.085C326.022 237.348 328.171 235.49 329.885 233.036C332.679 229.028 334.085 223.841 334.916 218.178C335.568 213.737 335.778 209.033 335.727 204.178C335.656 197.277 335.099 190.174 333.446 182.625C332.196 176.907 330.381 171.142 327.333 165.306C325.302 161.423 322.883 157.797 319.716 154.729C319.132 154.161 318.513 153.651 317.912 153.114C317.8 153.046 317.686 152.985 317.574 152.925Z" fill="white"/>
<path fill-rule="evenodd" clip-rule="evenodd" d="M308.717 148.19C308.636 148.19 308.558 148.204 308.474 148.194C307.318 148.031 306.706 148.562 306.703 149.839C306.686 156.104 306.676 162.373 306.686 168.652C306.686 170.395 307.761 172.027 309.447 172.936C311.508 174.048 313.569 175.143 315.719 176.292C315.719 176.012 315.719 175.765 315.719 175.518C315.722 167.915 315.725 160.312 315.732 152.705C315.732 152.448 315.749 152.205 315.759 151.955C313.411 150.701 311.062 149.444 308.717 148.19Z" fill="white"/>
<path fill-rule="evenodd" clip-rule="evenodd" d="M315.705 236.676C315.698 236.415 315.685 236.155 315.685 235.902C315.685 228.498 315.692 221.091 315.695 213.683C315.695 213.433 315.695 213.187 315.698 212.916C313.299 211.635 310.961 210.301 308.626 209.175C307.45 208.608 306.669 209.415 306.662 210.77C306.649 213.389 306.652 216.018 306.649 218.644C306.645 221.875 306.683 225.129 306.622 228.329C306.588 229.978 307.058 231.472 308.663 232.915C311.015 234.168 313.36 235.422 315.705 236.676Z" fill="white"/>
<path d="M743.26 739.077C741.77 739.077 740.557 737.867 740.557 736.373V618.154L710.093 600.565C708.799 599.818 708.356 598.166 709.103 596.872C709.849 595.577 711.502 595.135 712.796 595.882L744.612 614.251C745.446 614.734 745.963 615.627 745.963 616.593V736.373C745.967 737.867 744.754 739.077 743.26 739.077Z" fill="url(#header-paint71_linear)"/>
<path d="M255.467 287.415H168.421C167.948 287.415 167.482 287.29 167.073 287.053L143.229 273.293C141.935 272.546 141.492 270.894 142.239 269.599C142.986 268.305 144.638 267.863 145.932 268.609L169.148 282.008H255.467C256.957 282.008 258.167 283.218 258.167 284.711C258.167 286.205 256.961 287.415 255.467 287.415Z" fill="url(#header-paint72_linear)"/>
<path d="M264.871 293.653C258.079 293.653 252.76 289.726 252.76 284.711C252.76 279.697 258.079 275.77 264.871 275.77C271.66 275.77 276.979 279.697 276.979 284.711C276.979 289.726 271.66 293.653 264.871 293.653ZM264.871 281.177C261.033 281.177 258.167 283.042 258.167 284.711C258.167 286.381 261.036 288.246 264.871 288.246C268.707 288.246 271.569 286.381 271.569 284.711C271.569 283.042 268.707 281.177 264.871 281.177Z" fill="url(#header-paint73_linear)"/>
<path d="M896.461 767.638C896.001 767.638 895.538 767.52 895.113 767.277L857.441 745.524C856.147 744.778 855.704 743.125 856.451 741.831C857.198 740.54 858.85 740.094 860.144 740.844L897.816 762.596C899.11 763.343 899.553 764.996 898.806 766.29C898.303 767.152 897.394 767.638 896.461 767.638Z" fill="url(#header-paint74_linear)"/>
<path d="M377.518 424.341L375.535 434.276C375.535 434.276 373.075 439.359 366.286 438.335C360.301 437.433 360.335 433.28 360.335 433.28C360.99 432.472 365.606 425.994 368.056 419.158L377.518 424.341Z" fill="#FCB4B4"/>
<path d="M384.52 392.952C384.52 392.952 387.963 399.582 387.389 408.182C386.815 416.786 386.436 422.233 382.229 423.476C376.663 425.122 376.302 425.196 374.582 425.196C374.582 425.196 367.749 425.196 366.289 422.902C366.286 422.905 360.467 393.645 384.52 392.952Z" fill="#FCB4B4"/>
<path d="M387.453 392.316C387.453 392.316 391.437 398.031 381.644 409.875C381.644 409.875 379.096 406.002 377.268 407.391C375.44 408.78 373.064 414.464 377.268 417.715C381.472 420.966 373.105 425.379 371.767 425.487C364.795 426.058 355.171 417.84 354.979 407.898C354.898 403.62 354.84 395.78 360.909 391.556C365.235 388.545 378.701 385.842 384.567 388.113C384.567 388.113 387.132 391.059 387.453 392.316Z" fill="#1B284C"/>
<path d="M416.89 475.483C416.89 475.483 431.421 474.412 433.955 479.143C436.489 483.874 433.955 489.449 433.955 489.449L416.89 484.549V475.483Z" fill="#FCB4B4"/>
<path d="M415.234 505.264C415.234 505.264 417.484 511.522 422.932 512.029C428.383 512.536 440.483 508.106 441.433 505.73C442.383 503.355 438.622 500.313 433.34 499.151L415.234 505.264Z" fill="#2D32A3"/>
<path d="M386.95 507.697C386.95 507.697 405.198 514.287 409.435 513.949C413.676 513.611 443.88 500.929 434.539 487.736C431.633 483.627 418.383 483.863 408.127 485.235C401.521 486.117 396.513 483.377 395.959 484.34C389.177 496.076 386.95 507.697 386.95 507.697Z" fill="url(#header-paint75_linear)"/>
<path d="M363.38 425.997C363.38 425.997 351.096 431.242 346.521 440.677C343.763 446.357 330.797 476.345 346.521 479.048C346.521 479.048 351.478 479.014 352.6 475.483C355.689 465.751 363.38 425.997 363.38 425.997Z" fill="url(#header-paint76_linear)"/>
<path d="M363.38 425.997C364.816 425.379 374.105 430.1 379.35 434.239C379.35 434.239 382.591 436.733 384.199 440.579C386.74 446.655 385.97 475.253 403.88 478.97C403.88 478.97 404.985 494.133 394.766 502.794C386.953 509.417 385.125 510.059 385.125 510.059C385.125 510.059 363.16 512.425 357.246 505.666C351.333 498.908 348.122 496.373 347.109 487.249C346.463 481.417 347.619 458.337 349.64 446.513C350.596 440.903 354.54 429.806 363.38 425.997Z" fill="url(#header-paint77_linear)"/>
<path d="M371.311 438.034C374.815 434.449 381.404 431.326 385.121 443.083C387.696 451.227 391.373 470.188 402.018 472.553C402.018 472.553 417.393 474.02 418.407 475.483C419.424 476.946 419.593 485.056 419.593 485.056C419.593 485.056 403.373 488.267 391.545 482.691C387.581 480.822 381.874 476.96 378.285 471.877C371.165 461.794 367.857 447.439 371.311 438.034Z" fill="url(#header-paint78_linear)"/>
<defs>
<linearGradient id="header-paint0_linear" x1="-67.7252" y1="144.17" x2="304.674" y2="369.231" gradientUnits="userSpaceOnUse">
<stop offset="0.2144" stop-color="white"/>
<stop offset="1" stop-color="#5E72E4"/>
</linearGradient>
<linearGradient id="header-paint1_linear" x1="-68.1736" y1="144.886" x2="304.272" y2="369.975" gradientUnits="userSpaceOnUse">
<stop offset="0.2144" stop-color="white"/>
<stop offset="1" stop-color="#5E72E4"/>
</linearGradient>
<linearGradient id="header-paint2_linear" x1="-65.3325" y1="140.243" x2="307.052" y2="365.295" gradientUnits="userSpaceOnUse">
<stop offset="0.2144" stop-color="white"/>
<stop offset="1" stop-color="#5E72E4"/>
</linearGradient>
<linearGradient id="header-paint3_linear" x1="-66.142" y1="141.464" x2="306.304" y2="366.555" gradientUnits="userSpaceOnUse">
<stop offset="0.2144" stop-color="white"/>
<stop offset="1" stop-color="#5E72E4"/>
</linearGradient>
<linearGradient id="header-paint4_linear" x1="-103.605" y1="203.554" x2="268.784" y2="428.609" gradientUnits="userSpaceOnUse">
<stop offset="0.2144" stop-color="white"/>
<stop offset="1" stop-color="#5E72E4"/>
</linearGradient>
<linearGradient id="header-paint5_linear" x1="-117.919" y1="227.169" x2="254.538" y2="452.266" gradientUnits="userSpaceOnUse">
<stop offset="0.2144" stop-color="white"/>
<stop offset="1" stop-color="#5E72E4"/>
</linearGradient>
<linearGradient id="header-paint6_linear" x1="-132.996" y1="252.172" x2="239.397" y2="477.229" gradientUnits="userSpaceOnUse">
<stop offset="0.2144" stop-color="white"/>
<stop offset="1" stop-color="#5E72E4"/>
</linearGradient>
<linearGradient id="header-paint7_linear" x1="-149.477" y1="279.433" x2="222.926" y2="504.497" gradientUnits="userSpaceOnUse">
<stop offset="0.2144" stop-color="white"/>
<stop offset="1" stop-color="#5E72E4"/>
</linearGradient>
<linearGradient id="header-paint8_linear" x1="1089.74" y1="852.483" x2="547.027" y2="564.567" gradientUnits="userSpaceOnUse">
<stop offset="0.2144" stop-color="white"/>
<stop offset="1" stop-color="#5E72E4"/>
</linearGradient>
<linearGradient id="header-paint9_linear" x1="1088.36" y1="855.06" x2="545.661" y2="567.151" gradientUnits="userSpaceOnUse">
<stop offset="0.2144" stop-color="white"/>
<stop offset="1" stop-color="#5E72E4"/>
</linearGradient>
<linearGradient id="header-paint10_linear" x1="1070.72" y1="888.324" x2="528.013" y2="600.413" gradientUnits="userSpaceOnUse">
<stop offset="0.2144" stop-color="white"/>
<stop offset="1" stop-color="#5E72E4"/>
</linearGradient>
<linearGradient id="header-paint11_linear" x1="1079.47" y1="871.732" x2="536.823" y2="583.853" gradientUnits="userSpaceOnUse">
<stop offset="0.2144" stop-color="white"/>
<stop offset="1" stop-color="#5E72E4"/>
</linearGradient>
<linearGradient id="header-paint12_linear" x1="1087.29" y1="857.08" x2="544.584" y2="569.168" gradientUnits="userSpaceOnUse">
<stop offset="0.2144" stop-color="white"/>
<stop offset="1" stop-color="#5E72E4"/>
</linearGradient>
<linearGradient id="header-paint13_linear" x1="1059.97" y1="908.593" x2="517.258" y2="620.678" gradientUnits="userSpaceOnUse">
<stop offset="0.2144" stop-color="white"/>
<stop offset="1" stop-color="#5E72E4"/>
</linearGradient>
<linearGradient id="header-paint14_linear" x1="1092.05" y1="848.137" x2="549.328" y2="560.217" gradientUnits="userSpaceOnUse">
<stop offset="0.2144" stop-color="white"/>
<stop offset="1" stop-color="#5E72E4"/>
</linearGradient>
<linearGradient id="header-paint15_linear" x1="1129.8" y1="776.869" x2="587.155" y2="488.99" gradientUnits="userSpaceOnUse">
<stop offset="0.2144" stop-color="white"/>
<stop offset="1" stop-color="#5E72E4"/>
</linearGradient>
<linearGradient id="header-paint16_linear" x1="1054.27" y1="919.388" x2="511.483" y2="631.437" gradientUnits="userSpaceOnUse">
<stop offset="0.2144" stop-color="white"/>
<stop offset="1" stop-color="#5E72E4"/>
</linearGradient>
<linearGradient id="header-paint17_linear" x1="1020.06" y1="584.186" x2="985.978" y2="564.768" gradientUnits="userSpaceOnUse">
<stop stop-color="white"/>
<stop offset="0.5763" stop-color="#5E72E4"/>
</linearGradient>
<linearGradient id="header-paint18_linear" x1="791.525" y1="452.446" x2="709.525" y2="404.95" gradientUnits="userSpaceOnUse">
<stop stop-color="white"/>
<stop offset="0.4199" stop-color="#5E72E4"/>
</linearGradient>
<linearGradient id="header-paint19_linear" x1="675.456" y1="385.171" x2="647.52" y2="369.401" gradientUnits="userSpaceOnUse">
<stop stop-color="white"/>
<stop offset="0.5763" stop-color="#5E72E4"/>
</linearGradient>
<linearGradient id="header-paint20_linear" x1="271.733" y1="152.248" x2="374.123" y2="211.384" gradientUnits="userSpaceOnUse">
<stop stop-color="white"/>
<stop offset="0.5763" stop-color="#5E72E4"/>
</linearGradient>
<linearGradient id="header-paint21_linear" x1="134.475" y1="73.0322" x2="191.765" y2="106.084" gradientUnits="userSpaceOnUse">
<stop offset="0.2144" stop-color="white"/>
<stop offset="1" stop-color="#5E72E4"/>
</linearGradient>
<linearGradient id="header-paint22_linear" x1="38.3316" y1="17.4992" x2="70.3208" y2="35.9721" gradientUnits="userSpaceOnUse">
<stop offset="0.2144" stop-color="white"/>
<stop offset="1" stop-color="#5E72E4"/>
</linearGradient>
<linearGradient id="header-paint23_linear" x1="749.611" y1="440.806" x2="1008.85" y2="590.039" gradientUnits="userSpaceOnUse">
<stop stop-color="white"/>
<stop offset="0.291" stop-color="#5E72E4"/>
<stop offset="0.4249" stop-color="#5E72E4"/>
<stop offset="0.5982" stop-color="white"/>
<stop offset="0.818" stop-color="#5E72E4"/>
<stop offset="0.9026" stop-color="#7788E8"/>
<stop offset="1" stop-color="white"/>
</linearGradient>
<linearGradient id="header-paint24_linear" x1="173.283" y1="107.595" x2="684.563" y2="403.279" gradientUnits="userSpaceOnUse">
<stop stop-color="white"/>
<stop offset="0.291" stop-color="#5E72E4"/>
<stop offset="0.9161" stop-color="#5E72E4"/>
<stop offset="1" stop-color="white"/>
</linearGradient>
<linearGradient id="header-paint25_linear" x1="54.9109" y1="39.6542" x2="89.3764" y2="59.252" gradientUnits="userSpaceOnUse">
<stop offset="0.2144" stop-color="white"/>
<stop offset="1" stop-color="#5E72E4"/>
</linearGradient>
<linearGradient id="header-paint26_linear" x1="1018.01" y1="608.179" x2="993.625" y2="593.326" gradientUnits="userSpaceOnUse">
<stop stop-color="white"/>
<stop offset="0.5763" stop-color="#5E72E4"/>
</linearGradient>
<linearGradient id="header-paint27_linear" x1="888.107" y1="532.564" x2="864.942" y2="520.352" gradientUnits="userSpaceOnUse">
<stop stop-color="white"/>
<stop offset="0.997" stop-color="#5E72E4"/>
</linearGradient>
<linearGradient id="header-paint28_linear" x1="699.002" y1="423.851" x2="659.713" y2="400.917" gradientUnits="userSpaceOnUse">
<stop stop-color="white"/>
<stop offset="0.5763" stop-color="#5E72E4"/>
</linearGradient>
<linearGradient id="header-paint29_linear" x1="261.886" y1="171.411" x2="311.898" y2="200.248" gradientUnits="userSpaceOnUse">
<stop stop-color="white"/>
<stop offset="0.5763" stop-color="#5E72E4"/>
</linearGradient>
<linearGradient id="header-paint30_linear" x1="45.5487" y1="46.7692" x2="108.063" y2="82.2502" gradientUnits="userSpaceOnUse">
<stop offset="0.2144" stop-color="white"/>
<stop offset="1" stop-color="#5E72E4"/>
</linearGradient>
<radialGradient id="header-paint31_radial" cx="0" cy="0" r="1" gradientUnits="userSpaceOnUse" gradientTransform="translate(319.287 463.156) scale(8.62556)">
<stop stop-color="#F7F7FF"/>
<stop offset="1" stop-color="#DFDFFB"/>
</radialGradient>
<linearGradient id="header-paint32_linear" x1="317.138" y1="469.248" x2="295.137" y2="470.668" gradientUnits="userSpaceOnUse">
<stop stop-color="#F7F7FF"/>
<stop offset="1" stop-color="#DFDFFB"/>
</linearGradient>
<linearGradient id="header-paint33_linear" x1="294.226" y1="458.092" x2="316.264" y2="458.092" gradientUnits="userSpaceOnUse">
<stop stop-color="#F7F7FF"/>
<stop offset="1" stop-color="#DFDFFB"/>
</linearGradient>
<linearGradient id="header-paint34_linear" x1="297.239" y1="402.216" x2="534.51" y2="542.763" gradientUnits="userSpaceOnUse">
<stop stop-color="#F8F8FF"/>
<stop offset="1" stop-color="#FEFEFF"/>
</linearGradient>
<linearGradient id="header-paint35_linear" x1="579.848" y1="350.351" x2="348.146" y2="217.896" gradientUnits="userSpaceOnUse">
<stop stop-color="#F7F7FF"/>
<stop offset="1" stop-color="#DFDFFB"/>
</linearGradient>
<linearGradient id="header-paint36_linear" x1="398.61" y1="158.522" x2="616.132" y2="464.731" gradientUnits="userSpaceOnUse">
<stop stop-color="#FF4877"/>
<stop offset="0.9949" stop-color="#F884A5"/>
</linearGradient>
<linearGradient id="header-paint37_linear" x1="448.123" y1="252.101" x2="484.854" y2="385.797" gradientUnits="userSpaceOnUse">
<stop stop-color="#FC9BA5"/>
<stop offset="1" stop-color="white"/>
</linearGradient>
<linearGradient id="header-paint38_linear" x1="530.921" y1="290.581" x2="580.258" y2="434.535" gradientUnits="userSpaceOnUse">
<stop stop-color="#FC9BA5"/>
<stop offset="1" stop-color="white"/>
</linearGradient>
<linearGradient id="header-paint39_linear" x1="528.387" y1="291.445" x2="577.726" y2="435.409" gradientUnits="userSpaceOnUse">
<stop stop-color="#FC9BA5"/>
<stop offset="1" stop-color="white"/>
</linearGradient>
<linearGradient id="header-paint40_linear" x1="546.26" y1="285.319" x2="595.598" y2="429.28" gradientUnits="userSpaceOnUse">
<stop stop-color="#FC9BA5"/>
<stop offset="1" stop-color="white"/>
</linearGradient>
<linearGradient id="header-paint41_linear" x1="514.524" y1="296.192" x2="563.863" y2="440.155" gradientUnits="userSpaceOnUse">
<stop stop-color="#FC9BA5"/>
<stop offset="1" stop-color="white"/>
</linearGradient>
<radialGradient id="header-paint42_radial" cx="0" cy="0" r="1" gradientUnits="userSpaceOnUse" gradientTransform="translate(445.85 601.376) scale(137.698)">
<stop stop-color="#F7F7FF"/>
<stop offset="1" stop-color="#DFDFFB"/>
</radialGradient>
<linearGradient id="header-paint43_linear" x1="664.022" y1="578.139" x2="740.843" y2="578.139" gradientUnits="userSpaceOnUse">
<stop stop-color="#5E72E4"/>
<stop offset="1" stop-color="#2D32A3"/>
</linearGradient>
<linearGradient id="header-paint44_linear" x1="748.437" y1="598.093" x2="679.743" y2="563.128" gradientUnits="userSpaceOnUse">
<stop stop-color="#5E72E4"/>
<stop offset="1" stop-color="#2D32A3"/>
</linearGradient>
<linearGradient id="header-paint45_linear" x1="703.388" y1="649.702" x2="684.764" y2="605.19" gradientUnits="userSpaceOnUse">
<stop stop-color="#5E72E4"/>
<stop offset="1" stop-color="#2D32A3"/>
</linearGradient>
<linearGradient id="header-paint46_linear" x1="741.896" y1="538.955" x2="707.948" y2="533.734" gradientUnits="userSpaceOnUse">
<stop stop-color="#5E72E4"/>
<stop offset="1" stop-color="#2D32A3"/>
</linearGradient>
<linearGradient id="header-paint47_linear" x1="664.282" y1="555.168" x2="712.275" y2="555.168" gradientUnits="userSpaceOnUse">
<stop stop-color="#5E72E4"/>
<stop offset="1" stop-color="#2D32A3"/>
</linearGradient>
<linearGradient id="header-paint48_linear" x1="126.505" y1="248.576" x2="51.8247" y2="290.711" gradientUnits="userSpaceOnUse">
<stop stop-color="#F7F7FF"/>
<stop offset="1" stop-color="#DFDFFB"/>
</linearGradient>
<linearGradient id="header-paint49_linear" x1="103.9" y1="218.656" x2="144.033" y2="190.473" gradientUnits="userSpaceOnUse">
<stop stop-color="#5E72E4"/>
<stop offset="1" stop-color="#2D32A3"/>
</linearGradient>
<radialGradient id="header-paint50_radial" cx="0" cy="0" r="1" gradientUnits="userSpaceOnUse" gradientTransform="translate(104.223 283.479) scale(85.3054)">
<stop stop-color="#F7F7FF"/>
<stop offset="1" stop-color="#DFDFFB"/>
</radialGradient>
<linearGradient id="header-paint51_linear" x1="141.435" y1="251.645" x2="125.727" y2="251.645" gradientUnits="userSpaceOnUse">
<stop stop-color="#5E72E4"/>
<stop offset="1" stop-color="#2D32A3"/>
</linearGradient>
<linearGradient id="header-paint52_linear" x1="141.649" y1="399.186" x2="190.536" y2="421.377" gradientUnits="userSpaceOnUse">
<stop stop-color="#5E72E4"/>
<stop offset="1" stop-color="#2D32A3"/>
</linearGradient>
<linearGradient id="header-paint53_linear" x1="120.981" y1="427.973" x2="146.204" y2="453.989" gradientUnits="userSpaceOnUse">
<stop stop-color="#5E72E4"/>
<stop offset="1" stop-color="#2D32A3"/>
</linearGradient>
<linearGradient id="header-paint54_linear" x1="96.3563" y1="430.863" x2="116.73" y2="443.246" gradientUnits="userSpaceOnUse">
<stop stop-color="#5E72E4"/>
<stop offset="1" stop-color="#2D32A3"/>
</linearGradient>
<linearGradient id="header-paint55_linear" x1="123.974" y1="438.119" x2="172.863" y2="460.31" gradientUnits="userSpaceOnUse">
<stop stop-color="#5E72E4"/>
<stop offset="1" stop-color="#2D32A3"/>
</linearGradient>
<linearGradient id="header-paint56_linear" x1="115.744" y1="460.528" x2="104.844" y2="453.366" gradientUnits="userSpaceOnUse">
<stop stop-color="#5E72E4"/>
<stop offset="1" stop-color="#2D32A3"/>
</linearGradient>
<linearGradient id="header-paint57_linear" x1="847.946" y1="708.986" x2="776.495" y2="762.313" gradientUnits="userSpaceOnUse">
<stop stop-color="#F7F7FF"/>
<stop offset="1" stop-color="#DFDFFB"/>
</linearGradient>
<radialGradient id="header-paint58_radial" cx="0" cy="0" r="1" gradientUnits="userSpaceOnUse" gradientTransform="translate(821.001 753.251) scale(48.1829)">
<stop stop-color="#F7F7FF"/>
<stop offset="1" stop-color="#DFDFFB"/>
</radialGradient>
<linearGradient id="header-paint59_linear" x1="835.317" y1="748.101" x2="848.195" y2="715.411" gradientUnits="userSpaceOnUse">
<stop stop-color="#5E72E4"/>
<stop offset="1" stop-color="#2D32A3"/>
</linearGradient>
<linearGradient id="header-paint60_linear" x1="700.949" y1="358.398" x2="753.214" y2="498.073" gradientUnits="userSpaceOnUse">
<stop stop-color="#00FFFF"/>
<stop offset="1" stop-color="#27AFE3"/>
</linearGradient>
<linearGradient id="header-paint61_linear" x1="703.408" y1="357.482" x2="755.67" y2="497.15" gradientUnits="userSpaceOnUse">
<stop stop-color="#00FFFF"/>
<stop offset="1" stop-color="#27AFE3"/>
</linearGradient>
<linearGradient id="header-paint62_linear" x1="189.021" y1="62.649" x2="244.441" y2="204.915" gradientUnits="userSpaceOnUse">
<stop stop-color="#00FFFF"/>
<stop offset="1" stop-color="#27AFE3"/>
</linearGradient>
<linearGradient id="header-paint63_linear" x1="191.113" y1="61.834" x2="246.531" y2="204.096" gradientUnits="userSpaceOnUse">
<stop stop-color="#00FFFF"/>
<stop offset="1" stop-color="#27AFE3"/>
</linearGradient>
<linearGradient id="header-paint64_linear" x1="82.179" y1="-0.43466" x2="138.947" y2="140.472" gradientUnits="userSpaceOnUse">
<stop stop-color="#00FFFF"/>
<stop offset="1" stop-color="#27AFE3"/>
</linearGradient>
<linearGradient id="header-paint65_linear" x1="907.835" y1="477.023" x2="964.606" y2="618.95" gradientUnits="userSpaceOnUse">
<stop stop-color="#00FFFF"/>
<stop offset="1" stop-color="#27AFE3"/>
</linearGradient>
<linearGradient id="header-paint66_linear" x1="805.283" y1="417.065" x2="858.338" y2="560.007" gradientUnits="userSpaceOnUse">
<stop stop-color="#00FFFF"/>
<stop offset="1" stop-color="#27AFE3"/>
</linearGradient>
<linearGradient id="header-paint67_linear" x1="801.854" y1="418.337" x2="854.907" y2="561.276" gradientUnits="userSpaceOnUse">
<stop stop-color="#00FFFF"/>
<stop offset="1" stop-color="#27AFE3"/>
</linearGradient>
<linearGradient id="header-paint68_linear" x1="801.887" y1="418.32" x2="854.944" y2="561.268" gradientUnits="userSpaceOnUse">
<stop stop-color="#00FFFF"/>
<stop offset="1" stop-color="#27AFE3"/>
</linearGradient>
<linearGradient id="header-paint69_linear" x1="814.87" y1="413.502" x2="867.925" y2="556.447" gradientUnits="userSpaceOnUse">
<stop stop-color="#00FFFF"/>
<stop offset="1" stop-color="#27AFE3"/>
</linearGradient>
<linearGradient id="header-paint70_linear" x1="292.091" y1="121.614" x2="350.239" y2="264.955" gradientUnits="userSpaceOnUse">
<stop stop-color="#00FFFF"/>
<stop offset="1" stop-color="#27AFE3"/>
</linearGradient>
<linearGradient id="header-paint71_linear" x1="1086.8" y1="857.985" x2="544.116" y2="570.087" gradientUnits="userSpaceOnUse">
<stop offset="0.2144" stop-color="white"/>
<stop offset="1" stop-color="#5E72E4"/>
</linearGradient>
<linearGradient id="header-paint72_linear" x1="-46.575" y1="128.795" x2="315.08" y2="347.363" gradientUnits="userSpaceOnUse">
<stop offset="0.2144" stop-color="white"/>
<stop offset="1" stop-color="#5E72E4"/>
</linearGradient>
<linearGradient id="header-paint73_linear" x1="-40.9674" y1="99.8766" x2="331.437" y2="324.943" gradientUnits="userSpaceOnUse">
<stop offset="0.2144" stop-color="white"/>
<stop offset="1" stop-color="#5E72E4"/>
</linearGradient>
<linearGradient id="header-paint74_linear" x1="1083.91" y1="863.495" x2="541.167" y2="575.564" gradientUnits="userSpaceOnUse">
<stop offset="0.2144" stop-color="white"/>
<stop offset="1" stop-color="#5E72E4"/>
</linearGradient>
<linearGradient id="header-paint75_linear" x1="388.588" y1="480.353" x2="427.54" y2="510.691" gradientUnits="userSpaceOnUse">
<stop stop-color="#2D32A3"/>
<stop offset="1" stop-color="#5E72E4"/>
</linearGradient>
<linearGradient id="header-paint76_linear" x1="354.336" y1="438.216" x2="338.895" y2="493.816" gradientUnits="userSpaceOnUse">
<stop stop-color="#F778A0"/>
<stop offset="1" stop-color="#F5365C"/>
</linearGradient>
<linearGradient id="header-paint77_linear" x1="369.566" y1="444.023" x2="378.647" y2="504.106" gradientUnits="userSpaceOnUse">
<stop stop-color="#F778A0"/>
<stop offset="1" stop-color="#F5365C"/>
</linearGradient>
<linearGradient id="header-paint78_linear" x1="369.936" y1="460.379" x2="419.591" y2="460.379" gradientUnits="userSpaceOnUse">
<stop stop-color="#F778A0"/>
<stop offset="1" stop-color="#F5365C"/>
</linearGradient>
</defs>
</svg>
