<svg width="500" height="400" viewBox="0 0 500 400" fill="none" xmlns="http://www.w3.org/2000/svg">
<path fill-rule="evenodd" clip-rule="evenodd" d="M49.8273 141.114C49.8273 140.67 50.0943 140.017 51.0433 139.379C51.9797 138.75 53.3955 138.291 55.0659 138.291C56.7364 138.291 58.1522 138.75 59.0886 139.379C60.0376 140.017 60.3046 140.67 60.3046 141.114C60.3046 141.558 60.0376 142.211 59.0886 142.848C58.1522 143.478 56.7364 143.936 55.0659 143.936C53.3955 143.936 51.9797 143.478 51.0433 142.848C50.0943 142.211 49.8273 141.558 49.8273 141.114ZM55.0659 133.991C52.6493 133.991 50.365 134.645 48.623 135.816C46.8936 136.978 45.504 138.811 45.504 141.114C45.504 143.416 46.8936 145.249 48.623 146.412C50.365 147.582 52.6493 148.236 55.0659 148.236C57.122 148.236 59.0824 147.763 60.6944 146.9L94.7814 166.841C95.8104 167.443 97.1353 167.101 97.7405 166.078C98.3458 165.054 98.0022 163.736 96.9731 163.134L63.9392 143.81C64.3704 143.009 64.6279 142.105 64.6279 141.114C64.6279 138.811 63.2382 136.978 61.5089 135.816C59.7669 134.645 57.4825 133.991 55.0659 133.991Z" fill="#EFEFFA"/>
<path fill-rule="evenodd" clip-rule="evenodd" d="M49.8273 141.114C49.8273 140.67 50.0943 140.017 51.0433 139.379C51.9797 138.75 53.3955 138.291 55.0659 138.291C56.7364 138.291 58.1522 138.75 59.0886 139.379C60.0376 140.017 60.3046 140.67 60.3046 141.114C60.3046 141.558 60.0376 142.211 59.0886 142.848C58.1522 143.478 56.7364 143.936 55.0659 143.936C53.3955 143.936 51.9797 143.478 51.0433 142.848C50.0943 142.211 49.8273 141.558 49.8273 141.114ZM55.0659 133.991C52.6493 133.991 50.365 134.645 48.623 135.816C46.8936 136.978 45.504 138.811 45.504 141.114C45.504 143.416 46.8936 145.249 48.623 146.412C50.365 147.582 52.6493 148.236 55.0659 148.236C57.122 148.236 59.0824 147.763 60.6944 146.9L94.7814 166.841C95.8104 167.443 97.1353 167.101 97.7405 166.078C98.3458 165.054 98.0022 163.736 96.9731 163.134L63.9392 143.81C64.3704 143.009 64.6279 142.105 64.6279 141.114C64.6279 138.811 63.2382 136.978 61.5089 135.816C59.7669 134.645 57.4825 133.991 55.0659 133.991Z" fill="url(#mail-paint0_linear)"/>
<path fill-rule="evenodd" clip-rule="evenodd" d="M41.0475 52.2893C41.0475 51.8453 41.3145 51.1923 42.2635 50.5546C43.1999 49.9254 44.6157 49.4666 46.2862 49.4666C47.9566 49.4666 49.3724 49.9254 50.3088 50.5546C51.2578 51.1923 51.5248 51.8453 51.5248 52.2893C51.5248 52.7333 51.2578 53.3863 50.3088 54.024C49.3724 54.6533 47.9566 55.112 46.2862 55.112C44.6157 55.112 43.1999 54.6533 42.2635 54.024C41.3145 53.3863 41.0475 52.7333 41.0475 52.2893ZM46.2862 45.1665C43.8695 45.1665 41.5852 45.8209 39.8432 46.9915C38.1139 48.1536 36.7242 49.9869 36.7242 52.2893C36.7242 54.5917 38.1139 56.4251 39.8432 57.5872C41.5852 58.7577 43.8695 59.4121 46.2862 59.4121C48.3423 59.4121 50.3026 58.9384 51.9146 58.0761L125.528 101.139V161.715C125.528 162.903 126.495 163.865 127.689 163.865C128.883 163.865 129.851 162.903 129.851 161.715V99.9096C129.851 99.1476 129.446 98.4426 128.785 98.0563L55.1594 54.9856C55.5906 54.1845 55.8481 53.2804 55.8481 52.2893C55.8481 49.9869 54.4584 48.1536 52.7291 46.9915C50.9871 45.8209 48.7028 45.1665 46.2862 45.1665Z" fill="#EFEFFA"/>
<path fill-rule="evenodd" clip-rule="evenodd" d="M41.0475 52.2893C41.0475 51.8453 41.3145 51.1923 42.2635 50.5546C43.1999 49.9254 44.6157 49.4666 46.2862 49.4666C47.9566 49.4666 49.3724 49.9254 50.3088 50.5546C51.2578 51.1923 51.5248 51.8453 51.5248 52.2893C51.5248 52.7333 51.2578 53.3863 50.3088 54.024C49.3724 54.6533 47.9566 55.112 46.2862 55.112C44.6157 55.112 43.1999 54.6533 42.2635 54.024C41.3145 53.3863 41.0475 52.7333 41.0475 52.2893ZM46.2862 45.1665C43.8695 45.1665 41.5852 45.8209 39.8432 46.9915C38.1139 48.1536 36.7242 49.9869 36.7242 52.2893C36.7242 54.5917 38.1139 56.4251 39.8432 57.5872C41.5852 58.7577 43.8695 59.4121 46.2862 59.4121C48.3423 59.4121 50.3026 58.9384 51.9146 58.0761L125.528 101.139V161.715C125.528 162.903 126.495 163.865 127.689 163.865C128.883 163.865 129.851 162.903 129.851 161.715V99.9096C129.851 99.1476 129.446 98.4426 128.785 98.0563L55.1594 54.9856C55.5906 54.1845 55.8481 53.2804 55.8481 52.2893C55.8481 49.9869 54.4584 48.1536 52.7291 46.9915C50.9871 45.8209 48.7028 45.1665 46.2862 45.1665Z" fill="url(#mail-paint1_linear)"/>
<path fill-rule="evenodd" clip-rule="evenodd" d="M361.048 159.747C361.048 159.303 361.315 158.65 362.264 158.012C363.2 157.383 364.616 156.924 366.287 156.924C367.957 156.924 369.373 157.383 370.309 158.012C371.258 158.65 371.525 159.303 371.525 159.747C371.525 160.191 371.258 160.844 370.309 161.481C369.373 162.111 367.957 162.569 366.287 162.569C364.616 162.569 363.2 162.111 362.264 161.481C361.315 160.844 361.048 160.191 361.048 159.747ZM366.287 152.624C363.87 152.624 361.586 153.278 359.844 154.449C358.114 155.611 356.725 157.444 356.725 159.747C356.725 162.049 358.114 163.882 359.844 165.044C361.055 165.858 362.528 166.422 364.125 166.691V206.84L330.951 227.103C329.369 226.291 327.468 225.847 325.477 225.847C323.06 225.847 320.776 226.502 319.034 227.672C317.304 228.834 315.915 230.668 315.915 232.97C315.915 235.272 317.304 237.106 319.034 238.268C320.776 239.438 323.06 240.093 325.477 240.093C327.893 240.093 330.178 239.438 331.92 238.268C333.649 237.106 335.039 235.272 335.039 232.97C335.039 231.917 334.748 230.962 334.267 230.124L367.418 209.875C368.058 209.484 368.448 208.79 368.448 208.043V166.691C370.046 166.422 371.519 165.858 372.73 165.044C374.459 163.882 375.849 162.049 375.849 159.747C375.849 157.444 374.459 155.611 372.73 154.449C370.988 153.278 368.703 152.624 366.287 152.624ZM321.454 231.235C320.505 231.873 320.238 232.526 320.238 232.97C320.238 233.414 320.505 234.067 321.454 234.705C322.391 235.334 323.806 235.793 325.477 235.793C327.147 235.793 328.563 235.334 329.499 234.705C330.448 234.067 330.715 233.414 330.715 232.97C330.715 232.526 330.448 231.873 329.499 231.235C328.563 230.606 327.147 230.147 325.477 230.147C323.806 230.147 322.391 230.606 321.454 231.235Z" fill="url(#mail-paint2_linear)"/>
<path fill-rule="evenodd" clip-rule="evenodd" d="M234.883 271.772C233.934 272.41 233.667 273.063 233.667 273.507C233.667 273.951 233.934 274.604 234.883 275.242C235.82 275.871 237.235 276.33 238.906 276.33C240.576 276.33 241.992 275.871 242.928 275.242C243.877 274.604 244.144 273.951 244.144 273.507C244.144 273.063 243.877 272.41 242.928 271.772C241.992 271.143 240.576 270.684 238.906 270.684C237.235 270.684 235.82 271.143 234.883 271.772ZM232.463 268.209C234.205 267.039 236.489 266.384 238.906 266.384C241.322 266.384 243.607 267.039 245.349 268.209C247.078 269.371 248.468 271.205 248.468 273.507C248.468 274.498 248.21 275.402 247.779 276.204L321.623 319.402C322.283 319.789 322.689 320.494 322.689 321.256V362.058C324.286 362.327 325.759 362.891 326.97 363.705C328.699 364.867 330.089 366.701 330.089 369.003C330.089 371.306 328.699 373.139 326.97 374.301C325.228 375.472 322.944 376.126 320.527 376.126C318.11 376.126 315.826 375.472 314.084 374.301C312.355 373.139 310.965 371.305 310.965 369.003C310.965 366.701 312.355 364.867 314.084 363.705C315.295 362.891 316.768 362.327 318.365 362.058V322.485L244.534 279.294C242.922 280.156 240.962 280.63 238.906 280.63C236.489 280.63 234.205 279.975 232.463 278.805C230.733 277.643 229.344 275.809 229.344 273.507C229.344 271.205 230.733 269.371 232.463 268.209ZM315.288 369.003C315.288 368.559 315.555 367.906 316.504 367.268C317.441 366.639 318.857 366.18 320.527 366.18C322.197 366.18 323.613 366.639 324.55 367.268C325.499 367.906 325.766 368.559 325.766 369.003C325.766 369.447 325.499 370.1 324.55 370.738C323.613 371.368 322.197 371.826 320.527 371.826C318.857 371.826 317.441 371.368 316.504 370.738C315.555 370.1 315.288 369.447 315.288 369.003Z" fill="url(#mail-paint3_linear)"/>
<path d="M195.577 162.317C203.557 165.736 221.088 162.679 233.159 159.809C267.902 151.547 274.939 135.491 280.843 129.096C287.382 122.012 294.707 117.123 297.113 116.568" stroke="#FB6340" stroke-width="1.62125" stroke-miterlimit="10" stroke-linecap="round" stroke-linejoin="round"/>
<path opacity="0.3" d="M206.822 206.765C208.341 210.67 204.539 214.394 198.33 215.084C192.119 215.773 185.854 213.167 184.333 209.262C182.813 205.358 186.615 201.633 192.825 200.943C199.034 200.254 205.301 202.86 206.822 206.765Z" fill="url(#mail-paint4_linear)"/>
<path opacity="0.3" d="M243.289 202.716C249.736 219.283 233.606 235.087 207.258 238.014C180.907 240.94 154.319 229.881 147.866 213.314C141.414 196.747 157.55 180.941 183.898 178.013C210.249 175.089 236.837 186.148 243.289 202.716Z" fill="url(#mail-paint5_linear)"/>
<path fill-rule="evenodd" clip-rule="evenodd" d="M176.713 161.078C197.905 158.726 219.184 162.003 236.419 169.171C253.706 176.362 266.622 187.328 271.606 200.125C276.513 212.736 272.917 225.094 262.752 235.052C252.522 245.074 235.654 252.593 214.444 254.95C209.022 255.552 203.595 255.785 198.231 255.679C198.186 255.676 198.141 255.675 198.095 255.675C198.08 255.675 198.065 255.675 198.049 255.675C186.008 255.421 174.29 253.456 163.68 250.111C163.642 250.098 163.604 250.086 163.565 250.075C160.526 249.113 157.577 248.038 154.738 246.858C137.451 239.667 124.534 228.701 119.55 215.905C114.639 203.294 118.235 190.937 128.401 180.978C138.632 170.955 155.503 163.435 176.713 161.078ZM160.806 253.704C158.155 252.827 155.573 251.866 153.07 250.825C135.198 243.391 121.09 231.763 115.519 217.458C109.877 202.972 114.201 188.854 125.368 177.914C136.47 167.038 154.346 159.236 176.233 156.804L176.234 156.804C198.143 154.373 220.161 157.749 238.086 165.204C255.959 172.638 270.066 184.267 275.637 198.572L275.637 198.572C281.275 213.059 276.952 227.177 265.786 238.115C265.697 238.202 265.608 238.289 265.518 238.375L320.484 271.391L352.414 252.713C352.013 251.936 351.775 251.064 351.775 250.112C351.775 247.809 353.165 245.976 354.894 244.814C356.636 243.643 358.921 242.989 361.337 242.989C363.754 242.989 366.038 243.643 367.78 244.814C369.51 245.976 370.899 247.809 370.899 250.112C370.899 252.414 369.51 254.247 367.78 255.409C366.038 256.58 363.754 257.234 361.337 257.234C359.234 257.234 357.231 256.739 355.599 255.839L321.566 275.748C320.881 276.148 320.032 276.143 319.352 275.735L262.146 241.373C250.963 250.54 234.558 257.042 214.923 259.223C210.024 259.767 205.12 260.021 200.257 260.003V296.151L280.812 343.275C281.472 343.661 281.877 344.366 281.877 345.128L281.878 385.933C283.476 386.201 284.949 386.766 286.16 387.579C287.889 388.741 289.279 390.575 289.279 392.877C289.279 395.18 287.889 397.013 286.16 398.175C284.418 399.346 282.133 400 279.717 400C277.3 400 275.016 399.346 273.274 398.175C271.545 397.013 270.155 395.18 270.155 392.877C270.155 390.575 271.545 388.741 273.274 387.579C274.485 386.766 275.958 386.202 277.555 385.933L277.554 346.358L196.999 299.234C196.339 298.848 195.933 298.143 195.933 297.381V259.916C185.223 259.524 174.784 257.829 165.129 255.042V322.497L198.15 341.813C199.762 340.951 201.722 340.477 203.778 340.477C206.195 340.477 208.479 341.132 210.221 342.302C211.951 343.464 213.34 345.298 213.34 347.6C213.34 349.902 211.951 351.736 210.221 352.898C208.479 354.068 206.195 354.723 203.778 354.723C201.362 354.723 199.077 354.068 197.335 352.898C195.606 351.736 194.216 349.902 194.216 347.6C194.216 346.609 194.474 345.705 194.905 344.904L161.872 325.58C161.212 325.193 160.806 324.488 160.806 323.726V253.704ZM357.315 248.377C356.366 249.014 356.099 249.667 356.099 250.112C356.099 250.556 356.366 251.209 357.315 251.846C358.251 252.475 359.667 252.934 361.337 252.934C363.008 252.934 364.424 252.475 365.36 251.846C366.309 251.209 366.576 250.556 366.576 250.112C366.576 249.667 366.309 249.014 365.36 248.377C364.424 247.748 363.008 247.289 361.337 247.289C359.667 247.289 358.251 247.748 357.315 248.377ZM199.756 345.865C198.807 346.503 198.54 347.156 198.54 347.6C198.54 348.044 198.807 348.697 199.756 349.335C200.692 349.964 202.108 350.423 203.778 350.423C205.449 350.423 206.865 349.964 207.801 349.335C208.75 348.697 209.017 348.044 209.017 347.6C209.017 347.156 208.75 346.503 207.801 345.865C206.865 345.236 205.449 344.777 203.778 344.777C202.108 344.777 200.692 345.236 199.756 345.865ZM274.478 392.877C274.478 392.433 274.745 391.78 275.694 391.143C276.631 390.513 278.046 390.055 279.717 390.055C281.387 390.055 282.803 390.513 283.74 391.143C284.689 391.78 284.956 392.433 284.956 392.877C284.956 393.321 284.689 393.974 283.74 394.612C282.803 395.241 281.387 395.7 279.717 395.7C278.046 395.7 276.631 395.241 275.694 394.612C274.745 393.974 274.478 393.321 274.478 392.877Z" fill="url(#mail-paint6_linear)"/>
<path d="M268.549 309.792C268.549 302.503 276.832 296.794 287.409 296.794C294.885 296.794 301.438 299.641 304.514 304.225C305.412 305.564 305.069 307.388 303.747 308.299C302.426 309.208 300.626 308.861 299.727 307.522C298.102 305.102 293.665 302.659 287.409 302.659C279.706 302.659 274.336 306.418 274.336 309.792C274.336 309.984 274.33 310.186 274.094 310.367" fill="url(#mail-paint7_linear)"/>
<path d="M274.296 310.34C274.037 311.437 272.549 312.143 270.972 311.919C269.396 311.694 268.328 310.623 268.587 309.527C268.846 308.432 270.334 307.724 271.909 307.948C273.488 308.173 274.555 309.245 274.296 310.34Z" fill="url(#mail-paint8_linear)"/>
<path d="M341.127 327.545V316.941L341.118 316.942C340.973 315.238 339.651 313.451 337.221 312.03L317.217 300.327C312.597 297.624 305.718 297.264 301.854 299.526L273.767 315.957C272.081 316.943 271.248 318.264 271.225 319.664V330.268H271.228C271.298 332.022 272.624 333.881 275.136 335.351L295.14 347.053C299.761 349.757 306.639 350.116 310.503 347.855L338.591 331.423C340.345 330.398 341.176 329.009 341.13 327.545H341.127V327.545ZM313.324 328.454L300.374 321.66C300.3 321.66 300.23 321.667 300.157 321.667C295.674 321.667 291.988 319.391 291.508 316.465C292.754 315.254 294.323 314.427 296.864 314.428C303.362 314.43 304.599 318.387 304.594 318.419C306.96 319.515 316.498 324.714 318.437 325.772L313.324 328.454Z" fill="url(#mail-paint9_linear)"/>
<path d="M337.221 312.03L317.217 300.327C312.597 297.624 305.718 297.264 301.854 299.526L273.767 315.957C269.901 318.217 270.515 322.242 275.135 324.945L295.14 336.648C299.76 339.351 306.638 339.711 310.502 337.449L338.591 321.018C342.456 318.756 341.841 314.733 337.221 312.03ZM313.324 328.454L300.374 321.66C300.3 321.66 300.23 321.667 300.157 321.667C295.674 321.667 291.988 319.391 291.509 316.465C292.754 315.254 294.323 314.427 296.864 314.428C303.362 314.43 304.599 318.387 304.594 318.419C306.96 319.515 316.499 324.714 318.437 325.772L313.324 328.454Z" fill="url(#mail-paint10_radial)"/>
<path d="M296.865 314.428C303.363 314.43 304.599 318.386 304.595 318.418C306.961 319.515 316.499 324.714 318.438 325.771L323.047 323.354C323.047 323.354 311.676 317.392 308.853 315.912C308.855 315.88 308.861 315.85 308.861 315.817C308.861 312.587 304.964 309.968 300.158 309.968C295.351 309.968 291.453 312.587 291.453 315.817C291.453 316.035 291.475 316.251 291.509 316.463C292.755 315.254 294.324 314.427 296.865 314.428Z" fill="url(#mail-paint11_linear)"/>
<path d="M126.269 60.7993C126.269 53.5112 117.986 47.8013 107.409 47.8013C99.934 47.8013 93.3808 50.649 90.305 55.2327C89.4063 56.5722 89.7493 58.3956 91.0713 59.3062C92.3922 60.2163 94.1929 59.8687 95.0916 58.5298C96.7156 56.1089 101.153 53.6658 107.409 53.6658C115.113 53.6658 120.483 57.4252 120.483 60.7993C120.483 60.9906 120.489 61.1932 120.725 61.3737" fill="url(#mail-paint12_linear)"/>
<path d="M120.522 61.3478C120.781 62.4443 122.269 63.1502 123.847 62.9266C125.423 62.7019 126.491 61.6302 126.231 60.5347C125.973 59.4388 124.484 58.7324 122.909 58.956C121.331 59.1807 120.263 60.2519 120.522 61.3478Z" fill="url(#mail-paint13_linear)"/>
<path d="M53.6892 78.5517C53.6424 80.0157 54.4742 81.4042 56.2269 82.4301L84.3156 98.8614C88.1801 101.122 95.0576 100.763 99.6783 98.0602L119.682 86.3576C122.194 84.8882 123.521 83.0293 123.59 81.2749H123.594V70.6709C123.571 69.2711 122.737 67.9504 121.052 66.9649L92.9651 50.5336C89.1006 48.2727 82.222 48.6321 77.6019 51.3354L57.5973 63.038C55.1681 64.4594 53.8461 66.2467 53.7009 67.9499L53.6919 67.9488V78.5528L53.6892 78.5517ZM76.3804 76.7795C78.3193 75.7213 87.8573 70.5222 90.2232 69.4262C90.219 69.3939 91.4559 65.4379 97.9537 65.4352C100.495 65.4347 102.064 66.2617 103.309 67.4719C102.83 70.3988 99.1433 72.6748 94.6609 72.6748C94.587 72.6748 94.5168 72.6678 94.444 72.6672L81.4929 79.4617L76.3804 76.7795Z" fill="url(#mail-paint14_linear)"/>
<path d="M56.227 72.025L84.3157 88.4563C88.1801 90.7172 95.0577 90.3578 99.6783 87.6551L119.682 75.9519C124.304 73.2492 124.918 69.2248 121.052 66.9644L92.9646 50.5331C89.1001 48.2722 82.2215 48.6316 77.6014 51.3349L57.5968 63.0375C52.9767 65.7408 52.3625 69.7641 56.227 72.025ZM76.3804 76.7796C78.3193 75.7213 87.8574 70.5222 90.2233 69.4263C90.219 69.394 91.4559 65.4379 97.9538 65.4352C100.495 65.4347 102.064 66.2618 103.309 67.472C102.83 70.3989 99.1434 72.6748 94.661 72.6748C94.5871 72.6748 94.5169 72.6678 94.444 72.6673L81.493 79.4618L76.3804 76.7796Z" fill="url(#mail-paint15_radial)"/>
<path d="M97.9537 65.4348C91.4558 65.4375 90.2189 69.3935 90.2231 69.4258C87.8572 70.5223 78.3192 75.7214 76.3803 76.7791L71.7714 74.3614C71.7714 74.3608 83.1419 68.3993 85.9652 66.9197C85.9636 66.8874 85.9572 66.8567 85.9572 66.8249C85.9572 63.5942 89.8541 60.976 94.6609 60.976C99.4671 60.976 103.365 63.5942 103.365 66.8249C103.365 67.0431 103.343 67.2587 103.309 67.471C102.064 66.2618 100.495 65.4342 97.9537 65.4348Z" fill="url(#mail-paint16_linear)"/>
<path opacity="0.5" d="M129.218 324.546C137.017 329.171 137.592 336.314 130.502 340.499L84.1694 367.857C77.0807 372.043 65.0135 371.687 57.2149 367.062L6.24629 336.83C-1.55123 332.205 -2.12662 325.063 4.9615 320.877L51.2951 293.519C58.3843 289.333 70.4515 289.69 78.2501 294.315L129.218 324.546Z" fill="#EBEBFA"/>
<path d="M0.00254149 315.314V302.548H0.00147793C-0.0166027 299.835 1.62182 297.205 4.96247 295.233L51.2961 267.875C58.3853 263.688 70.4525 264.045 78.2511 268.67L129.219 298.901C133.334 301.342 135.437 304.484 135.466 307.522H135.463V320.394H135.466C135.466 323.092 133.827 325.703 130.503 327.665L84.1704 355.023C77.0817 359.209 65.0145 358.853 57.2159 354.227L6.24726 323.996C2.10468 321.538 0.000414364 318.371 0.000946146 315.314H0.00254149Z" fill="url(#mail-paint17_radial)"/>
<path d="M129.219 298.901C137.017 303.527 137.592 310.669 130.503 314.854L84.1699 342.213C77.0812 346.398 65.014 346.041 57.2154 341.417L6.2473 311.185C-1.55023 306.561 -2.12561 299.418 4.96251 295.233L51.2962 267.875C58.3853 263.688 70.4525 264.045 78.2511 268.67L129.219 298.901Z" fill="url(#mail-paint18_linear)"/>
<path d="M72.9037 304.97C72.9037 304.97 70.5883 312.01 74.3778 314.677C77.0856 316.582 91.8526 312.864 89.6415 309.823C88.9869 308.923 87.2809 308.911 84.3779 308.276C82.7826 307.928 80.1178 306.188 80.1178 306.188C76.3358 305.399 72.9037 304.97 72.9037 304.97Z" fill="#2D32A3"/>
<path d="M54.1797 301.555C54.1797 301.555 51.8643 308.595 55.6538 311.262C58.3616 313.167 73.1286 309.449 70.918 306.408C70.2629 305.508 68.5569 305.496 65.6539 304.861C64.0586 304.513 61.3938 302.773 61.3938 302.773C57.6118 301.984 54.1797 301.555 54.1797 301.555Z" fill="#2D32A3"/>
<path d="M51.6202 260.347C51.6202 260.347 51.1438 269.541 50.9906 276.517C50.8374 283.492 52.0887 306.48 53.0279 306.797C53.967 307.114 59.9118 306.797 62.3106 302.675C62.3106 302.675 63.2976 275.09 63.9235 273.664C64.5489 272.237 65.061 273.664 65.061 273.664C65.061 273.664 70.7383 309.645 72.5857 310.258C75.8381 311.337 82.4428 308.383 82.7561 306.48C82.7561 306.48 79.6861 265.737 78.4827 260.347H51.6202V260.347Z" fill="url(#mail-paint19_linear)"/>
<path d="M77.2796 193.761C77.2796 193.761 78.4394 196.456 79.705 201.688C80.4123 204.614 82.7564 212.944 71.7863 212.944L69.088 195.307L77.2796 193.761Z" fill="#FCB4B4"/>
<path d="M93.866 235.615C93.866 235.615 97.9187 229.431 99.6475 228.798C101.376 228.163 107.479 229.591 109.042 229.432C109.042 229.432 110.607 233.871 105.913 235.615C101.219 237.359 98.0123 238.68 97.5821 239.763L93.866 235.615Z" fill="#FCB4B4"/>
<path d="M69.088 187.895C69.088 187.895 69.9069 186.099 81.035 190.274C81.035 190.274 79.6274 199.469 70.552 196.457L69.088 187.895Z" fill="#1B284C"/>
<path d="M59.4427 214.53C59.4427 214.53 51.7722 216.432 50.0551 226.737C48.338 237.041 49.7424 250.042 51.6201 260.347C51.6201 260.347 64.92 271.444 78.3757 261.139C78.3757 261.139 83.5388 225.787 73.5248 218.81L59.4427 214.53Z" fill="url(#mail-paint20_linear)"/>
<path d="M74.1293 219.288C71.3358 218.684 67.2661 231.508 72.4297 240.537C77.5928 249.566 83.1994 254.296 87.4499 254.322C92.3003 254.352 98.872 239.763 98.872 239.763L93.8658 234.199C93.8658 234.199 88.3885 241.481 87.1377 243.224C85.8859 244.968 82.9127 221.188 74.1293 219.288Z" fill="url(#mail-paint21_linear)"/>
<path d="M70.8653 185.042C71.8608 185.152 74.1507 210.408 73.5248 218.81C73.5248 218.81 63.3396 218.54 59.4432 216.291C49.1165 210.329 50.2295 201.516 52.5593 193.761C54.4365 187.511 63.6677 184.249 70.8653 185.042Z" fill="url(#mail-paint22_linear)"/>
<path d="M489.662 101.377V113.473L500 107.425V95.3289L489.662 101.377Z" fill="url(#mail-paint23_linear)"/>
<path d="M479.323 95.3297L489.662 101.377L500 95.3292L489.662 89.282L479.323 95.3297Z" fill="url(#mail-paint24_linear)"/>
<path d="M479.324 95.3295L479.323 107.425L489.662 113.473V101.377L479.324 95.3295Z" fill="url(#mail-paint25_linear)"/>
<path d="M391.908 17.843V35.6866L407.159 26.7648V8.92127L391.908 17.843Z" fill="url(#mail-paint26_linear)"/>
<path d="M376.657 8.92178L391.908 17.843L407.159 8.92124L391.908 0L376.657 8.92178Z" fill="url(#mail-paint27_linear)"/>
<path d="M376.658 8.9217L376.657 26.7647L391.908 35.6865V17.8429L376.658 8.9217Z" fill="url(#mail-paint28_linear)"/>
<path d="M239.148 30.556V46.3773L252.67 38.4669V22.645L239.148 30.556Z" fill="url(#mail-paint29_linear)"/>
<path d="M225.624 22.6455L239.147 30.5559L252.67 22.6449L239.147 14.7351L225.624 22.6455Z" fill="url(#mail-paint30_linear)"/>
<path d="M225.625 22.6456L225.624 38.4669L239.147 46.3773V30.556L225.625 22.6456Z" fill="url(#mail-paint31_linear)"/>
<path d="M254.133 94.1264V111.659L269.118 102.892V85.3598L254.133 94.1264Z" fill="url(#mail-paint32_linear)"/>
<path d="M239.148 85.3604L254.133 94.1265L269.118 85.3599L254.133 76.5943L239.148 85.3604Z" fill="url(#mail-paint33_linear)"/>
<path d="M239.149 85.3603L239.148 102.892L254.133 111.659V94.1264L239.149 85.3603Z" fill="url(#mail-paint34_linear)"/>
<path d="M360.494 95.3119V133.572L393.196 114.443V76.1811L360.494 95.3119Z" fill="url(#mail-paint35_linear)"/>
<path d="M327.792 76.1816L360.494 95.3118L393.196 76.181L360.494 57.0518L327.792 76.1816Z" fill="url(#mail-paint36_linear)"/>
<path d="M327.793 76.1816L327.791 114.443L360.494 133.572L360.494 95.3119L327.793 76.1816Z" fill="url(#mail-paint37_linear)"/>
<path d="M381.887 88.3756L388.706 84.3862" stroke="white" stroke-width="1.62125" stroke-miterlimit="10" stroke-linecap="round" stroke-linejoin="round"/>
<path d="M373.114 93.5072L378.622 90.285" stroke="white" stroke-width="1.62125" stroke-miterlimit="10" stroke-linecap="round" stroke-linejoin="round"/>
<path d="M364.984 98.2634L369.131 95.8377" stroke="white" stroke-width="1.62125" stroke-miterlimit="10" stroke-linecap="round" stroke-linejoin="round"/>
<path d="M380.795 94.4718L385.246 91.8682" stroke="white" stroke-width="1.62125" stroke-miterlimit="10" stroke-linecap="round" stroke-linejoin="round"/>
<path d="M364.984 103.721L376.984 96.7015" stroke="white" stroke-width="1.62125" stroke-miterlimit="10" stroke-linecap="round" stroke-linejoin="round"/>
<path d="M382.125 99.1525L388.706 95.3021" stroke="white" stroke-width="1.62125" stroke-miterlimit="10" stroke-linecap="round" stroke-linejoin="round"/>
<path d="M374.275 103.744L378.451 101.301" stroke="white" stroke-width="1.62125" stroke-miterlimit="10" stroke-linecap="round" stroke-linejoin="round"/>
<path d="M364.984 109.179L369.806 106.359" stroke="white" stroke-width="1.62125" stroke-miterlimit="10" stroke-linecap="round" stroke-linejoin="round"/>
<path d="M385.286 102.76L388.706 100.76" stroke="white" stroke-width="1.62125" stroke-miterlimit="10" stroke-linecap="round" stroke-linejoin="round"/>
<path d="M377.495 107.319L382.529 104.374" stroke="white" stroke-width="1.62125" stroke-miterlimit="10" stroke-linecap="round" stroke-linejoin="round"/>
<path d="M364.984 114.637L373.73 109.522" stroke="white" stroke-width="1.62125" stroke-miterlimit="10" stroke-linecap="round" stroke-linejoin="round"/>
<path d="M378.297 112.307L388.705 106.218" stroke="white" stroke-width="1.62125" stroke-miterlimit="10" stroke-linecap="round" stroke-linejoin="round"/>
<path d="M371.675 116.181L375.292 114.065" stroke="white" stroke-width="1.62125" stroke-miterlimit="10" stroke-linecap="round" stroke-linejoin="round"/>
<path d="M364.984 120.095L368.173 118.23" stroke="white" stroke-width="1.62125" stroke-miterlimit="10" stroke-linecap="round" stroke-linejoin="round"/>
<path d="M384.723 114.006L388.706 111.676" stroke="white" stroke-width="1.62125" stroke-miterlimit="10" stroke-linecap="round" stroke-linejoin="round"/>
<path d="M377.293 118.352L382.695 115.193" stroke="white" stroke-width="1.62125" stroke-miterlimit="10" stroke-linecap="round" stroke-linejoin="round"/>
<path d="M369.39 122.975L374.38 120.057" stroke="white" stroke-width="1.62125" stroke-miterlimit="10" stroke-linecap="round" stroke-linejoin="round"/>
<path d="M364.984 125.553L367.108 124.311" stroke="white" stroke-width="1.62125" stroke-miterlimit="10" stroke-linecap="round" stroke-linejoin="round"/>
<path d="M403.065 129.83V156.987L426.277 143.408V116.252L403.065 129.83Z" fill="url(#mail-paint38_linear)"/>
<path d="M379.855 116.251L403.065 129.83L426.277 116.251L403.065 102.674L379.855 116.251Z" fill="url(#mail-paint39_linear)"/>
<path d="M379.855 116.252L379.854 143.409L403.065 156.987L403.065 129.83L379.855 116.252Z" fill="url(#mail-paint40_linear)"/>
<path d="M419.264 124.27L422.713 122.252" stroke="white" stroke-width="1.35104" stroke-miterlimit="10" stroke-linecap="round" stroke-linejoin="round"/>
<path d="M413.761 127.489L416.62 125.816" stroke="white" stroke-width="1.35104" stroke-miterlimit="10" stroke-linecap="round" stroke-linejoin="round"/>
<path d="M405.875 132.102L411.542 128.788" stroke="white" stroke-width="1.35104" stroke-miterlimit="10" stroke-linecap="round" stroke-linejoin="round"/>
<path d="M418.163 128.788L422.712 126.126" stroke="white" stroke-width="1.35104" stroke-miterlimit="10" stroke-linecap="round" stroke-linejoin="round"/>
<path d="M414.28 131.059L415.918 130.101" stroke="white" stroke-width="1.35104" stroke-miterlimit="10" stroke-linecap="round" stroke-linejoin="round"/>
<path d="M409.741 133.715L411.884 132.46" stroke="white" stroke-width="1.35104" stroke-miterlimit="10" stroke-linecap="round" stroke-linejoin="round"/>
<path d="M405.875 135.976L407.659 134.933" stroke="white" stroke-width="1.35104" stroke-miterlimit="10" stroke-linecap="round" stroke-linejoin="round"/>
<path d="M412.498 135.976L419.119 132.102" stroke="white" stroke-width="1.35104" stroke-miterlimit="10" stroke-linecap="round" stroke-linejoin="round"/>
<path d="M405.875 139.85L409.741 137.589" stroke="white" stroke-width="1.35104" stroke-miterlimit="10" stroke-linecap="round" stroke-linejoin="round"/>
<path d="M418.163 136.535L422.782 133.833" stroke="white" stroke-width="1.35104" stroke-miterlimit="10" stroke-linecap="round" stroke-linejoin="round"/>
<path d="M413.373 139.338L415.808 137.913" stroke="white" stroke-width="1.35104" stroke-miterlimit="10" stroke-linecap="round" stroke-linejoin="round"/>
<path d="M405.875 143.724L410.813 140.836" stroke="white" stroke-width="1.35104" stroke-miterlimit="10" stroke-linecap="round" stroke-linejoin="round"/>
<path d="M420.902 138.807L422.713 137.748" stroke="white" stroke-width="1.35104" stroke-miterlimit="10" stroke-linecap="round" stroke-linejoin="round"/>
<path d="M416.62 141.312L418.828 140.02" stroke="white" stroke-width="1.35104" stroke-miterlimit="10" stroke-linecap="round" stroke-linejoin="round"/>
<path d="M405.875 147.598L413.373 143.212" stroke="white" stroke-width="1.35104" stroke-miterlimit="10" stroke-linecap="round" stroke-linejoin="round"/>
<path d="M417.471 144.689L422.713 141.622" stroke="white" stroke-width="1.35104" stroke-miterlimit="10" stroke-linecap="round" stroke-linejoin="round"/>
<path d="M411.7 148.065L415.283 145.969" stroke="white" stroke-width="1.35104" stroke-miterlimit="10" stroke-linecap="round" stroke-linejoin="round"/>
<path d="M405.875 151.472L408.98 149.656" stroke="white" stroke-width="1.35104" stroke-miterlimit="10" stroke-linecap="round" stroke-linejoin="round"/>
<path d="M315.537 26.5557V50.6458L336.126 38.6005V14.5109L315.537 26.5557Z" fill="url(#mail-paint41_linear)"/>
<path d="M294.947 14.5109L315.537 26.5557L336.126 14.5109L315.537 2.46667L294.947 14.5109Z" fill="url(#mail-paint42_linear)"/>
<path d="M294.947 14.5115L294.946 38.601L315.537 50.6458V26.5557L294.947 14.5115Z" fill="url(#mail-paint43_linear)"/>
<path d="M327.831 22.8345L333.228 19.6771" stroke="white" stroke-width="1.08083" stroke-miterlimit="10" stroke-linecap="round" stroke-linejoin="round"/>
<path d="M322.709 25.8315L325.218 24.3643" stroke="white" stroke-width="1.08083" stroke-miterlimit="10" stroke-linecap="round" stroke-linejoin="round"/>
<path d="M318.293 28.4147L320.498 27.1253" stroke="white" stroke-width="1.08083" stroke-miterlimit="10" stroke-linecap="round" stroke-linejoin="round"/>
<path d="M330.895 24.4785L333.228 23.1137" stroke="white" stroke-width="1.08083" stroke-miterlimit="10" stroke-linecap="round" stroke-linejoin="round"/>
<path d="M326.601 26.99L328.763 25.7259" stroke="white" stroke-width="1.08083" stroke-miterlimit="10" stroke-linecap="round" stroke-linejoin="round"/>
<path d="M318.292 31.8512L319.929 30.8937L324.728 28.0859" stroke="white" stroke-width="1.08083" stroke-miterlimit="10" stroke-linecap="round" stroke-linejoin="round"/>
<path d="M330.061 28.4033L333.228 26.5503" stroke="white" stroke-width="1.08083" stroke-miterlimit="10" stroke-linecap="round" stroke-linejoin="round"/>
<path d="M325.313 31.1804L328.837 29.1189" stroke="white" stroke-width="1.08083" stroke-miterlimit="10" stroke-linecap="round" stroke-linejoin="round"/>
<path d="M318.293 35.2878L322.604 32.7655" stroke="white" stroke-width="1.08083" stroke-miterlimit="10" stroke-linecap="round" stroke-linejoin="round"/>
<path d="M330.82 31.3953L333.228 29.9868" stroke="white" stroke-width="1.08083" stroke-miterlimit="10" stroke-linecap="round" stroke-linejoin="round"/>
<path d="M326.584 33.8733L328.579 32.7062" stroke="white" stroke-width="1.08083" stroke-miterlimit="10" stroke-linecap="round" stroke-linejoin="round"/>
<path d="M322.967 35.9893L324.632 35.0156" stroke="white" stroke-width="1.08083" stroke-miterlimit="10" stroke-linecap="round" stroke-linejoin="round"/>
<path d="M318.292 38.7243L319.848 37.8143" stroke="white" stroke-width="1.08083" stroke-miterlimit="10" stroke-linecap="round" stroke-linejoin="round"/>
<path d="M327.132 36.9888L333.228 33.4229" stroke="white" stroke-width="1.08083" stroke-miterlimit="10" stroke-linecap="round" stroke-linejoin="round"/>
<path d="M318.292 42.1602L324.444 38.5615" stroke="white" stroke-width="1.08083" stroke-miterlimit="10" stroke-linecap="round" stroke-linejoin="round"/>
<path d="M329.807 38.8607L333.228 36.86" stroke="white" stroke-width="1.08083" stroke-miterlimit="10" stroke-linecap="round" stroke-linejoin="round"/>
<path d="M324.894 41.7347L327.905 39.9733" stroke="white" stroke-width="1.08083" stroke-miterlimit="10" stroke-linecap="round" stroke-linejoin="round"/>
<path d="M318.293 45.597L322.249 43.2828" stroke="white" stroke-width="1.08083" stroke-miterlimit="10" stroke-linecap="round" stroke-linejoin="round"/>
<path d="M261.184 33.493L276.811 24.3519" stroke="url(#mail-paint44_linear)" stroke-width="2.70208" stroke-miterlimit="10" stroke-linecap="round" stroke-linejoin="round"/>
<path d="M191.813 74.0747L217.741 58.9069" stroke="url(#mail-paint45_linear)" stroke-width="2.70208" stroke-miterlimit="10" stroke-linecap="round" stroke-linejoin="round"/>
<path d="M251.048 59.2275L272.697 46.5631" stroke="url(#mail-paint46_linear)" stroke-width="2.70208" stroke-miterlimit="10" stroke-linecap="round" stroke-linejoin="round"/>
<path d="M240.2 129.098L288.898 100.61" stroke="url(#mail-paint47_linear)" stroke-width="2.70208" stroke-miterlimit="10" stroke-linecap="round" stroke-linejoin="round"/>
<path d="M345.826 58.0184L369.247 44.3173" stroke="url(#mail-paint48_linear)" stroke-width="2.70208" stroke-miterlimit="10" stroke-linecap="round" stroke-linejoin="round"/>
<path fill-rule="evenodd" clip-rule="evenodd" d="M325.824 69.7194C326.203 70.3591 325.988 71.1827 325.345 71.559L301.411 85.5602C300.768 85.9364 299.94 85.7229 299.561 85.0832C299.183 84.4434 299.398 83.6199 300.041 83.2436L323.975 69.2424C324.618 68.8661 325.446 69.0797 325.824 69.7194Z" fill="url(#mail-paint49_linear)"/>
<path fill-rule="evenodd" clip-rule="evenodd" d="M289.524 90.9553C289.902 91.595 289.687 92.4186 289.044 92.7948L276.816 99.9482C276.173 100.324 275.345 100.111 274.966 99.4711C274.588 98.8314 274.803 98.0078 275.446 97.6316L287.674 90.4782C288.318 90.102 289.146 90.3156 289.524 90.9553Z" fill="url(#mail-paint50_linear)"/>
<path fill-rule="evenodd" clip-rule="evenodd" d="M362.502 34.1136C362.88 34.7533 362.665 35.5769 362.022 35.9532L351.873 41.8904C351.23 42.2667 350.402 42.0531 350.024 41.4134C349.645 40.7737 349.86 39.9501 350.503 39.5739L360.652 33.6366C361.296 33.2603 362.124 33.4739 362.502 34.1136Z" fill="url(#mail-paint51_linear)"/>
<path fill-rule="evenodd" clip-rule="evenodd" d="M347.046 155.377C347.425 156.016 347.21 156.84 346.567 157.216L305.525 181.225C304.882 181.602 304.054 181.388 303.675 180.748C303.297 180.109 303.512 179.285 304.155 178.909L345.197 154.9C345.84 154.523 346.668 154.737 347.046 155.377Z" fill="url(#mail-paint52_linear)"/>
<path fill-rule="evenodd" clip-rule="evenodd" d="M456.317 82.1521C456.696 82.7918 456.481 83.6154 455.838 83.9916L420.627 104.59C419.984 104.966 419.156 104.752 418.778 104.113C418.4 103.473 418.614 102.649 419.257 102.273L454.468 81.675C455.111 81.2988 455.939 81.5124 456.317 82.1521Z" fill="url(#mail-paint53_linear)"/>
<path fill-rule="evenodd" clip-rule="evenodd" d="M288.534 160.269C288.912 160.909 288.697 161.732 288.054 162.109L245.585 186.952C244.942 187.328 244.114 187.115 243.736 186.475C243.358 185.835 243.572 185.012 244.215 184.635L286.684 159.792C287.327 159.416 288.155 159.629 288.534 160.269Z" fill="url(#mail-paint54_linear)"/>
<path fill-rule="evenodd" clip-rule="evenodd" d="M356.393 171.685C356.772 172.325 356.557 173.148 355.914 173.525L340.464 182.563C339.821 182.939 338.993 182.725 338.614 182.086C338.236 181.446 338.451 180.622 339.094 180.246L354.544 171.208C355.187 170.832 356.015 171.045 356.393 171.685Z" fill="url(#mail-paint55_linear)"/>
<path d="M441.946 80.8228C441.946 81.7798 442.712 82.1084 443.657 81.5561C444.602 81.0039 445.368 79.7797 445.368 78.8222C445.368 77.8652 444.602 77.536 443.657 78.0888C442.712 78.6411 441.946 79.8653 441.946 80.8228Z" fill="#11CDEF"/>
<path d="M374.157 56.0189C374.157 56.9758 374.923 57.3045 375.868 56.7522C376.813 56.1999 377.579 54.9757 377.579 54.0182C377.579 53.0613 376.813 52.7321 375.868 53.2849C374.923 53.8372 374.157 55.0608 374.157 56.0189Z" fill="#2DCE89"/>
<path d="M278.006 59.9071C278.006 60.864 278.772 61.1927 279.717 60.6404C280.662 60.0881 281.428 58.8639 281.428 57.9064C281.428 56.9495 280.662 56.6203 279.717 57.1731C278.772 57.7254 278.006 58.9496 278.006 59.9071Z" fill="#5E72E4"/>
<path d="M274.232 188.243C274.232 189.2 274.998 189.529 275.943 188.976C276.888 188.424 277.654 187.2 277.654 186.242C277.654 185.285 276.888 184.956 275.943 185.509C274.998 186.061 274.232 187.286 274.232 188.243Z" fill="#5E72E4"/>
<path d="M252.422 188.243C252.422 189.2 253.188 189.529 254.133 188.976C255.078 188.424 255.844 187.2 255.844 186.242C255.844 185.285 255.079 184.956 254.133 185.509C253.188 186.061 252.422 187.286 252.422 188.243Z" fill="#11CDEF"/>
<path d="M186.592 54.0165C186.592 54.9735 187.357 55.3021 188.302 54.7498C189.247 54.1976 190.014 52.9734 190.014 52.0159C190.014 51.0589 189.248 50.7297 188.302 51.2825C187.357 51.8348 186.592 53.059 186.592 54.0165Z" fill="#2DCE89"/>
<path d="M287.187 97.4417C287.187 98.3987 287.953 98.7273 288.898 98.1751C289.842 97.6228 290.609 96.3986 290.609 95.4411C290.609 94.4842 289.843 94.1549 288.898 94.7078C287.953 95.26 287.187 96.4842 287.187 97.4417Z" fill="#11CDEF"/>
<path d="M363.273 30.119C363.273 31.0759 364.039 31.4046 364.984 30.8523C365.929 30.3 366.695 29.0758 366.695 28.1184C366.695 27.1614 365.929 26.8322 364.984 27.385C364.039 27.9373 363.273 29.1615 363.273 30.119Z" fill="#FB6340"/>
<path d="M257.763 39.8608C257.763 40.8177 258.528 41.1464 259.473 40.5941C260.418 40.0418 261.185 38.8176 261.185 37.8602C261.185 36.9032 260.419 36.574 259.473 37.1268C258.528 37.6791 257.763 38.9033 257.763 39.8608Z" fill="#FB6340"/>
<path d="M342.431 164.828C342.431 165.785 343.197 166.114 344.142 165.562C345.087 165.009 345.853 163.785 345.853 162.828C345.853 161.871 345.088 161.541 344.142 162.094C343.197 162.647 342.431 163.871 342.431 164.828Z" fill="#5E72E4"/>
<path d="M336.126 186.241C336.126 187.198 336.892 187.527 337.837 186.975C338.782 186.422 339.548 185.198 339.548 184.241C339.548 183.284 338.782 182.955 337.837 183.507C336.892 184.06 336.126 185.284 336.126 186.241Z" fill="#FB6340"/>
<path d="M245.588 146.302L233.994 152.535C233.994 152.535 236.457 175.747 227.534 190.578C222.849 198.36 211.797 213.812 188.302 205.745C214.122 215.537 234.443 192.127 239.129 184.343C248.051 169.514 245.588 146.302 245.588 146.302Z" fill="url(#mail-paint56_linear)"/>
<path d="M183.61 91.4068C180.799 93.3837 176.833 95.6176 171.992 97.3796C165.675 99.6776 151.533 104.308 142.609 99.0903L154.204 92.8562C163.126 98.0747 177.293 93.7048 183.61 91.4068Z" fill="url(#mail-paint57_linear)"/>
<path d="M199.896 81.6197C200.359 81.8902 209.588 101.169 216.206 110.222C222.819 119.273 236.666 141.083 245.589 146.302L233.995 152.535C225.072 147.316 211.225 125.506 204.612 116.457C197.995 107.402 188.765 88.1238 188.302 87.8538L199.896 81.6197Z" fill="url(#mail-paint58_linear)"/>
<path d="M233.995 152.536C225.072 147.317 211.225 125.507 204.612 116.458C197.995 107.403 188.765 88.125 188.302 87.855C188.302 87.855 181.658 93.8623 171.992 97.3803C165.675 99.6783 151.533 104.309 142.609 99.091C142.609 99.091 140.145 119.42 149.068 144.689C153.752 157.952 164.808 186.331 188.302 205.747C211.797 213.814 222.849 198.362 227.534 190.58C236.457 175.748 233.995 152.536 233.995 152.536ZM208.349 180.397C207.739 180.447 207.12 180.476 206.485 180.46C192.723 180.115 178.495 164.157 174.704 144.817C172.398 133.056 174.49 122.76 179.573 116.568C180.182 116.519 180.801 116.49 181.436 116.506C195.197 116.851 209.426 132.809 213.219 152.149C215.524 163.91 213.432 174.205 208.349 180.397Z" fill="url(#mail-paint59_linear)"/>
<path d="M208.349 180.397C207.739 180.447 207.12 180.476 206.485 180.46C192.723 180.115 178.495 164.157 174.704 144.817C172.398 133.056 174.49 122.76 179.573 116.568C166.959 117.601 159.768 132.452 163.384 150.9C167.176 170.24 181.404 186.198 195.166 186.543C200.593 186.679 205.132 184.358 208.412 180.32C208.391 180.346 208.369 180.372 208.349 180.397Z" fill="url(#mail-paint60_linear)"/>
<path d="M102.362 222.56C102.362 222.56 101.819 209.567 109.444 202.252" stroke="#FB6340" stroke-width="1.62125" stroke-miterlimit="10" stroke-linecap="round" stroke-linejoin="round"/>
<path d="M112.997 187.266L114.682 198.672L124.701 197.814L150.577 177.388L112.997 187.266Z" fill="url(#mail-paint61_linear)"/>
<path d="M102.362 180.262L112.997 187.267C112.997 187.267 151.286 177.478 150.577 177.388C150.577 177.388 114.682 178.555 102.362 180.262Z" fill="url(#mail-paint62_linear)"/>
<path d="M120.354 189.332C120.354 189.332 127.621 203.521 128.419 205.048C128.419 205.048 150.134 179.813 150.577 177.388L120.354 189.332Z" fill="url(#mail-paint63_linear)"/>
<path d="M120.354 189.332L114.682 198.672L124.701 197.815L120.354 189.332Z" fill="url(#mail-paint64_linear)"/>
<path d="M153.615 175.399C153.615 175.399 165.458 167.922 190.211 164.159C203.798 162.094 206.815 146.302 198.095 146.302C189.199 146.302 188.262 159.183 195.577 162.316" stroke="#FB6340" stroke-width="1.62125" stroke-miterlimit="10" stroke-linecap="round" stroke-linejoin="round"/>
<defs>
<linearGradient id="mail-paint0_linear" x1="191.165" y1="169.44" x2="110.627" y2="26.0646" gradientUnits="userSpaceOnUse">
<stop offset="0.2144" stop-color="white"/>
<stop offset="1" stop-color="#5E72E4"/>
</linearGradient>
<linearGradient id="mail-paint1_linear" x1="294.93" y1="172.109" x2="-40.1029" y2="-123.138" gradientUnits="userSpaceOnUse">
<stop offset="0.2144" stop-color="white"/>
<stop offset="1" stop-color="#5E72E4"/>
</linearGradient>
<linearGradient id="mail-paint2_linear" x1="638.5" y1="233.239" x2="284.317" y2="140.768" gradientUnits="userSpaceOnUse">
<stop offset="0.2144" stop-color="white"/>
<stop offset="1" stop-color="#5E72E4"/>
</linearGradient>
<linearGradient id="mail-paint3_linear" x1="567.5" y1="426.694" x2="316.147" y2="71.9201" gradientUnits="userSpaceOnUse">
<stop offset="0.2144" stop-color="white"/>
<stop offset="1" stop-color="#5E72E4"/>
</linearGradient>
<linearGradient id="mail-paint4_linear" x1="183.998" y1="208.014" x2="207.156" y2="208.014" gradientUnits="userSpaceOnUse">
<stop stop-color="#5E72E4"/>
<stop offset="1" stop-color="#2D32A3"/>
</linearGradient>
<linearGradient id="mail-paint5_linear" x1="146.445" y1="208.014" x2="244.708" y2="208.014" gradientUnits="userSpaceOnUse">
<stop stop-color="#5E72E4"/>
<stop offset="1" stop-color="#2D32A3"/>
</linearGradient>
<linearGradient id="mail-paint6_linear" x1="71" y1="229.261" x2="133.284" y2="484.823" gradientUnits="userSpaceOnUse">
<stop stop-color="white"/>
<stop offset="0.411492" stop-color="#5E72E4"/>
<stop offset="0.931226" stop-color="white"/>
</linearGradient>
<linearGradient id="mail-paint7_linear" x1="268.549" y1="303.58" x2="305.015" y2="303.58" gradientUnits="userSpaceOnUse">
<stop stop-color="#5E72E4"/>
<stop offset="1" stop-color="#2D32A3"/>
</linearGradient>
<linearGradient id="mail-paint8_linear" x1="268.548" y1="310.217" x2="274.335" y2="310.216" gradientUnits="userSpaceOnUse">
<stop stop-color="#5E72E4"/>
<stop offset="1" stop-color="#2D32A3"/>
</linearGradient>
<linearGradient id="mail-paint9_linear" x1="335.086" y1="316.868" x2="266.913" y2="332.54" gradientUnits="userSpaceOnUse">
<stop stop-color="#F7F7FF"/>
<stop offset="1" stop-color="#DFDFFB"/>
</linearGradient>
<radialGradient id="mail-paint10_radial" cx="0" cy="0" r="1" gradientUnits="userSpaceOnUse" gradientTransform="translate(292.742 331.263) scale(36.4789 36.9617)">
<stop stop-color="#F7F7FF"/>
<stop offset="1" stop-color="#DFDFFB"/>
</radialGradient>
<linearGradient id="mail-paint11_linear" x1="291.452" y1="317.87" x2="323.047" y2="317.87" gradientUnits="userSpaceOnUse">
<stop stop-color="#5E72E4"/>
<stop offset="1" stop-color="#2D32A3"/>
</linearGradient>
<linearGradient id="mail-paint12_linear" x1="126.27" y1="54.5875" x2="89.8041" y2="54.5875" gradientUnits="userSpaceOnUse">
<stop stop-color="#5E72E4"/>
<stop offset="1" stop-color="#2D32A3"/>
</linearGradient>
<linearGradient id="mail-paint13_linear" x1="126.27" y1="61.2247" x2="120.484" y2="61.2236" gradientUnits="userSpaceOnUse">
<stop stop-color="#5E72E4"/>
<stop offset="1" stop-color="#2D32A3"/>
</linearGradient>
<linearGradient id="mail-paint14_linear" x1="59.7315" y1="67.8743" x2="127.905" y2="83.5466" gradientUnits="userSpaceOnUse">
<stop stop-color="#F7F7FF"/>
<stop offset="1" stop-color="#DFDFFB"/>
</linearGradient>
<radialGradient id="mail-paint15_radial" cx="0" cy="0" r="1" gradientUnits="userSpaceOnUse" gradientTransform="translate(102.076 82.2701) rotate(180) scale(36.4789 36.9616)">
<stop stop-color="#F7F7FF"/>
<stop offset="1" stop-color="#DFDFFB"/>
</radialGradient>
<linearGradient id="mail-paint16_linear" x1="103.366" y1="68.8784" x2="71.7713" y2="68.8784" gradientUnits="userSpaceOnUse">
<stop stop-color="#5E72E4"/>
<stop offset="1" stop-color="#2D32A3"/>
</linearGradient>
<radialGradient id="mail-paint17_radial" cx="0" cy="0" r="1" gradientUnits="userSpaceOnUse" gradientTransform="translate(74.1147 347.011) scale(57.8503 58.6159)">
<stop stop-color="#F7F7FF"/>
<stop offset="1" stop-color="#DFDFFB"/>
</radialGradient>
<linearGradient id="mail-paint18_linear" x1="0.000983256" y1="305.043" x2="135.466" y2="305.043" gradientUnits="userSpaceOnUse">
<stop stop-color="#F8F8FF"/>
<stop offset="1" stop-color="#FEFEFF"/>
</linearGradient>
<linearGradient id="mail-paint19_linear" x1="62.2703" y1="264.643" x2="68.1203" y2="296.292" gradientUnits="userSpaceOnUse">
<stop stop-color="#2D32A3"/>
<stop offset="1" stop-color="#5E72E4"/>
</linearGradient>
<linearGradient id="mail-paint20_linear" x1="64.2561" y1="237.447" x2="67.3348" y2="268.119" gradientUnits="userSpaceOnUse">
<stop stop-color="#F778A0"/>
<stop offset="1" stop-color="#F5365C"/>
</linearGradient>
<linearGradient id="mail-paint21_linear" x1="73.892" y1="225.9" x2="92.3418" y2="248.469" gradientUnits="userSpaceOnUse">
<stop stop-color="#F778A0"/>
<stop offset="1" stop-color="#F5365C"/>
</linearGradient>
<linearGradient id="mail-paint22_linear" x1="63.0251" y1="199.377" x2="82.5914" y2="210.922" gradientUnits="userSpaceOnUse">
<stop stop-color="#F778A0"/>
<stop offset="1" stop-color="#F5365C"/>
</linearGradient>
<linearGradient id="mail-paint23_linear" x1="481.806" y1="111.083" x2="506.852" y2="98.5689" gradientUnits="userSpaceOnUse">
<stop stop-color="#00FFFF"/>
<stop offset="1" stop-color="#27AFE3"/>
</linearGradient>
<linearGradient id="mail-paint24_linear" x1="479.323" y1="95.3297" x2="500" y2="95.3297" gradientUnits="userSpaceOnUse">
<stop stop-color="#00FFFF"/>
<stop offset="0.4704" stop-color="#01FDFE"/>
<stop offset="0.6398" stop-color="#04F6FC"/>
<stop offset="0.7605" stop-color="#0AEBF8"/>
<stop offset="0.8582" stop-color="#12DAF2"/>
<stop offset="0.9409" stop-color="#1DC4EA"/>
<stop offset="1" stop-color="#27AFE3"/>
</linearGradient>
<linearGradient id="mail-paint25_linear" x1="475.039" y1="100.154" x2="489.683" y2="106.563" gradientUnits="userSpaceOnUse">
<stop stop-color="#00FFFF"/>
<stop offset="1" stop-color="#27AFE3"/>
</linearGradient>
<linearGradient id="mail-paint26_linear" x1="381.739" y1="31.4818" x2="414.141" y2="15.2032" gradientUnits="userSpaceOnUse">
<stop stop-color="#00FFFF"/>
<stop offset="1" stop-color="#27AFE3"/>
</linearGradient>
<linearGradient id="mail-paint27_linear" x1="388.356" y1="8.92156" x2="418.858" y2="8.92156" gradientUnits="userSpaceOnUse">
<stop stop-color="#00FFFF"/>
<stop offset="1" stop-color="#27AFE3"/>
</linearGradient>
<linearGradient id="mail-paint28_linear" x1="363.988" y1="15.8335" x2="388.803" y2="23.54" gradientUnits="userSpaceOnUse">
<stop stop-color="#00FFFF"/>
<stop offset="1" stop-color="#27AFE3"/>
</linearGradient>
<linearGradient id="mail-paint29_linear" x1="230.285" y1="34.5113" x2="261.035" y2="34.5113" gradientUnits="userSpaceOnUse">
<stop stop-color="#00FFFF"/>
<stop offset="1" stop-color="#27AFE3"/>
</linearGradient>
<linearGradient id="mail-paint30_linear" x1="235.906" y1="22.6454" x2="262.951" y2="22.6454" gradientUnits="userSpaceOnUse">
<stop stop-color="#00FFFF"/>
<stop offset="1" stop-color="#27AFE3"/>
</linearGradient>
<linearGradient id="mail-paint31_linear" x1="220.661" y1="34.5116" x2="242.201" y2="34.5116" gradientUnits="userSpaceOnUse">
<stop stop-color="#00FFFF"/>
<stop offset="1" stop-color="#27AFE3"/>
</linearGradient>
<linearGradient id="mail-paint32_linear" x1="249.188" y1="104.117" x2="275.65" y2="92.498" gradientUnits="userSpaceOnUse">
<stop stop-color="#00FFFF"/>
<stop offset="1" stop-color="#27AFE3"/>
</linearGradient>
<linearGradient id="mail-paint33_linear" x1="250.138" y1="85.3604" x2="293.375" y2="85.3604" gradientUnits="userSpaceOnUse">
<stop stop-color="#00FFFF"/>
<stop offset="1" stop-color="#27AFE3"/>
</linearGradient>
<linearGradient id="mail-paint34_linear" x1="228.464" y1="90.0865" x2="254.875" y2="102.008" gradientUnits="userSpaceOnUse">
<stop stop-color="#00FFFF"/>
<stop offset="1" stop-color="#27AFE3"/>
</linearGradient>
<linearGradient id="mail-paint35_linear" x1="340.76" y1="111.99" x2="411.268" y2="98.4522" gradientUnits="userSpaceOnUse">
<stop stop-color="#00FFFF"/>
<stop offset="1" stop-color="#27AFE3"/>
</linearGradient>
<linearGradient id="mail-paint36_linear" x1="363.953" y1="76.1817" x2="429.357" y2="76.1817" gradientUnits="userSpaceOnUse">
<stop stop-color="#00FFFF"/>
<stop offset="1" stop-color="#27AFE3"/>
</linearGradient>
<linearGradient id="mail-paint37_linear" x1="303.329" y1="104.877" x2="360.268" y2="104.877" gradientUnits="userSpaceOnUse">
<stop stop-color="#00FFFF"/>
<stop offset="1" stop-color="#27AFE3"/>
</linearGradient>
<linearGradient id="mail-paint38_linear" x1="391.717" y1="147.632" x2="434.798" y2="127.499" gradientUnits="userSpaceOnUse">
<stop stop-color="#00FFFF"/>
<stop offset="1" stop-color="#27AFE3"/>
</linearGradient>
<linearGradient id="mail-paint39_linear" x1="404.316" y1="116.252" x2="450.739" y2="116.252" gradientUnits="userSpaceOnUse">
<stop stop-color="#00FFFF"/>
<stop offset="1" stop-color="#27AFE3"/>
</linearGradient>
<linearGradient id="mail-paint40_linear" x1="364.757" y1="124.302" x2="408.541" y2="143.974" gradientUnits="userSpaceOnUse">
<stop stop-color="#00FFFF"/>
<stop offset="1" stop-color="#27AFE3"/>
</linearGradient>
<linearGradient id="mail-paint41_linear" x1="305.623" y1="40.3486" x2="345.819" y2="25.2939" gradientUnits="userSpaceOnUse">
<stop stop-color="#00FFFF"/>
<stop offset="1" stop-color="#27AFE3"/>
</linearGradient>
<linearGradient id="mail-paint42_linear" x1="311.254" y1="14.511" x2="352.434" y2="14.511" gradientUnits="userSpaceOnUse">
<stop stop-color="#00FFFF"/>
<stop offset="1" stop-color="#27AFE3"/>
</linearGradient>
<linearGradient id="mail-paint43_linear" x1="282.513" y1="23.4542" x2="319.489" y2="37.9134" gradientUnits="userSpaceOnUse">
<stop stop-color="#00FFFF"/>
<stop offset="1" stop-color="#27AFE3"/>
</linearGradient>
<linearGradient id="mail-paint44_linear" x1="263.762" y1="31.9577" x2="275.874" y2="24.0671" gradientUnits="userSpaceOnUse">
<stop stop-color="white" stop-opacity="0"/>
<stop offset="0.740331" stop-color="#5E72E4"/>
</linearGradient>
<linearGradient id="mail-paint45_linear" x1="196.089" y1="71.5272" x2="216.187" y2="58.4351" gradientUnits="userSpaceOnUse">
<stop stop-color="white" stop-opacity="0"/>
<stop offset="0.458564" stop-color="#5E72E4"/>
</linearGradient>
<linearGradient id="mail-paint46_linear" x1="254.619" y1="57.1004" x2="271.399" y2="46.1698" gradientUnits="userSpaceOnUse">
<stop stop-color="white" stop-opacity="0"/>
<stop offset="1" stop-color="#5E72E4"/>
</linearGradient>
<linearGradient id="mail-paint47_linear" x1="248.233" y1="124.313" x2="285.979" y2="99.7244" gradientUnits="userSpaceOnUse">
<stop stop-color="white" stop-opacity="0"/>
<stop offset="0.535912" stop-color="#5E72E4"/>
</linearGradient>
<linearGradient id="mail-paint48_linear" x1="349.689" y1="55.7173" x2="367.843" y2="43.8916" gradientUnits="userSpaceOnUse">
<stop stop-color="white" stop-opacity="0"/>
<stop offset="1" stop-color="#5E72E4"/>
</linearGradient>
<linearGradient id="mail-paint49_linear" x1="303.768" y1="82.9429" x2="325.235" y2="69.8867" gradientUnits="userSpaceOnUse">
<stop stop-color="white" stop-opacity="0"/>
<stop offset="0.552486" stop-color="#5E72E4"/>
</linearGradient>
<linearGradient id="mail-paint50_linear" x1="277.243" y1="98.481" x2="289.597" y2="91.3382" gradientUnits="userSpaceOnUse">
<stop stop-color="white" stop-opacity="0"/>
<stop offset="1" stop-color="#5E72E4"/>
</linearGradient>
<linearGradient id="mail-paint51_linear" x1="351.957" y1="40.6275" x2="362.686" y2="34.5353" gradientUnits="userSpaceOnUse">
<stop stop-color="white" stop-opacity="0"/>
<stop offset="1" stop-color="#5E72E4"/>
</linearGradient>
<linearGradient id="mail-paint52_linear" x1="310.704" y1="176.927" x2="345.452" y2="155.23" gradientUnits="userSpaceOnUse">
<stop stop-color="white" stop-opacity="0"/>
<stop offset="0.475138" stop-color="#5E72E4"/>
</linearGradient>
<linearGradient id="mail-paint53_linear" x1="424.845" y1="100.864" x2="455.067" y2="82.1128" gradientUnits="userSpaceOnUse">
<stop stop-color="white" stop-opacity="0"/>
<stop offset="0.519337" stop-color="#5E72E4"/>
</linearGradient>
<linearGradient id="mail-paint54_linear" x1="251" y1="182.514" x2="286.854" y2="160.096" gradientUnits="userSpaceOnUse">
<stop stop-color="white" stop-opacity="0"/>
<stop offset="1" stop-color="#5E72E4"/>
</linearGradient>
<linearGradient id="mail-paint55_linear" x1="344.5" y1="177.043" x2="356.337" y2="168.648" gradientUnits="userSpaceOnUse">
<stop stop-color="white" stop-opacity="0"/>
<stop offset="1" stop-color="#5E72E4"/>
</linearGradient>
<linearGradient id="mail-paint56_linear" x1="198.909" y1="231.412" x2="221.643" y2="177.787" gradientUnits="userSpaceOnUse">
<stop stop-color="#5E72E4"/>
<stop offset="1" stop-color="#2D32A3"/>
</linearGradient>
<linearGradient id="mail-paint57_linear" x1="152.938" y1="97.4706" x2="193.455" y2="91.3212" gradientUnits="userSpaceOnUse">
<stop stop-color="#5E72E4"/>
<stop offset="1" stop-color="#2D32A3"/>
</linearGradient>
<linearGradient id="mail-paint58_linear" x1="245.589" y1="117.078" x2="188.302" y2="117.078" gradientUnits="userSpaceOnUse">
<stop stop-color="#5E72E4"/>
<stop offset="1" stop-color="#2D32A3"/>
</linearGradient>
<linearGradient id="mail-paint59_linear" x1="255.036" y1="181.216" x2="124.591" y2="115.689" gradientUnits="userSpaceOnUse">
<stop stop-color="#5E72E4"/>
<stop offset="1" stop-color="#2D32A3"/>
</linearGradient>
<linearGradient id="mail-paint60_linear" x1="162.45" y1="151.558" x2="208.412" y2="151.558" gradientUnits="userSpaceOnUse">
<stop stop-color="#5E72E4"/>
<stop offset="1" stop-color="#2D32A3"/>
</linearGradient>
<linearGradient id="mail-paint61_linear" x1="112.998" y1="188.03" x2="150.577" y2="188.03" gradientUnits="userSpaceOnUse">
<stop stop-color="#FB6340"/>
<stop offset="0.9949" stop-color="#FB6340"/>
</linearGradient>
<linearGradient id="mail-paint62_linear" x1="156.05" y1="175.187" x2="108.511" y2="183.399" gradientUnits="userSpaceOnUse">
<stop stop-color="#FB6340"/>
<stop offset="0.9949" stop-color="#F9AE94"/>
</linearGradient>
<linearGradient id="mail-paint63_linear" x1="145.841" y1="176.345" x2="123.752" y2="197.25" gradientUnits="userSpaceOnUse">
<stop stop-color="#FB6340"/>
<stop offset="0.9949" stop-color="#F9AE94"/>
</linearGradient>
<linearGradient id="mail-paint64_linear" x1="126.049" y1="193.364" x2="116.055" y2="194.092" gradientUnits="userSpaceOnUse">
<stop stop-color="#FB6340"/>
<stop offset="0.9949" stop-color="#F9AE94"/>
</linearGradient>
</defs>
</svg>
