<svg width="501" height="401" viewBox="0 0 501 401" fill="none" xmlns="http://www.w3.org/2000/svg">
<path opacity="0.5" d="M496.092 191.377C496.092 227.311 452.354 256.437 398.404 256.437C344.453 256.437 300.717 227.311 300.717 191.377C300.717 155.443 344.453 126.318 398.404 126.318C452.354 126.318 496.092 155.443 496.092 191.377Z" fill="#EBEBFA"/>
<path d="M500.788 165.824V177.221H500.801C500.801 214.888 454.955 245.417 398.403 245.417C341.852 245.417 296.006 214.888 296.006 177.221V164.764L500.788 165.824Z" fill="url(#technology-paint0_radial)"/>
<path d="M500.801 164.763C500.801 202.43 454.955 232.959 398.403 232.959C341.852 232.959 296.006 202.43 296.006 164.763C296.006 127.096 341.852 96.5667 398.403 96.5667C454.955 96.5667 500.801 127.097 500.801 164.763Z" fill="url(#technology-paint1_linear)"/>
<path fill-rule="evenodd" clip-rule="evenodd" d="M150.044 279.145C150.619 280.136 150.282 281.405 149.29 281.98L72.8979 326.271L128.553 358.538C129.545 359.113 129.882 360.382 129.307 361.373C128.731 362.364 127.46 362.701 126.468 362.126L67.7181 328.065C67.0778 327.694 66.6837 327.01 66.6837 326.271C66.6837 325.531 67.0778 324.847 67.7181 324.476L147.205 278.392C148.197 277.817 149.468 278.154 150.044 279.145Z" fill="url(#technology-paint2_linear)"/>
<path fill-rule="evenodd" clip-rule="evenodd" d="M352.73 206.511C352.73 206.088 352.987 205.451 353.927 204.825C354.852 204.209 356.25 203.761 357.898 203.761C359.545 203.761 360.943 204.209 361.868 204.825C362.808 205.451 363.066 206.088 363.066 206.511C363.066 206.934 362.808 207.57 361.868 208.196C360.943 208.813 359.545 209.261 357.898 209.261C356.25 209.261 354.852 208.813 353.927 208.196C352.987 207.57 352.73 206.934 352.73 206.511ZM357.898 199.611C355.544 199.611 353.32 200.243 351.623 201.373C349.94 202.493 348.576 204.269 348.576 206.511C348.576 207.462 348.821 208.328 349.232 209.097L335.302 217.102C335.228 217.142 335.158 217.187 335.09 217.236C334.846 217.411 334.65 217.631 334.506 217.878C334.36 218.129 334.266 218.412 334.236 218.715C334.228 218.796 334.224 218.878 334.226 218.96V230.25L228.58 291.191L149.715 245.129C148.725 244.551 147.453 244.884 146.874 245.873C146.295 246.862 146.629 248.133 147.619 248.711L227.525 295.382C228.169 295.758 228.966 295.76 229.612 295.388L337.341 233.245C337.984 232.874 338.379 232.189 338.379 231.448V220.12L352.356 212.089C353.937 212.941 355.87 213.41 357.898 213.41C360.251 213.41 362.476 212.779 364.172 211.649C365.855 210.528 367.219 208.753 367.219 206.511C367.219 204.269 365.855 202.493 364.172 201.373C362.476 200.243 360.251 199.611 357.898 199.611Z" fill="url(#technology-paint3_linear)"/>
<path fill-rule="evenodd" clip-rule="evenodd" d="M395.512 212.576C394.572 213.202 394.314 213.838 394.314 214.261C394.314 214.684 394.572 215.321 395.512 215.947C396.437 216.563 397.835 217.011 399.482 217.011C401.13 217.011 402.528 216.563 403.453 215.947C404.393 215.321 404.65 214.684 404.65 214.261C404.65 213.838 404.393 213.202 403.453 212.576C402.528 211.96 401.13 211.511 399.482 211.511C397.835 211.511 396.437 211.96 395.512 212.576ZM393.208 209.123C394.904 207.993 397.129 207.362 399.482 207.362C401.836 207.362 404.06 207.993 405.757 209.123C407.44 210.244 408.804 212.019 408.804 214.261C408.804 216.503 407.44 218.279 405.757 219.399C404.06 220.529 401.836 221.161 399.482 221.161C397.482 221.161 395.574 220.704 394.005 219.873L373.659 231.785V243.053C373.659 243.792 373.266 244.474 372.627 244.846L287.2 294.557L334.021 321.764C335.012 322.34 335.348 323.61 334.772 324.6C334.195 325.591 332.924 325.927 331.932 325.351L283.072 296.959L270.603 304.215V349.004C270.603 349.74 270.212 350.422 269.576 350.794L247.219 363.872C246.574 364.25 245.774 364.251 245.127 363.876L184.158 328.529C182.583 329.371 180.662 329.834 178.647 329.834C176.294 329.834 174.069 329.203 172.372 328.073C170.69 326.952 169.325 325.177 169.325 322.935C169.325 320.693 170.69 318.917 172.372 317.797C174.069 316.667 176.294 316.035 178.647 316.035C181 316.035 183.225 316.667 184.922 317.797C186.604 318.917 187.969 320.693 187.969 322.935C187.969 323.898 187.717 324.775 187.296 325.55L246.165 359.68L266.45 347.814V306.632L229.619 328.064C228.975 328.439 228.179 328.44 227.533 328.067L115.655 263.373C114.662 262.799 114.323 261.53 114.898 260.539C115.472 259.547 116.743 259.208 117.736 259.782L228.57 323.872L267.445 301.25C267.47 301.235 267.495 301.221 267.52 301.207L369.505 241.861V230.637C369.504 230.59 369.505 230.543 369.507 230.495C369.511 230.419 369.519 230.343 369.531 230.267C369.57 230.027 369.651 229.795 369.77 229.581C369.916 229.321 370.12 229.089 370.375 228.907C370.436 228.864 370.499 228.824 370.564 228.788L390.851 216.91C390.42 216.126 390.161 215.238 390.161 214.261C390.161 212.019 391.525 210.244 393.208 209.123ZM173.479 322.935C173.479 322.512 173.736 321.875 174.676 321.249C175.601 320.633 176.999 320.184 178.647 320.184C180.295 320.184 181.693 320.633 182.618 321.249C183.558 321.875 183.815 322.512 183.815 322.935C183.815 323.358 183.558 323.994 182.618 324.62C181.693 325.236 180.295 325.685 178.647 325.685C176.999 325.685 175.601 325.236 174.676 324.62C173.736 323.994 173.479 323.357 173.479 322.935Z" fill="url(#technology-paint4_linear)"/>
<path fill-rule="evenodd" clip-rule="evenodd" d="M298.569 320.895C297.629 321.521 297.372 322.158 297.372 322.581C297.372 323.004 297.629 323.64 298.569 324.266C299.494 324.882 300.892 325.331 302.54 325.331C304.188 325.331 305.586 324.882 306.511 324.266C307.451 323.64 307.708 323.004 307.708 322.581C307.708 322.158 307.451 321.521 306.511 320.895C305.586 320.279 304.188 319.831 302.54 319.831C300.892 319.831 299.494 320.279 298.569 320.895ZM296.265 317.443C297.962 316.313 300.186 315.681 302.54 315.681C304.893 315.681 307.118 316.313 308.815 317.443C310.497 318.563 311.862 320.339 311.862 322.581C311.862 324.823 310.497 326.598 308.815 327.719C307.628 328.509 306.183 329.055 304.617 329.313V374.92C304.617 375.659 304.223 376.343 303.582 376.714L263.629 399.877C262.984 400.251 262.188 400.251 261.544 399.877L207.531 368.563C205.955 369.405 204.035 369.868 202.02 369.868C199.667 369.868 197.442 369.237 195.745 368.107C194.063 366.986 192.699 365.211 192.699 362.969C192.699 360.727 194.063 358.951 195.745 357.831C197.442 356.701 199.667 356.069 202.02 356.069C204.374 356.069 206.598 356.701 208.295 357.831C209.978 358.951 211.342 360.727 211.342 362.969C211.342 363.932 211.09 364.809 210.669 365.585L262.586 395.684L300.463 373.725V329.313C298.897 329.055 297.452 328.509 296.265 327.719C294.583 326.598 293.218 324.823 293.218 322.581C293.218 320.339 294.583 318.563 296.265 317.443ZM206.277 364.447C206.985 363.891 207.188 363.345 207.188 362.969C207.188 362.546 206.931 361.909 205.991 361.283C205.066 360.667 203.668 360.219 202.02 360.219C200.373 360.219 198.975 360.667 198.049 361.283C197.11 361.909 196.852 362.546 196.852 362.969C196.852 363.392 197.11 364.028 198.049 364.654C198.975 365.27 200.373 365.719 202.02 365.719C203.668 365.719 205.066 365.27 205.991 364.654C206.054 364.612 206.114 364.57 206.171 364.528C206.206 364.5 206.241 364.473 206.277 364.447Z" fill="url(#technology-paint5_linear)"/>
<path fill-rule="evenodd" clip-rule="evenodd" d="M38.8606 309.65C37.9209 310.275 37.6635 310.912 37.6635 311.335C37.6635 311.709 37.8646 312.25 38.5603 312.802C38.6063 312.835 38.6511 312.869 38.6946 312.905C38.7474 312.943 38.8027 312.982 38.8606 313.02C39.7859 313.637 41.1837 314.085 42.8315 314.085C44.4793 314.085 45.8771 313.637 46.8024 313.02C47.7421 312.395 47.9995 311.758 47.9995 311.335C47.9995 310.912 47.7421 310.275 46.8024 309.65C45.8771 309.033 44.4793 308.585 42.8315 308.585C41.1837 308.585 39.7859 309.033 38.8606 309.65ZM37.3199 316.929C38.8957 317.771 40.8164 318.234 42.8315 318.234C45.1849 318.234 47.4095 317.603 49.1064 316.473C50.7887 315.352 52.1532 313.577 52.1532 311.335C52.1532 309.093 50.7887 307.317 49.1064 306.197C47.4095 305.067 45.1849 304.435 42.8315 304.435C40.4781 304.435 38.2535 305.067 36.5566 306.197C34.8743 307.317 33.5099 309.093 33.5099 311.335C33.5099 312.298 33.7616 313.175 34.1821 313.951L1.83549 332.704C1.19522 333.076 0.801155 333.759 0.801155 334.499C0.801155 335.238 1.19522 335.922 1.83549 336.293L74.1343 378.21C73.7138 378.986 73.4621 379.863 73.4621 380.826C73.4621 383.068 74.8265 384.843 76.5089 385.964C78.2057 387.094 80.4303 387.725 82.7837 387.725C85.1372 387.725 87.3617 387.094 89.0586 385.964C90.7409 384.843 92.1054 383.068 92.1054 380.826C92.1054 378.584 90.7409 376.808 89.0586 375.688C87.3617 374.558 85.1371 373.926 82.7837 373.926C80.7686 373.926 78.848 374.389 77.2722 375.232L7.01536 334.499L37.3199 316.929ZM78.5008 379.368C78.5555 379.33 78.6085 379.29 78.6597 379.247C78.7086 379.211 78.7596 379.176 78.8129 379.14C79.7381 378.524 81.1359 378.076 82.7837 378.076C84.4315 378.076 85.8294 378.524 86.7546 379.14C87.6944 379.766 87.9517 380.403 87.9517 380.826C87.9517 381.249 87.6944 381.885 86.7546 382.511C85.8294 383.127 84.4315 383.576 82.7837 383.576C81.1359 383.576 79.7381 383.127 78.8129 382.511C77.8731 381.885 77.6157 381.249 77.6157 380.826C77.6157 380.454 77.8146 379.917 78.5008 379.368Z" fill="url(#technology-paint6_linear)"/>
<path d="M398.405 132.785C428.421 132.785 453.03 148.203 455.353 167.798C455.472 166.797 455.534 165.785 455.534 164.763C455.534 143.748 429.956 126.715 398.405 126.715C366.855 126.715 341.277 143.748 341.277 164.763C341.277 165.785 341.338 166.797 341.458 167.798C343.779 148.203 368.387 132.785 398.405 132.785Z" fill="#FF5C74"/>
<path opacity="0.8" d="M454.2 164.306C452.565 186.16 432.647 200.783 398.419 201.686C366.241 201.686 344.304 186.944 342.671 165.089H342.637V2.99459H398.405H454.108V161.633L454.2 164.306Z" fill="url(#technology-paint7_linear)"/>
<path opacity="0.3" d="M419.399 87.9171C419.399 89.2465 418.934 90.1954 418.158 90.6999C417.144 91.3591 415.599 91.2567 413.868 90.2487L399.476 81.8946C396.423 80.1155 393.947 76.1867 393.947 73.1195V47.0046C393.947 45.6375 394.439 44.6719 395.256 44.18C396.269 43.5683 397.784 43.6875 399.476 44.673L413.868 53.0271C416.923 54.8067 419.399 58.7355 419.399 61.8016V87.9171Z" fill="white"/>
<path opacity="0.5" d="M417.124 51.1587L402.732 42.804C400.933 41.7563 399.335 41.6878 398.325 42.4344L398.316 42.4234L395.255 44.18C394.439 44.6719 393.946 45.6375 393.946 47.0046V73.119C393.946 76.1862 396.422 80.115 399.476 81.894L413.868 90.2482C415.598 91.2567 417.143 91.3586 418.158 90.6994L421.212 88.9465C422.107 88.4807 422.653 87.4868 422.653 86.0465V59.9316C422.654 56.8665 420.178 52.9377 417.124 51.1587Z" fill="white"/>
<path opacity="0.6" d="M448.233 67.0954C448.196 58.6403 445.626 52.4505 441.724 47.9399L441.722 47.9409C433.211 41.8373 423.629 50.375 420.227 53.9222C420.624 54.4251 420.982 54.9578 421.297 55.5041C425.474 51.6642 435.049 44.0843 440.776 49.2369C445.143 53.1662 446.363 59.2421 446.607 67.1895C446.809 73.7584 445.863 81.2008 442.934 87.0953C440.656 91.6806 434.003 98.6155 426.667 95.8468C423.379 94.6046 422.585 90.4589 422.48 87.3112C422.253 88.0771 421.815 88.6338 421.213 88.947L420.641 89.2748C421.076 93.9208 423.373 99.9836 432.647 98.7237V98.7279C447.747 92.7435 448.268 75.516 448.233 67.0954Z" fill="white"/>
<g opacity="0.5">
<path opacity="0.6" d="M420.642 89.2753L418.158 90.7004C417.144 91.3597 415.599 91.2572 413.868 90.2493L399.476 81.8951C398.172 81.1349 396.974 79.9806 396.028 78.67C397.019 82.4111 400.201 89.1456 404.923 91.9389C408.088 93.8105 420.839 102.159 429.963 99.6271C430.906 99.3651 431.798 99.0614 432.647 98.7247C423.374 99.9841 421.077 93.9213 420.642 89.2753Z" fill="white"/>
</g>
<g opacity="0.5">
<path opacity="0.5" d="M426.667 95.8473C434.003 98.616 440.656 91.6812 442.934 87.0958C445.863 81.2013 446.808 73.7589 446.607 67.19C446.363 59.2426 445.143 53.1667 440.776 49.2374C437.936 46.6826 434.15 47.2602 430.546 48.9583C433.404 52.7454 435.402 58.2561 435.316 67.0102C435.254 73.1859 434.781 86.1945 425.587 89.9826C424.869 90.2785 423.931 90.3914 422.821 90.358C423.301 92.7173 424.381 94.9841 426.667 95.8473Z" fill="white"/>
</g>
<g opacity="0.5">
<path opacity="0.5" d="M441.722 47.9409C435.559 40.8179 426.076 37.8856 418.014 36.8437C409.866 35.7908 404.14 39.2652 400.956 42.0679C401.514 42.2028 402.11 42.4406 402.732 42.8029L417.124 51.1576C418.274 51.8279 419.342 52.8029 420.227 53.9216C423.629 50.3755 433.211 41.8379 441.722 47.9409Z" fill="white"/>
</g>
<path fill-rule="evenodd" clip-rule="evenodd" d="M405.599 54.7251C405.595 54.7879 405.591 54.8501 405.591 54.9144C405.586 57.2021 405.581 59.4898 405.577 61.7781C405.577 61.8476 405.577 61.9171 405.577 61.9971C406.186 62.3558 406.497 62.9246 406.637 63.5326C406.779 64.1495 406.877 64.7601 406.938 65.3493C407.082 66.7545 407.094 68.0944 407.008 69.3805C406.938 70.4323 406.866 71.4847 406.602 72.4054C406.541 72.6181 406.429 72.7959 406.308 72.9522C406.153 73.1524 405.883 73.1116 405.563 72.9579C405.563 73.0332 405.563 73.0965 405.563 73.1597C405.562 75.3957 405.56 77.6332 405.56 79.8703C405.56 79.9398 405.575 80.0161 405.584 80.0898C405.594 80.0961 405.607 80.1019 405.618 80.1081C406.223 80.334 406.752 80.3403 407.235 80.2195C408.118 79.9989 408.759 79.4421 409.269 78.7076C410.102 77.5073 410.521 75.9551 410.77 74.2592C410.963 72.9302 411.026 71.5218 411.011 70.0674C410.991 68.0019 410.824 65.8752 410.331 63.6141C409.958 61.9025 409.417 60.1762 408.508 58.4291C407.904 57.2664 407.181 56.1816 406.239 55.2625C406.064 55.0926 405.88 54.94 405.7 54.7795C405.667 54.7612 405.632 54.7434 405.599 54.7251Z" fill="white"/>
<path fill-rule="evenodd" clip-rule="evenodd" d="M402.957 53.3079C402.934 53.3084 402.91 53.3126 402.885 53.3089C402.54 53.2608 402.357 53.4198 402.356 53.8019C402.352 55.6777 402.348 57.554 402.352 59.4339C402.352 59.9551 402.672 60.4445 403.174 60.7163C403.789 61.0483 404.403 61.3766 405.045 61.7206C405.045 61.6364 405.045 61.5627 405.045 61.4895C405.046 59.2128 405.047 56.936 405.049 54.6593C405.049 54.583 405.055 54.5098 405.057 54.435C404.357 54.0596 403.657 53.6838 402.957 53.3079Z" fill="white"/>
<path fill-rule="evenodd" clip-rule="evenodd" d="M405.043 79.7987C405.039 79.7213 405.035 79.6429 405.035 79.5671C405.036 77.3499 405.037 75.1323 405.038 72.9146C405.038 72.8398 405.038 72.7656 405.039 72.6856C404.325 72.3024 403.626 71.9019 402.931 71.5653C402.581 71.3954 402.348 71.6369 402.346 72.0426C402.342 72.8262 402.343 73.6135 402.342 74.3993C402.341 75.367 402.352 76.3415 402.333 77.2992C402.324 77.7933 402.463 78.2402 402.942 78.6721C403.642 79.0474 404.342 79.4233 405.043 79.7987Z" fill="white"/>
<path opacity="0.5" d="M370.063 157.922C373.778 158.73 377.223 157.379 377.756 154.904C378.29 152.43 375.71 149.769 371.994 148.962C368.279 148.154 364.834 149.505 364.3 151.979C363.767 154.453 366.347 157.114 370.063 157.922Z" fill="white"/>
<path opacity="0.5" d="M380.844 151.813C382.162 147.753 386.009 138.562 386.009 138.562L386.088 138.508C386.986 134.343 382.644 129.866 376.391 128.506C370.139 127.147 364.343 129.421 363.444 133.586L363.494 133.667C363.494 133.667 363.21 143.633 362.739 147.877C362.021 151.208 365.491 154.788 370.492 155.875C375.492 156.962 380.126 155.144 380.844 151.813Z" fill="white"/>
<path d="M379.7 136.795C379.7 136.795 379.66 136.417 379.672 135.716C379.684 135.015 379.747 133.98 380.033 132.696C380.311 131.415 380.837 129.874 381.835 128.321C382.856 126.789 384.277 125.276 385.879 123.723C386.671 122.941 387.515 122.142 388.233 121.226C388.581 120.763 388.885 120.265 389.063 119.728C389.158 119.469 389.195 119.165 389.218 118.922L389.211 118.45C389.184 118.319 389.172 118.188 389.144 118.055C389.012 117.513 388.691 117.034 388.225 116.766C387.758 116.503 387.171 116.454 386.644 116.656C386.378 116.744 386.136 116.904 385.914 117.089C385.815 117.197 385.697 117.283 385.608 117.405C385.5 117.536 385.384 117.67 385.301 117.795C384.93 118.304 384.59 118.904 384.256 119.508C383.915 120.115 383.587 120.751 383.101 121.367C382.848 121.667 382.553 121.985 382.094 122.179C381.974 122.217 381.851 122.251 381.729 122.28C381.603 122.288 381.473 122.29 381.346 122.288C381.313 122.284 381.354 122.296 381.26 122.278L381.227 122.272L381.162 122.259C381.134 122.258 381.035 122.226 380.955 122.193C380.788 122.124 380.675 122.044 380.567 121.934C380.147 121.483 380.122 120.995 380.093 120.59C380.083 120.176 380.128 119.787 380.191 119.406C380.321 118.647 380.531 117.922 380.779 117.207C380.903 116.85 381.039 116.497 381.189 116.146C381.263 115.971 381.342 115.795 381.426 115.62L381.673 115.124C381.849 114.773 381.954 114.503 382.055 114.177C382.104 114.017 382.153 113.857 382.18 113.693C382.219 113.531 382.243 113.369 382.255 113.206C382.329 112.557 382.223 111.913 381.936 111.406C381.643 110.903 381.166 110.555 380.58 110.433L380.472 110.406L380.445 110.4C380.519 110.41 380.446 110.4 380.453 110.402L380.384 110.394L380.107 110.366C379.946 110.371 379.855 110.367 379.706 110.392C379.418 110.423 379.156 110.542 378.906 110.677C378.417 110.981 378.025 111.47 377.792 112.056C377.551 112.637 377.443 113.291 377.449 113.95C377.452 114.284 377.489 114.585 377.508 115.027C377.525 115.42 377.523 115.803 377.508 116.186C377.479 116.952 377.407 117.71 377.262 118.476C377.187 118.858 377.099 119.244 376.96 119.635C376.812 120.026 376.659 120.428 376.295 120.843C376.113 121.045 375.858 121.257 375.506 121.367C375.329 121.421 375.149 121.439 374.969 121.433C374.885 121.425 374.802 121.413 374.719 121.399C374.79 121.423 374.549 121.353 374.565 121.355L374.533 121.344L374.471 121.32C374.379 121.279 374.341 121.288 374.145 121.165C373.994 121.069 373.808 120.937 373.738 120.837C373.533 120.62 373.413 120.397 373.302 120.175C372.948 119.311 372.899 118.574 372.812 117.869C372.744 117.166 372.687 116.499 372.571 115.881L372.473 115.432L372.41 115.221L372.379 115.116L372.371 115.09C372.348 115.031 372.393 115.141 372.384 115.119L372.358 115.06C372.294 114.917 372.217 114.707 372.17 114.671L372.097 114.554L371.985 114.427C371.691 114.087 371.254 113.924 370.828 113.939C370.404 113.965 369.975 114.148 369.659 114.507C369.499 114.681 369.358 114.886 369.246 115.113L369.167 115.287L369.126 115.373C369.131 115.357 369.101 115.442 369.134 115.342L369.126 115.37L369.108 115.426C369.068 115.572 369.012 115.736 368.984 115.864C368.976 115.971 368.963 116.076 368.945 116.181L368.943 116.56C368.961 116.818 368.981 117.08 369.046 117.347C369.257 118.416 369.725 119.485 370.133 120.515C370.99 122.577 371.686 124.58 371.986 126.419C372.271 128.316 372.068 129.945 371.753 131.236C371.443 132.529 371.052 133.493 370.749 134.13C370.446 134.767 370.243 135.087 370.243 135.087C370.22 135.123 370.172 135.135 370.136 135.112C370.102 135.09 370.09 135.046 370.107 135.011C370.107 135.011 370.269 134.679 370.495 134.025C370.717 133.371 371.03 132.4 371.212 131.131C371.312 130.499 371.363 129.792 371.361 129.029C371.376 128.26 371.28 127.45 371.111 126.604C370.727 124.87 369.923 123.034 368.987 121.014C368.534 119.99 367.999 118.938 367.679 117.651C367.594 117.336 367.549 116.988 367.517 116.639C367.512 116.459 367.503 116.283 367.506 116.097C367.525 115.896 367.549 115.693 367.578 115.491C367.612 115.316 367.656 115.183 367.695 115.026L367.71 114.969L367.717 114.941C367.755 114.821 367.736 114.889 367.748 114.854L367.802 114.726L367.912 114.467C368.068 114.126 368.276 113.792 368.539 113.489C369.054 112.875 369.865 112.427 370.747 112.37C371.62 112.317 372.545 112.673 373.144 113.34L373.363 113.592C373.434 113.689 373.499 113.796 373.563 113.9C373.715 114.138 373.743 114.256 373.821 114.419L373.846 114.477C373.845 114.475 373.896 114.605 373.88 114.566L373.891 114.601L373.933 114.74L374.019 115.019C374.061 115.201 374.108 115.387 374.146 115.57C374.29 116.3 374.354 117.014 374.43 117.698C374.495 118.376 374.574 119.064 374.759 119.518C374.809 119.612 374.856 119.704 374.899 119.746C374.928 119.797 374.91 119.743 374.895 119.761C374.832 119.761 374.974 119.81 375.044 119.838L375.106 119.863L375.138 119.875C375.174 119.888 374.955 119.817 375.049 119.845C375.053 119.844 375.057 119.846 375.061 119.85C375.06 119.846 375.057 119.851 375.053 119.853C375.044 119.857 375.081 119.843 375.139 119.781C375.26 119.661 375.398 119.386 375.503 119.106C375.609 118.817 375.696 118.497 375.768 118.168C375.91 117.509 375.996 116.812 376.039 116.113C376.061 115.764 376.072 115.413 376.065 115.07C376.064 114.776 376.025 114.343 376.032 113.938C376.048 113.123 376.198 112.29 376.545 111.509C376.881 110.728 377.46 110.002 378.25 109.543C378.651 109.331 379.087 109.162 379.541 109.119C379.757 109.086 380.041 109.095 380.248 109.105L380.524 109.14L380.593 109.149L380.67 109.16L380.71 109.171L380.872 109.212C381.738 109.404 382.558 110.01 382.987 110.812C383.417 111.614 383.515 112.512 383.411 113.331C383.39 113.538 383.356 113.741 383.305 113.94C383.266 114.142 383.203 114.335 383.141 114.527C383.02 114.906 382.836 115.32 382.674 115.624L382.419 116.113C382.342 116.268 382.265 116.427 382.193 116.588C382.048 116.911 381.913 117.241 381.79 117.573C381.544 118.238 381.335 118.917 381.207 119.588C381.145 119.922 381.103 120.256 381.105 120.565C381.104 120.868 381.18 121.156 381.269 121.232C381.274 121.289 381.566 121.364 381.745 121.273C381.95 121.195 382.173 120.994 382.374 120.759C382.779 120.27 383.121 119.66 383.47 119.058C383.824 118.45 384.175 117.848 384.623 117.258C384.736 117.101 384.847 116.979 384.958 116.849C385.075 116.699 385.232 116.577 385.369 116.443C385.669 116.2 386.003 115.991 386.376 115.873C386.74 115.733 387.139 115.708 387.526 115.728C387.913 115.768 388.289 115.889 388.625 116.085C389.294 116.486 389.718 117.193 389.863 117.893C389.898 118.073 389.914 118.262 389.935 118.444L389.93 118.922C389.894 119.306 389.834 119.624 389.715 119.951C389.484 120.589 389.122 121.136 388.735 121.622C387.943 122.58 387.07 123.359 386.258 124.121C384.621 125.626 383.189 127.075 382.159 128.538C381.153 130.014 380.598 131.506 380.292 132.756C379.977 134.01 379.888 135.03 379.857 135.722C379.828 136.417 379.857 136.783 379.857 136.783C379.861 136.826 379.829 136.864 379.786 136.867C379.742 136.871 379.704 136.837 379.7 136.795Z" fill="white"/>
<path opacity="0.5" d="M363.494 133.667C363.494 133.667 363.226 131.029 361.205 122.075C360.69 119.794 360.054 116.295 360.823 112.726C362.99 102.675 372.859 96.2911 382.868 98.468C392.877 100.643 399.233 110.554 397.066 120.605C396.297 124.174 394.278 127.095 392.869 128.959C387.341 136.271 386.01 138.562 386.01 138.562L386.088 138.508C385.19 142.673 379.393 144.946 373.141 143.587C366.888 142.228 362.546 137.75 363.444 133.586L363.494 133.667Z" fill="white"/>
<path d="M348.528 42.0297V108.424" stroke="white" stroke-width="1.56411" stroke-miterlimit="10" stroke-linecap="round" stroke-linejoin="round"/>
<path d="M364.839 61.5471V95.703" stroke="white" stroke-width="1.56411" stroke-miterlimit="10" stroke-linecap="round" stroke-linejoin="round"/>
<path d="M406.142 105.672V138.258" stroke="white" stroke-width="1.56411" stroke-miterlimit="10" stroke-linecap="round" stroke-linejoin="round"/>
<path d="M406.142 19.9142V33.1585" stroke="white" stroke-width="1.56411" stroke-miterlimit="10" stroke-linecap="round" stroke-linejoin="round"/>
<path d="M444.667 20.6228V45.6932" stroke="white" stroke-width="1.56411" stroke-miterlimit="10" stroke-linecap="round" stroke-linejoin="round"/>
<path d="M432.647 117.05V151.814" stroke="white" stroke-width="1.56411" stroke-miterlimit="10" stroke-linecap="round" stroke-linejoin="round"/>
<path d="M447.999 145.865C451.977 151.046 454.226 156.928 454.226 163.166C454.226 183.97 429.234 200.831 398.405 200.831C367.576 200.831 342.583 183.97 342.583 163.166C342.583 156.928 344.833 151.044 348.811 145.864C344.018 151.431 341.275 157.884 341.275 164.763C341.275 185.778 366.854 202.811 398.404 202.811C429.955 202.811 455.533 185.778 455.533 164.763C455.534 157.885 452.792 151.433 447.999 145.865Z" fill="#FF6074"/>
<path d="M398.405 178.194C358.988 178.194 326.919 156.718 326.919 130.32C326.919 103.922 358.988 82.4461 398.405 82.4461C437.823 82.4461 469.891 103.922 469.891 130.32C469.891 156.718 437.823 178.194 398.405 178.194ZM398.405 84.0139C359.848 84.0139 328.481 104.786 328.481 130.32C328.481 155.853 359.848 176.625 398.405 176.625C436.962 176.625 468.33 155.853 468.33 130.32C468.33 104.786 436.961 84.0139 398.405 84.0139Z" fill="url(#technology-paint8_linear)"/>
<path d="M398.405 114.586C358.988 114.586 326.919 93.11 326.919 66.7122C326.919 40.3145 358.988 18.8383 398.405 18.8383C437.823 18.8383 469.891 40.3145 469.891 66.7122C469.891 93.11 437.823 114.586 398.405 114.586ZM398.405 20.4061C359.848 20.4061 328.481 41.1786 328.481 66.7117C328.481 92.2447 359.848 113.017 398.405 113.017C436.962 113.017 468.33 92.2447 468.33 66.7117C468.33 41.1786 436.961 20.4061 398.405 20.4061Z" fill="url(#technology-paint9_linear)"/>
<path d="M376.12 63.6393C377.271 63.6393 378.203 62.7025 378.203 61.547C378.203 60.3916 377.271 59.4548 376.12 59.4548C374.969 59.4548 374.036 60.3916 374.036 61.547C374.036 62.7025 374.969 63.6393 376.12 63.6393Z" fill="white"/>
<path d="M366.923 45.4002C368.074 45.4002 369.006 44.4634 369.006 43.308C369.006 42.1525 368.074 41.2158 366.923 41.2158C365.772 41.2158 364.839 42.1525 364.839 43.308C364.839 44.4634 365.772 45.4002 366.923 45.4002Z" fill="white"/>
<path d="M371.953 85.185C373.104 85.185 374.037 84.2483 374.037 83.0928C374.037 81.9373 373.104 81.0006 371.953 81.0006C370.802 81.0006 369.87 81.9373 369.87 83.0928C369.87 84.2483 370.802 85.185 371.953 85.185Z" fill="white"/>
<path d="M436.638 38.0947C437.789 38.0947 438.721 37.158 438.721 36.0025C438.721 34.847 437.789 33.9103 436.638 33.9103C435.487 33.9103 434.554 34.847 434.554 36.0025C434.554 37.158 435.487 38.0947 436.638 38.0947Z" fill="white"/>
<path opacity="0.8" d="M465.923 57.5414C467.074 57.5414 468.007 56.6047 468.007 55.4492C468.007 54.2937 467.074 53.357 465.923 53.357C464.773 53.357 463.84 54.2937 463.84 55.4492C463.84 56.6047 464.773 57.5414 465.923 57.5414Z" fill="#EF3A5D"/>
<path d="M487.001 44.1219C488.152 44.1219 489.085 43.1852 489.085 42.0297C489.085 40.8742 488.152 39.9375 487.001 39.9375C485.851 39.9375 484.918 40.8742 484.918 42.0297C484.918 43.1852 485.851 44.1219 487.001 44.1219Z" fill="#EF3A5D"/>
<path opacity="0.8" d="M325.617 53.357C326.767 53.357 327.7 52.4203 327.7 51.2648C327.7 50.1093 326.767 49.1726 325.617 49.1726C324.466 49.1726 323.533 50.1093 323.533 51.2648C323.533 52.4203 324.466 53.357 325.617 53.357Z" fill="#EF3A5D"/>
<path d="M306.62 231.192C306.62 231.192 305.577 233.981 304.362 235.811C303.147 237.64 300.023 241.648 302.193 242.781C304.362 243.914 312.778 239.205 312.866 236.331C312.952 233.458 312.866 230.67 312.866 230.67L306.62 231.192Z" fill="#050B4A"/>
<path d="M319.512 234.59C319.512 234.59 318.469 237.379 317.253 239.209C316.038 241.039 312.915 245.046 315.084 246.179C317.253 247.312 325.67 242.603 325.756 239.73C325.844 236.856 325.756 234.068 325.756 234.068L319.512 234.59Z" fill="#050B4A"/>
<path d="M321.022 180.177C321.022 180.177 307.709 190.67 306.621 195.03C305.533 199.389 305.143 231.41 305.143 231.41C305.143 231.41 308.397 233.894 313.082 232.325L315.087 208.288L332.539 187.871L321.022 180.177Z" fill="#2D32A4"/>
<path d="M337.395 178.164C337.395 178.164 314.514 194.684 314.34 200.609C314.167 206.534 319.373 231.977 319.373 235.113C319.373 235.113 321.172 237.328 325.826 235.785C325.826 235.785 326.721 205.797 326.721 205.274C326.721 205.274 344.166 194.688 348.169 192.07C348.169 192.07 348.169 186.712 345.897 183.093C343.677 179.553 337.395 178.164 337.395 178.164Z" fill="#383FB9"/>
<path d="M328.397 140.227C328.397 140.227 324.318 142.991 321.542 152.588C318.765 162.184 316.857 168.806 316.857 168.806L324.347 171.333L328.397 140.227Z" fill="url(#technology-paint10_linear)"/>
<path d="M344.098 140.984C344.098 140.984 335.745 135.989 328.397 140.227C324.975 142.199 324.461 165.756 324.347 171.333C324.347 171.333 345.814 183.444 348.169 192.07C348.169 192.07 353.64 189.375 350.997 174.865L350.682 145.862C350.682 145.862 350.428 144.181 344.098 140.984Z" fill="url(#technology-paint11_linear)"/>
<path d="M332.898 193.469C332.898 193.469 347.741 183.969 347.928 183.295L328.18 173.362L332.898 193.469Z" fill="url(#technology-paint12_radial)"/>
<path d="M334.268 178.887C334.268 178.887 330.637 180.308 330.341 181.353L332.304 185.702L337.395 182.75C337.395 182.75 337.087 180.649 336.705 180.177C336.306 179.683 334.268 178.887 334.268 178.887Z" fill="#FCB4B4"/>
<path d="M333.093 194.292L311.39 185.34L306.62 162.925L307.323 162.337L331.954 172.335L333.794 193.704L333.093 194.292Z" fill="#3A4799"/>
<path d="M332.898 193.469C332.898 193.469 347.741 183.969 347.928 183.295V184.27C347.741 184.944 333.093 194.292 333.093 194.292L332.898 193.469Z" fill="#4252CA"/>
<path d="M333.093 194.292L311.39 185.339L306.62 162.925L331.252 172.923L333.093 194.292Z" fill="#4353CC"/>
<path d="M334.991 138.746C334.991 138.746 334.605 143.8 334.991 145.281C335.334 146.598 341.585 149.202 344.362 143.626V137.171L334.991 138.746Z" fill="#FCB4B4"/>
<path d="M350.682 145.862C352.519 148.078 354.084 151.12 354.253 155.126C354.687 165.321 353.3 173.337 350.957 175.515C348.614 177.694 337.395 182.75 337.395 182.75C337.395 182.75 335.338 179.001 333.863 178.739C333.863 178.739 343.148 171.508 345.751 169.416C345.751 169.416 343.06 151.38 347.312 147.257C348.782 145.832 350.682 145.862 350.682 145.862Z" fill="url(#technology-paint13_linear)"/>
<path d="M330.515 125.374C330.515 125.374 329.699 135.784 331.607 138.049C333.517 140.314 339.417 142.493 345.057 138.049C345.057 138.049 350.697 131.079 346.792 127.244C342.888 123.41 330.515 125.374 330.515 125.374Z" fill="#FCB4B4"/>
<path d="M328.397 118.706C328.397 118.706 328.397 126.709 333.603 126.715C338.809 126.722 342.725 126.069 342.453 129.859C342.453 129.859 345.056 127.865 346.686 130.705C347.859 132.747 345.774 134.216 345.23 135.087L345.056 138.049C345.056 138.049 347.171 136.67 348.18 133.866C350.038 128.699 350.289 121.926 346.184 119.403C340.371 115.83 335.946 118.967 328.397 118.706Z" fill="#1B284C"/>
<path d="M370.02 341.285C371.436 341.15 376.305 340.386 376.305 340.386C376.329 339.422 376.305 334.128 376.305 334.128C373.891 333.748 369.816 333.58 369.816 333.58C369.242 332.38 367.706 329.384 367.706 329.384C368.972 328.41 371.223 326.222 371.223 326.222C370.233 325.388 363.861 321.953 363.861 321.953C362.841 322.323 358.348 324.168 358.348 324.168C356.946 323.699 351.731 322.302 351.731 322.302C351.545 321.702 350.814 318.818 350.814 318.818L345.049 318.869L339.284 318.921C339.284 318.921 338.397 321.817 338.181 322.422C338.181 322.422 332.89 323.913 331.463 324.407C331.463 324.407 327.065 322.641 326.066 322.288C326.066 322.288 319.508 325.839 318.475 326.69C318.475 326.69 320.612 328.839 321.829 329.791C321.829 329.791 320.132 332.816 319.494 334.026C319.494 334.026 315.245 334.293 312.812 334.718C312.812 334.718 312.671 339.987 312.645 340.948C312.645 340.948 317.476 341.63 318.887 341.738C318.887 341.738 320.602 344.612 321.614 345.566C321.614 345.566 318.112 348.127 317.488 348.853C317.488 348.853 323.844 352.891 325.247 353.361C325.247 353.361 328.725 351.763 330.56 351.024C330.56 351.024 336.233 352.625 337.713 352.872C337.713 352.872 338.307 356.014 338.493 356.614L344.056 356.565L349.619 356.514C349.837 355.911 350.596 352.756 350.596 352.756C352.09 352.485 357.851 350.783 357.851 350.783C359.649 351.49 363.044 353.025 363.044 353.025C364.469 352.531 371.043 348.378 371.043 348.378C370.456 347.661 367.087 345.164 367.087 345.164C368.152 344.19 370.02 341.285 370.02 341.285ZM344.387 337.073C340.707 337.106 337.492 336.024 335.617 334.352C337.554 332.549 340.917 331.329 344.722 331.295C348.402 331.262 351.617 332.344 353.492 334.016C351.555 335.819 348.193 337.04 344.387 337.073Z" fill="url(#technology-paint14_radial)"/>
<path d="M367.088 345.164C368.153 344.191 370.02 341.285 370.02 341.285V334.339C370.02 334.339 368.153 337.244 367.088 338.218V345.164Z" fill="#DFDFFB"/>
<path d="M337.714 345.926C337.714 345.926 338.308 349.068 338.493 349.668V356.614C338.308 356.014 337.714 352.872 337.714 352.872V345.926Z" fill="#EFEFFE"/>
<path d="M338.494 349.668L344.057 349.619L349.62 349.569V356.515L344.057 356.565L338.494 356.614V349.668Z" fill="#DFDFFB"/>
<path d="M349.62 349.569C349.837 348.964 350.596 345.811 350.596 345.811V352.756C350.596 352.756 349.837 355.911 349.62 356.514V349.569Z" fill="#EFEFFE"/>
<path d="M350.597 345.811C352.091 345.539 357.851 343.837 357.851 343.837V350.783C357.851 350.783 352.091 352.485 350.597 352.756V345.811Z" fill="#DFDFFB"/>
<path d="M357.851 343.837C359.649 344.545 363.044 346.08 363.044 346.08V353.025C363.044 353.025 359.649 351.49 357.851 350.783V343.837Z" fill="#EFEFFE"/>
<path d="M363.044 346.08C364.469 345.585 371.043 341.433 371.043 341.433V348.378C371.043 348.378 364.469 352.531 363.044 353.025V346.08Z" fill="#DFDFFB"/>
<path d="M370.02 334.339C371.437 334.205 376.305 333.441 376.305 333.441V340.386C376.305 340.386 371.436 341.15 370.02 341.285V334.339Z" fill="#EFEFFE"/>
<path d="M367.707 322.439C368.973 321.465 371.223 319.277 371.223 319.277V326.222C371.223 326.222 368.973 328.41 367.707 329.384V322.439Z" fill="#EFEFFE"/>
<path d="M330.56 344.078C330.56 344.078 336.234 345.679 337.713 345.926V352.872C336.234 352.625 330.56 351.024 330.56 351.024V344.078Z" fill="#DFDFFB"/>
<path d="M325.247 346.415C325.247 346.415 328.725 344.817 330.56 344.078V351.024C328.725 351.763 325.247 353.361 325.247 353.361V346.415Z" fill="#EFEFFE"/>
<path d="M325.247 353.361C323.844 352.891 317.488 348.852 317.488 348.852V341.906C317.488 341.906 323.844 345.944 325.247 346.415V353.361Z" fill="#DFDFFB"/>
<path d="M318.888 334.791C317.476 334.683 312.645 334.003 312.645 334.003V340.948C312.645 340.948 317.476 341.629 318.888 341.737V334.791Z" fill="#EFEFFE"/>
<path d="M321.615 338.62C320.603 337.665 318.888 334.791 318.888 334.791V341.737C318.888 341.737 320.603 344.611 321.615 345.565V338.62Z" fill="#DFDFFB"/>
<path d="M321.829 322.845C320.612 321.893 318.476 319.744 318.476 319.744V326.689C318.476 326.689 320.612 328.838 321.829 329.79V322.845Z" fill="#EFEFFE"/>
<path d="M370.02 334.339C371.437 334.205 376.305 333.441 376.305 333.441C376.329 332.476 376.305 327.182 376.305 327.182C373.891 326.801 369.816 326.634 369.816 326.634C369.242 325.434 367.706 322.439 367.706 322.439C368.973 321.465 371.223 319.277 371.223 319.277C370.233 318.442 363.861 315.008 363.861 315.008C362.841 315.378 358.348 317.223 358.348 317.223C356.946 316.754 351.731 315.355 351.731 315.355C351.545 314.756 350.814 311.872 350.814 311.872L345.049 311.924L339.284 311.975C339.284 311.975 338.398 314.872 338.181 315.477C338.181 315.477 332.891 316.967 331.463 317.462C331.463 317.462 327.065 315.696 326.066 315.342C326.066 315.342 319.508 318.893 318.475 319.744C318.475 319.744 320.612 321.893 321.829 322.845C321.829 322.845 320.132 325.871 319.494 327.079C319.494 327.079 315.245 327.348 312.812 327.772C312.812 327.772 312.671 333.041 312.645 334.003C312.645 334.003 317.476 334.684 318.887 334.792C318.887 334.792 320.603 337.666 321.614 338.62C321.614 338.62 318.112 341.181 317.488 341.907C317.488 341.907 323.844 345.945 325.247 346.415C325.247 346.415 328.725 344.818 330.56 344.078C330.56 344.078 336.233 345.68 337.713 345.926C337.713 345.926 338.307 349.068 338.493 349.668L344.056 349.619L349.619 349.569C349.837 348.964 350.597 345.811 350.597 345.811C352.09 345.539 357.851 343.837 357.851 343.837C359.649 344.545 363.044 346.08 363.044 346.08C364.469 345.585 371.043 341.433 371.043 341.433C370.456 340.716 367.087 338.218 367.087 338.218C368.152 337.244 370.02 334.339 370.02 334.339ZM344.387 337.073C340.707 337.106 337.492 336.024 335.617 334.352C337.554 332.549 340.917 331.329 344.722 331.295C348.402 331.262 351.617 332.344 353.492 334.016C351.555 335.819 348.193 337.04 344.387 337.073Z" fill="url(#technology-paint15_radial)"/>
<path d="M344.723 324.349C338.826 324.401 333.974 327.292 333.882 330.805C333.846 332.125 334.49 333.346 335.618 334.353L335.617 334.352C337.555 332.549 340.917 331.329 344.723 331.295C348.403 331.262 351.618 332.344 353.492 334.016C353.476 334.03 353.459 334.049 353.442 334.064C354.536 333.064 355.194 331.882 355.228 330.617C355.32 327.103 350.617 324.296 344.723 324.349Z" fill="url(#technology-paint16_linear)"/>
<path d="M177.3 369.42C178.885 369.27 184.334 368.414 184.334 368.414C184.361 367.335 184.334 361.407 184.334 361.407C181.632 360.981 177.073 360.798 177.073 360.798C176.43 359.456 174.712 356.104 174.712 356.104C176.129 355.014 178.647 352.565 178.647 352.565C177.54 351.631 170.409 347.788 170.409 347.788C169.268 348.202 164.241 350.267 164.241 350.267C162.672 349.742 156.835 348.178 156.835 348.178C156.628 347.506 155.809 344.28 155.809 344.28L149.358 344.336L142.906 344.394C142.906 344.394 141.915 347.635 141.672 348.311C141.672 348.311 135.752 349.98 134.155 350.533C134.155 350.533 129.233 348.557 128.115 348.161C128.115 348.161 120.776 352.135 119.622 353.088C119.622 353.088 122.012 355.492 123.373 356.557C123.373 356.557 121.476 359.943 120.762 361.295C120.762 361.295 116.006 361.595 113.284 362.07C113.284 362.07 113.127 367.966 113.097 369.043C113.097 369.043 118.503 369.805 120.082 369.925C120.082 369.925 122.002 373.141 123.134 374.209C123.134 374.209 119.216 377.075 118.517 377.887C118.517 377.887 125.629 382.406 127.2 382.932C127.2 382.932 131.091 381.144 133.145 380.317C133.145 380.317 139.493 382.109 141.149 382.385C141.149 382.385 141.813 385.901 142.022 386.572L148.247 386.517L154.472 386.462C154.716 385.786 155.566 382.256 155.566 382.256C157.237 381.952 163.684 380.047 163.684 380.047C165.696 380.839 169.494 382.557 169.494 382.557C171.089 382.003 178.445 377.357 178.445 377.357C177.789 376.555 174.019 373.759 174.019 373.759C175.211 372.671 177.3 369.42 177.3 369.42ZM148.541 368.388C141.385 368.452 135.347 365.843 133.009 362.112C135.414 358.185 141.727 355.328 149.069 355.263C156.225 355.2 162.263 357.807 164.601 361.538C162.196 365.466 155.883 368.322 148.541 368.388Z" fill="url(#technology-paint17_linear)"/>
<path d="M174.019 373.76V366.753C175.21 365.664 177.3 362.413 177.3 362.413V369.42C177.3 369.42 175.211 372.671 174.019 373.76Z" fill="#DFDFFB"/>
<path d="M123.374 349.55C122.013 348.484 119.622 346.08 119.622 346.08V353.088C119.622 353.088 122.013 355.492 123.374 356.557V349.55Z" fill="#EFEFFE"/>
<path d="M120.083 369.926V362.919C118.503 362.798 113.098 362.036 113.098 362.036V369.044C113.098 369.043 118.503 369.805 120.083 369.926Z" fill="#EFEFFE"/>
<path d="M127.2 382.933V375.926C125.63 375.399 118.517 370.881 118.517 370.881V377.889C118.517 377.888 125.63 382.407 127.2 382.933Z" fill="#DFDFFB"/>
<path d="M127.2 375.925C127.2 375.925 131.091 374.138 133.145 373.31V380.318C131.091 381.145 127.2 382.933 127.2 382.933V375.925Z" fill="#EFEFFE"/>
<path d="M133.145 373.31C133.145 373.31 139.494 375.102 141.149 375.378V382.386C139.494 382.11 133.145 380.318 133.145 380.318V373.31V373.31Z" fill="#DFDFFB"/>
<path d="M141.149 375.379C141.149 375.379 141.813 378.895 142.022 379.566V386.574C141.814 385.903 141.149 382.386 141.149 382.386V375.379Z" fill="#EFEFFE"/>
<path d="M142.022 379.566L148.247 379.51L154.473 379.455V386.463L148.247 386.518L142.022 386.574V379.566Z" fill="#DFDFFB"/>
<path d="M154.473 379.455C154.716 378.779 155.566 375.249 155.566 375.249V382.257C155.566 382.257 154.716 385.787 154.473 386.462V379.455Z" fill="#EFEFFE"/>
<path d="M155.566 375.249C157.237 374.945 163.684 373.04 163.684 373.04V380.048C163.684 380.048 157.237 381.953 155.566 382.257V375.249Z" fill="#DFDFFB"/>
<path d="M163.684 373.041C165.696 373.832 169.494 375.55 169.494 375.55V382.558C169.494 382.558 165.696 380.84 163.684 380.048V373.041Z" fill="#EFEFFE"/>
<path d="M169.494 375.55C171.089 374.997 178.445 370.35 178.445 370.35V377.358C178.445 377.358 171.089 382.005 169.494 382.558V375.55Z" fill="#DFDFFB"/>
<path d="M177.3 362.413C178.885 362.262 184.334 361.407 184.334 361.407V368.414C184.334 368.414 178.885 369.27 177.3 369.42V362.413Z" fill="#EFEFFE"/>
<path d="M120.083 369.926C120.083 369.926 122.002 373.142 123.134 374.21V367.202C122.002 366.134 120.083 362.919 120.083 362.919V369.926Z" fill="#DFDFFB"/>
<path d="M174.712 349.096C176.13 348.006 178.647 345.557 178.647 345.557V352.564C178.647 352.564 176.13 355.013 174.712 356.103V349.096Z" fill="#EFEFFE"/>
<path d="M177.3 362.413C178.885 362.262 184.334 361.407 184.334 361.407C184.361 360.328 184.334 354.399 184.334 354.399C181.632 353.974 177.073 353.791 177.073 353.791C176.43 352.448 174.712 349.096 174.712 349.096C176.129 348.006 178.647 345.557 178.647 345.557C177.54 344.624 170.409 340.781 170.409 340.781C169.268 341.195 164.241 343.26 164.241 343.26C162.672 342.734 156.835 341.17 156.835 341.17C156.628 340.499 155.809 337.272 155.809 337.272L149.358 337.329L142.907 337.387C142.907 337.387 141.915 340.627 141.672 341.304C141.672 341.304 135.752 342.972 134.155 343.526C134.155 343.526 129.233 341.549 128.115 341.154C128.115 341.154 120.776 345.128 119.622 346.08C119.622 346.08 122.012 348.484 123.373 349.55C123.373 349.55 121.476 352.936 120.762 354.288C120.762 354.288 116.006 354.588 113.284 355.063C113.284 355.063 113.127 360.958 113.097 362.035C113.097 362.035 118.503 362.797 120.082 362.918C120.082 362.918 122.002 366.133 123.134 367.201C123.134 367.201 119.216 370.067 118.517 370.879C118.517 370.879 125.629 375.398 127.2 375.924C127.2 375.924 131.091 374.137 133.145 373.309C133.145 373.309 139.493 375.101 141.149 375.377C141.149 375.377 141.813 378.893 142.023 379.565L148.247 379.509L154.472 379.455C154.716 378.778 155.566 375.249 155.566 375.249C157.237 374.945 163.684 373.04 163.684 373.04C165.696 373.831 169.494 375.549 169.494 375.549C171.089 374.996 178.445 370.349 178.445 370.349C177.789 369.547 174.019 366.752 174.019 366.752C175.211 365.664 177.3 362.413 177.3 362.413ZM148.541 368.388C141.385 368.452 135.347 365.843 133.009 362.113C135.414 358.185 141.727 355.328 149.07 355.263C156.225 355.2 162.263 357.807 164.601 361.539C162.196 365.466 155.883 368.322 148.541 368.388Z" fill="url(#technology-paint18_radial)"/>
<path d="M133.009 362.113C135.414 358.185 141.727 355.328 149.069 355.264C156.225 355.2 162.263 357.808 164.601 361.539C164.56 361.606 164.516 361.675 164.473 361.744C165.194 360.639 165.607 359.446 165.64 358.204C165.785 352.66 158.367 348.236 149.069 348.318C139.77 348.399 132.116 352.96 131.969 358.502C131.933 359.895 132.374 361.216 133.203 362.415C133.136 362.312 133.07 362.211 133.009 362.113Z" fill="url(#technology-paint19_linear)"/>
<path opacity="0.5" d="M217.496 268.176C222.47 271.062 222.854 275.472 218.353 278.026L162.719 310.281C158.22 312.836 150.539 312.568 145.563 309.683L88.0008 276.299C83.0258 273.413 82.6406 269.004 87.1402 266.448L142.775 234.194C147.275 231.639 154.956 231.907 159.932 234.792L217.496 268.176Z" fill="#EBEBFA"/>
<path d="M84.004 41.2158V258.344C83.9447 260.274 85.2926 262.297 88.0008 263.867L145.563 297.252C150.539 300.136 158.221 300.404 162.719 297.85L218.353 265.595C220.446 264.407 221.482 262.818 221.492 261.168L221.49 261.168V41.2158" fill="url(#technology-paint20_linear)"/>
<path d="M217.496 35.8932C222.47 38.7796 222.854 43.1893 218.353 45.7442L162.719 77.9987C158.22 80.5536 150.539 80.2854 145.563 77.4006L88.0008 44.0169C83.0258 41.1316 82.6406 36.7218 87.1402 34.1665L142.775 1.91137C147.275 -0.643503 154.956 -0.375312 159.932 2.50996L217.496 35.8932Z" fill="url(#technology-paint21_linear)"/>
<path d="M210.826 94.5842C211.775 94.0342 212.543 94.6271 212.543 95.9069L212.542 110.002C212.543 111.282 211.773 112.765 210.825 113.316L165.081 139.835C164.132 140.385 163.363 139.794 163.363 138.514V124.419C163.363 123.138 164.132 121.654 165.082 121.104L210.826 94.5842Z" fill="url(#technology-paint22_linear)"/>
<path d="M174.892 124.013C174.892 125.319 174.068 126.855 173.051 127.444L167.947 130.398C166.931 130.987 166.107 130.405 166.107 129.099C166.107 127.792 166.931 126.256 167.947 125.668L173.051 122.714C174.068 122.125 174.893 122.707 174.892 124.013Z" fill="url(#technology-paint23_linear)"/>
<path opacity="0.5" d="M185.725 117.738C185.725 119.043 184.9 120.58 183.883 121.169L178.779 124.123C177.764 124.712 176.939 124.13 176.939 122.824C176.939 121.517 177.764 119.981 178.779 119.393L183.883 116.439C184.9 115.85 185.725 116.432 185.725 117.738Z" fill="url(#technology-paint24_linear)"/>
<path d="M197.536 110.84C197.536 112.123 198.571 112.563 199.849 111.824C201.126 111.083 202.162 109.443 202.162 108.161C202.162 106.878 201.126 106.437 199.849 107.177C198.571 107.916 197.536 109.557 197.536 110.84Z" fill="#FB6340"/>
<path d="M191.222 114.501C191.222 115.784 192.257 116.225 193.535 115.485C194.812 114.744 195.848 113.104 195.848 111.821C195.848 110.538 194.812 110.098 193.535 110.838C192.257 111.578 191.222 113.219 191.222 114.501Z" fill="#11CDEF"/>
<path d="M203.85 107.179C203.85 108.462 204.886 108.902 206.163 108.163C207.441 107.422 208.476 105.782 208.476 104.499C208.476 103.217 207.441 102.776 206.163 103.516C204.886 104.255 203.85 105.896 203.85 107.179Z" fill="#11CDEF"/>
<path d="M210.826 68.3438C211.775 67.7939 212.543 68.3867 212.543 69.6665L212.542 83.762C212.543 85.0412 211.773 86.5244 210.825 87.0754L165.081 113.594C164.132 114.145 163.363 113.554 163.363 112.273V98.1784C163.363 96.8981 164.132 95.4139 165.082 94.8639L210.826 68.3438Z" fill="url(#technology-paint25_linear)"/>
<path d="M184.857 90.0726C184.857 91.378 184.033 92.9144 183.016 93.5036L167.947 102.225C166.931 102.813 166.107 102.232 166.107 100.926C166.107 99.6192 166.931 98.0833 167.947 97.4951L183.016 88.7734C184.033 88.1848 184.857 88.7661 184.857 90.0726Z" fill="url(#technology-paint26_linear)"/>
<path d="M197.536 82.6672C197.536 83.9502 198.571 84.3903 199.849 83.6511C201.126 82.9098 202.162 81.2703 202.162 79.9874C202.162 78.7045 201.126 78.2638 199.849 79.0035C198.571 79.7433 197.536 81.3843 197.536 82.6672Z" fill="#FB6340"/>
<path d="M203.85 79.0067C203.85 80.2896 204.886 80.7298 206.163 79.99C207.441 79.2492 208.476 77.6092 208.476 76.3263C208.476 75.0434 207.441 74.6027 206.163 75.3429C204.886 76.0822 203.85 77.7232 203.85 79.0067Z" fill="#2DCE89"/>
<path d="M88.9014 130.277L84.004 127.447V258.345C83.9447 260.274 85.2926 262.297 88.0008 263.868L103.146 272.652V152.811C103.146 144.912 96.7689 134.823 88.9014 130.277Z" fill="url(#technology-paint27_linear)"/>
<path d="M96.9157 261.805C96.9157 262.732 96.1671 263.051 95.2446 262.517C94.322 261.984 93.5739 260.801 93.5739 259.874V243.637C93.5739 242.71 94.322 242.391 95.2446 242.924C96.1671 243.458 96.9157 244.641 96.9157 245.569V261.805Z" fill="url(#technology-paint28_linear)"/>
<path opacity="0.5" d="M96.9157 233.045C96.9157 233.971 96.1671 234.29 95.2446 233.757C94.322 233.223 93.5739 232.04 93.5739 231.113V214.876C93.5739 213.949 94.322 213.63 95.2446 214.163C96.1671 214.697 96.9157 215.88 96.9157 216.808V233.045Z" fill="url(#technology-paint29_linear)"/>
<path d="M93.424 192.448C93.424 194.073 92.112 194.631 90.494 193.693C88.8749 192.755 87.5624 190.677 87.5624 189.052V158.916C87.5624 157.292 88.8749 156.733 90.494 157.67C92.112 158.608 93.424 160.687 93.424 162.313V192.448Z" fill="#11CDEF"/>
<path d="M141.872 280.68C141.872 281.683 141.062 282.028 140.063 281.451L129.07 275.098C128.071 274.521 127.262 273.24 127.262 272.238V99.1325C127.262 98.1303 128.071 97.7853 129.07 98.3619L140.063 104.715C141.062 105.292 141.872 106.573 141.872 107.575V280.68Z" fill="url(#technology-paint30_linear)"/>
<path d="M136.237 172.794C136.237 173.72 135.489 174.039 134.566 173.506C133.644 172.972 132.896 171.789 132.896 170.862V110.522C132.896 109.595 133.644 109.276 134.566 109.809C135.489 110.343 136.237 111.526 136.237 112.454V172.794Z" fill="#11CDEF"/>
<path d="M137.317 202.579C137.317 204.298 135.929 204.889 134.217 203.897C132.504 202.905 131.116 200.707 131.116 198.987C131.116 197.268 132.504 196.678 134.217 197.67C135.929 198.662 137.317 200.86 137.317 202.579Z" fill="#FB6340"/>
<path d="M137.317 224.6C137.317 226.319 135.929 226.91 134.217 225.918C132.504 224.926 131.116 222.728 131.116 221.008C131.116 219.289 132.504 218.699 134.217 219.691C135.929 220.683 137.317 222.881 137.317 224.6Z" fill="#11CDEF"/>
<path d="M137.317 246.621C137.317 248.34 135.929 248.931 134.217 247.939C132.504 246.947 131.116 244.749 131.116 243.029C131.116 241.31 132.504 240.72 134.217 241.712C135.929 242.704 137.317 244.902 137.317 246.621Z" fill="#11CDEF"/>
<path d="M137.317 268.643C137.317 270.362 135.929 270.952 134.217 269.96C132.504 268.969 131.116 266.77 131.116 265.051C131.116 263.332 132.504 262.741 134.217 263.733C135.929 264.725 137.317 266.923 137.317 268.643Z" fill="#2DCE89"/>
<path d="M185.123 152.147C185.123 152.147 188.368 155.055 193.087 156.756C196.171 157.868 203.077 160.109 207.435 157.584C207.435 157.584 202.257 202.817 190.784 212.214C178.178 216.952 168.256 205.624 165.968 201.857C161.611 194.68 162.813 183.447 162.813 183.447C167.171 180.922 173.931 170.367 177.16 165.988C180.391 161.606 184.897 152.277 185.123 152.147Z" fill="url(#technology-paint31_linear)"/>
<path d="M190.783 155.163C190.783 155.163 194.028 158.071 198.748 159.772C201.832 160.884 208.738 163.126 213.095 160.601C213.095 160.601 214.299 170.437 209.941 182.666C207.654 189.084 202.256 202.817 190.783 212.214C179.312 216.118 173.915 208.64 171.628 204.874C167.271 197.696 168.473 186.464 168.473 186.464C172.83 183.938 179.591 173.384 182.821 169.005C186.051 164.623 190.558 155.294 190.783 155.163Z" fill="url(#technology-paint32_linear)"/>
<path d="M162.812 183.448L168.473 186.464C168.473 186.464 167.271 197.697 171.628 204.874C173.916 208.64 179.312 216.118 190.783 212.215C178.177 216.953 168.255 205.624 165.967 201.857C161.61 194.68 162.812 183.448 162.812 183.448Z" fill="url(#technology-paint33_linear)"/>
<path d="M193.075 156.776C194.448 157.734 196.384 158.92 198.748 159.772C201.832 160.884 208.738 163.126 213.094 160.601L207.434 157.584C203.077 160.109 196.17 157.868 193.086 156.757L193.075 156.776Z" fill="url(#technology-paint34_linear)"/>
<path d="M185.123 152.147C184.897 152.277 180.391 161.607 177.159 165.988C173.931 170.368 167.17 180.922 162.812 183.448L168.473 186.464C172.83 183.939 179.592 173.385 182.821 169.005C186.051 164.623 190.558 155.294 190.784 155.163L185.123 152.147Z" fill="url(#technology-paint35_linear)"/>
<path d="M126.339 39.0122C123.658 36.3826 122.044 33.25 121.67 29.9533C121.257 26.3142 122.428 22.7367 124.966 19.8812C128.411 16.0053 133.957 13.7824 140.179 13.7824C140.179 13.7824 140.179 13.7824 140.18 13.7824C146.224 13.7824 152.074 15.8892 156.228 19.5628L152.444 23.879C149.366 21.1579 144.781 19.533 140.179 19.533C140.179 19.533 140.178 19.533 140.178 19.533C135.653 19.533 131.563 21.0946 129.238 23.7107C128.221 24.8545 127.07 26.7528 127.36 29.3024C127.582 31.2692 128.613 33.204 130.341 34.8989L126.339 39.0122Z" fill="url(#technology-paint36_radial)"/>
<path d="M192.884 43.6948V33.4069L192.875 33.4084C192.733 31.7548 191.439 30.0213 189.061 28.6422L169.476 17.2872C164.953 14.6643 158.219 14.3161 154.435 16.5103L126.938 32.4522C125.289 33.409 124.473 34.6903 124.45 36.0485V46.337H124.453C124.522 48.0392 125.82 49.8429 128.279 51.2685L147.863 62.623C152.386 65.2463 159.12 65.595 162.903 63.4009L190.402 47.4579C192.119 46.4635 192.932 45.1158 192.886 43.6959H192.884V43.6948ZM165.666 44.5773L152.988 37.9849C152.916 37.986 152.847 37.9928 152.775 37.9928C148.387 37.9928 144.778 35.784 144.309 32.9447C145.528 31.7705 147.064 30.9686 149.552 30.9691C155.913 30.9717 157.124 34.81 157.12 34.8414C159.436 35.9053 168.774 40.9491 170.671 41.9754L165.666 44.5773Z" fill="url(#technology-paint37_linear)"/>
<path d="M189.061 28.6416L169.476 17.2866C164.954 14.6638 158.219 14.3156 154.436 16.5098L126.939 32.4517C123.154 34.6448 123.755 38.5501 128.279 41.1724L147.863 52.5269C152.386 55.1497 159.12 55.4984 162.903 53.3042L190.402 37.3618C194.186 35.1681 193.584 31.2645 189.061 28.6416ZM165.666 44.5773L152.988 37.9849C152.916 37.986 152.847 37.9928 152.775 37.9928C148.387 37.9928 144.778 35.784 144.309 32.9447C145.528 31.7705 147.064 30.9686 149.552 30.9691C155.913 30.9717 157.124 34.81 157.12 34.8414C159.436 35.9053 168.774 40.9491 170.671 41.9754L165.666 44.5773Z" fill="url(#technology-paint38_radial)"/>
<path d="M149.552 30.9691C155.913 30.9717 157.124 34.81 157.12 34.8414C159.436 35.9053 168.774 40.9491 170.671 41.9754L175.184 39.6296C175.184 39.6296 164.052 33.846 161.288 32.4099C161.29 32.378 161.296 32.3487 161.296 32.3174C161.296 29.1827 157.481 26.643 152.775 26.643C148.07 26.643 144.254 29.1827 144.254 32.3174C144.254 32.5291 144.275 32.7387 144.309 32.9442C145.528 31.7705 147.064 30.9686 149.552 30.9691Z" fill="url(#technology-paint39_linear)"/>
<defs>
<radialGradient id="technology-paint0_radial" cx="0" cy="0" r="1" gradientUnits="userSpaceOnUse" gradientTransform="translate(398.404 205.09) scale(77.7751 78.1006)">
<stop stop-color="#F7F7FF"/>
<stop offset="1" stop-color="#DFDFFB"/>
</radialGradient>
<linearGradient id="technology-paint1_linear" x1="296.007" y1="164.763" x2="500.801" y2="164.763" gradientUnits="userSpaceOnUse">
<stop stop-color="#F8F8FF"/>
<stop offset="1" stop-color="#FEFEFF"/>
</linearGradient>
<linearGradient id="technology-paint2_linear" x1="-80.6602" y1="401.408" x2="163.432" y2="360.281" gradientUnits="userSpaceOnUse">
<stop offset="0.2144" stop-color="white"/>
<stop offset="1" stop-color="#5E72E4"/>
</linearGradient>
<linearGradient id="technology-paint3_linear" x1="480.001" y1="205.43" x2="297.615" y2="106.517" gradientUnits="userSpaceOnUse">
<stop offset="0.2144" stop-color="white"/>
<stop offset="1" stop-color="#5E72E4"/>
</linearGradient>
<linearGradient id="technology-paint4_linear" x1="480.001" y1="276.062" x2="283.317" y2="134.291" gradientUnits="userSpaceOnUse">
<stop offset="0.2144" stop-color="white"/>
<stop offset="1" stop-color="#5E72E4"/>
</linearGradient>
<linearGradient id="technology-paint5_linear" x1="483.487" y1="419.315" x2="322.991" y2="167.031" gradientUnits="userSpaceOnUse">
<stop offset="0.2144" stop-color="white"/>
<stop offset="1" stop-color="#5E72E4"/>
</linearGradient>
<linearGradient id="technology-paint6_linear" x1="-80.6602" y1="381.014" x2="109.223" y2="360.771" gradientUnits="userSpaceOnUse">
<stop offset="0.2144" stop-color="white"/>
<stop offset="1" stop-color="#5E72E4"/>
</linearGradient>
<linearGradient id="technology-paint7_linear" x1="398.418" y1="7.04867" x2="398.418" y2="230.235" gradientUnits="userSpaceOnUse">
<stop stop-color="white"/>
<stop offset="0.6617" stop-color="#F778A0"/>
<stop offset="0.8652" stop-color="#F5365C"/>
</linearGradient>
<linearGradient id="technology-paint8_linear" x1="426.033" y1="143.688" x2="502.13" y2="180.202" gradientUnits="userSpaceOnUse">
<stop stop-color="white" stop-opacity="0"/>
<stop offset="1" stop-color="#F5365C"/>
</linearGradient>
<linearGradient id="technology-paint9_linear" x1="398.405" y1="19.0269" x2="398.405" y2="114.291" gradientUnits="userSpaceOnUse">
<stop stop-color="white" stop-opacity="0"/>
<stop offset="1" stop-color="#F5365C"/>
</linearGradient>
<linearGradient id="technology-paint10_linear" x1="319.737" y1="173.095" x2="335.353" y2="118.907" gradientUnits="userSpaceOnUse">
<stop stop-color="#2D32A3"/>
<stop offset="1" stop-color="white"/>
</linearGradient>
<linearGradient id="technology-paint11_linear" x1="336.986" y1="186.456" x2="341.301" y2="133.914" gradientUnits="userSpaceOnUse">
<stop stop-color="#2D32A3"/>
<stop offset="1" stop-color="white"/>
</linearGradient>
<radialGradient id="technology-paint12_radial" cx="0" cy="0" r="1" gradientUnits="userSpaceOnUse" gradientTransform="translate(338.054 183.415) scale(9.94295 9.98455)">
<stop stop-color="#F7F7FF"/>
<stop offset="1" stop-color="#DFDFFB"/>
</radialGradient>
<linearGradient id="technology-paint13_linear" x1="338.221" y1="193.136" x2="351.266" y2="148.224" gradientUnits="userSpaceOnUse">
<stop stop-color="#2D32A3"/>
<stop offset="1" stop-color="white"/>
</linearGradient>
<radialGradient id="technology-paint14_radial" cx="0" cy="0" r="1" gradientUnits="userSpaceOnUse" gradientTransform="translate(344.481 337.716) scale(26.1499 26.2594)">
<stop stop-color="#F7F7FF"/>
<stop offset="1" stop-color="#DFDFFB"/>
</radialGradient>
<radialGradient id="technology-paint15_radial" cx="0" cy="0" r="1" gradientUnits="userSpaceOnUse" gradientTransform="translate(359.058 330.248) scale(46.1067 46.2996)">
<stop stop-color="#F7F7FF"/>
<stop offset="1" stop-color="#DFDFFB"/>
</radialGradient>
<linearGradient id="technology-paint16_linear" x1="333.88" y1="329.351" x2="355.229" y2="329.351" gradientUnits="userSpaceOnUse">
<stop stop-color="#5E72E4"/>
<stop offset="1" stop-color="#2D32A3"/>
</linearGradient>
<linearGradient id="technology-paint17_linear" x1="113.098" y1="365.427" x2="184.346" y2="365.427" gradientUnits="userSpaceOnUse">
<stop stop-color="#F7F7FF"/>
<stop offset="1" stop-color="#DFDFFB"/>
</linearGradient>
<radialGradient id="technology-paint18_radial" cx="0" cy="0" r="1" gradientUnits="userSpaceOnUse" gradientTransform="translate(175.273 356.851) scale(61.4575 61.7147)">
<stop stop-color="#F7F7FF"/>
<stop offset="1" stop-color="#DFDFFB"/>
</radialGradient>
<linearGradient id="technology-paint19_linear" x1="131.967" y1="355.366" x2="165.641" y2="355.366" gradientUnits="userSpaceOnUse">
<stop stop-color="#5E72E4"/>
<stop offset="1" stop-color="#2D32A3"/>
</linearGradient>
<linearGradient id="technology-paint20_linear" x1="84.0023" y1="170.41" x2="221.492" y2="170.41" gradientUnits="userSpaceOnUse">
<stop stop-color="#E3E3FC"/>
<stop offset="0.501" stop-color="#F7F7FF"/>
<stop offset="1" stop-color="#DFDFFB"/>
</linearGradient>
<linearGradient id="technology-paint21_linear" x1="57.4524" y1="39.9553" x2="194.943" y2="39.9553" gradientUnits="userSpaceOnUse">
<stop stop-color="#F8F8FF"/>
<stop offset="1" stop-color="#FEFEFF"/>
</linearGradient>
<linearGradient id="technology-paint22_linear" x1="163.363" y1="117.21" x2="212.543" y2="117.21" gradientUnits="userSpaceOnUse">
<stop stop-color="#5E72E4"/>
<stop offset="1" stop-color="#2D32A3"/>
</linearGradient>
<linearGradient id="technology-paint23_linear" x1="159.773" y1="132.183" x2="229.659" y2="95.8273" gradientUnits="userSpaceOnUse">
<stop stop-color="#00FFFF"/>
<stop offset="1" stop-color="#27AFE3"/>
</linearGradient>
<linearGradient id="technology-paint24_linear" x1="159.531" y1="131.717" x2="229.418" y2="95.361" gradientUnits="userSpaceOnUse">
<stop stop-color="#00FFFF"/>
<stop offset="1" stop-color="#27AFE3"/>
</linearGradient>
<linearGradient id="technology-paint25_linear" x1="163.363" y1="90.9692" x2="212.543" y2="90.9692" gradientUnits="userSpaceOnUse">
<stop stop-color="#5E72E4"/>
<stop offset="1" stop-color="#2D32A3"/>
</linearGradient>
<linearGradient id="technology-paint26_linear" x1="148.148" y1="109.837" x2="218.035" y2="73.4811" gradientUnits="userSpaceOnUse">
<stop stop-color="#00FFFF"/>
<stop offset="1" stop-color="#27AFE3"/>
</linearGradient>
<linearGradient id="technology-paint27_linear" x1="72.3943" y1="103.974" x2="112.279" y2="292.634" gradientUnits="userSpaceOnUse">
<stop stop-color="#5E72E4"/>
<stop offset="1" stop-color="#2D32A3"/>
</linearGradient>
<linearGradient id="technology-paint28_linear" x1="116.942" y1="258.972" x2="53.3872" y2="240.815" gradientUnits="userSpaceOnUse">
<stop stop-color="#00FFFF"/>
<stop offset="1" stop-color="#27AFE3"/>
</linearGradient>
<linearGradient id="technology-paint29_linear" x1="124.534" y1="232.398" x2="60.979" y2="214.241" gradientUnits="userSpaceOnUse">
<stop stop-color="#00FFFF"/>
<stop offset="1" stop-color="#27AFE3"/>
</linearGradient>
<linearGradient id="technology-paint30_linear" x1="114.677" y1="95.0351" x2="154.561" y2="283.695" gradientUnits="userSpaceOnUse">
<stop stop-color="#5E72E4"/>
<stop offset="1" stop-color="#2D32A3"/>
</linearGradient>
<linearGradient id="technology-paint31_linear" x1="162.66" y1="182.75" x2="207.434" y2="182.75" gradientUnits="userSpaceOnUse">
<stop stop-color="#5E72E4"/>
<stop offset="1" stop-color="#2D32A3"/>
</linearGradient>
<linearGradient id="technology-paint32_linear" x1="211.861" y1="194.428" x2="171.753" y2="174.099" gradientUnits="userSpaceOnUse">
<stop stop-color="#5E72E4"/>
<stop offset="1" stop-color="#2D32A3"/>
</linearGradient>
<linearGradient id="technology-paint33_linear" x1="185.605" y1="224.634" x2="174.672" y2="198.613" gradientUnits="userSpaceOnUse">
<stop stop-color="#5E72E4"/>
<stop offset="1" stop-color="#2D32A3"/>
</linearGradient>
<linearGradient id="technology-paint34_linear" x1="208.048" y1="159.816" x2="188.257" y2="156.785" gradientUnits="userSpaceOnUse">
<stop stop-color="#5E72E4"/>
<stop offset="1" stop-color="#2D32A3"/>
</linearGradient>
<linearGradient id="technology-paint35_linear" x1="162.812" y1="169.305" x2="190.784" y2="169.305" gradientUnits="userSpaceOnUse">
<stop stop-color="#5E72E4"/>
<stop offset="1" stop-color="#2D32A3"/>
</linearGradient>
<radialGradient id="technology-paint36_radial" cx="0" cy="0" r="1" gradientUnits="userSpaceOnUse" gradientTransform="translate(139.039 26.2668) scale(16.4286 16.4974)">
<stop stop-color="#2D32A3"/>
<stop offset="1" stop-color="#5E72E4"/>
</radialGradient>
<linearGradient id="technology-paint37_linear" x1="186.97" y1="33.3352" x2="120.29" y2="48.8024" gradientUnits="userSpaceOnUse">
<stop stop-color="#F7F7FF"/>
<stop offset="1" stop-color="#DFDFFB"/>
</linearGradient>
<radialGradient id="technology-paint38_radial" cx="0" cy="0" r="1" gradientUnits="userSpaceOnUse" gradientTransform="translate(145.516 47.3027) scale(35.7125 35.862)">
<stop stop-color="#F7F7FF"/>
<stop offset="1" stop-color="#DFDFFB"/>
</radialGradient>
<linearGradient id="technology-paint39_linear" x1="144.254" y1="34.3093" x2="175.184" y2="34.3093" gradientUnits="userSpaceOnUse">
<stop stop-color="#5E72E4"/>
<stop offset="1" stop-color="#2D32A3"/>
</linearGradient>
</defs>
</svg>
