<svg width="500" height="400" viewBox="0 0 500 400" fill="none" xmlns="http://www.w3.org/2000/svg">
<path fill-rule="evenodd" clip-rule="evenodd" d="M205.072 261.732C205.714 261.358 206.507 261.356 207.15 261.728L361.208 350.827C362.197 351.399 362.536 352.665 361.963 353.654C361.391 354.643 360.126 354.981 359.137 354.409L206.118 265.912L167.281 288.556C166.294 289.131 165.027 288.798 164.451 287.811C163.876 286.824 164.209 285.557 165.197 284.981L205.072 261.732Z" fill="url(#challenge-paint0_linear)"/>
<path fill-rule="evenodd" clip-rule="evenodd" d="M265.889 203.859C264.899 203.288 263.634 203.628 263.063 204.618C262.492 205.608 262.832 206.873 263.821 207.444L324.709 242.562C325.348 242.931 326.136 242.931 326.776 242.562L365.618 220.159L423.072 253.297C422.656 254.066 422.407 254.935 422.407 255.889C422.407 258.125 423.774 259.89 425.451 261.001C427.143 262.122 429.361 262.748 431.706 262.748C434.052 262.748 436.27 262.122 437.962 261.001C439.639 259.89 441.006 258.125 441.006 255.889C441.006 253.653 439.639 251.887 437.962 250.777C436.27 249.655 434.052 249.029 431.706 249.029C429.695 249.029 427.778 249.49 426.205 250.328L366.652 215.979C366.012 215.61 365.224 215.61 364.584 215.979L325.742 238.381L265.889 203.859ZM427.409 254.464C427.475 254.42 427.539 254.372 427.6 254.32C427.644 254.288 427.689 254.257 427.736 254.226C428.661 253.613 430.058 253.167 431.706 253.167C433.354 253.167 434.752 253.613 435.677 254.226C436.617 254.849 436.868 255.479 436.868 255.889C436.868 256.299 436.617 256.929 435.677 257.552C434.752 258.164 433.354 258.611 431.706 258.611C430.058 258.611 428.661 258.164 427.736 257.552C426.796 256.929 426.544 256.299 426.544 255.889C426.544 255.531 426.736 255.006 427.409 254.464Z" fill="url(#challenge-paint1_linear)"/>
<path fill-rule="evenodd" clip-rule="evenodd" d="M343.28 156.499C342.289 155.931 341.025 156.274 340.457 157.265C339.888 158.256 340.231 159.521 341.223 160.089L483.176 241.465V280.075C481.614 280.33 480.173 280.872 478.989 281.656C477.313 282.767 475.945 284.533 475.945 286.769C475.945 289.004 477.313 290.77 478.989 291.881C480.682 293.002 482.899 293.628 485.245 293.628C487.59 293.628 489.808 293.002 491.5 291.881C493.177 290.77 494.545 289.004 494.545 286.769C494.545 284.533 493.177 282.767 491.5 281.656C490.317 280.872 488.876 280.33 487.314 280.075V240.266C487.314 239.525 486.917 238.84 486.274 238.471L343.28 156.499ZM480.083 286.769C480.083 286.359 480.334 285.729 481.275 285.106C482.199 284.493 483.597 284.047 485.245 284.047C486.893 284.047 488.29 284.493 489.215 285.106C490.155 285.729 490.407 286.359 490.407 286.769C490.407 287.178 490.155 287.808 489.215 288.431C488.29 289.044 486.893 289.49 485.245 289.49C483.597 289.49 482.199 289.044 481.275 288.431C480.334 287.808 480.083 287.178 480.083 286.769Z" fill="url(#challenge-paint2_linear)"/>
<path fill-rule="evenodd" clip-rule="evenodd" d="M347.984 254.226C347.044 254.849 346.793 255.479 346.793 255.889C346.793 256.299 347.044 256.929 347.984 257.552C348.909 258.164 350.307 258.611 351.955 258.611C353.602 258.611 355 258.164 355.925 257.552C355.988 257.51 356.047 257.468 356.104 257.427C356.139 257.398 356.175 257.371 356.211 257.346C356.918 256.792 357.116 256.254 357.116 255.889C357.116 255.479 356.865 254.849 355.925 254.226C355 253.613 353.602 253.167 351.955 253.167C350.307 253.167 348.909 253.613 347.984 254.226ZM360.589 258.481C361.005 257.712 361.254 256.843 361.254 255.889C361.254 253.653 359.887 251.887 358.21 250.777C356.518 249.655 354.3 249.029 351.955 249.029C349.609 249.029 347.391 249.655 345.699 250.777C344.022 251.887 342.655 253.653 342.655 255.889C342.655 258.125 344.022 259.89 345.699 261.001C347.391 262.122 349.609 262.748 351.955 262.748C353.966 262.748 355.883 262.288 357.455 261.45L403.425 287.964V326.074C401.863 326.329 400.422 326.871 399.238 327.655C397.562 328.766 396.194 330.531 396.194 332.767C396.194 335.003 397.562 336.769 399.238 337.879C400.931 339.001 403.148 339.627 405.494 339.627C407.84 339.627 410.057 339.001 411.75 337.879C413.426 336.769 414.794 335.003 414.794 332.767C414.794 330.531 413.426 328.766 411.75 327.655C410.566 326.871 409.125 326.329 407.563 326.074V286.769C407.563 286.029 407.168 285.346 406.528 284.976L360.589 258.481ZM401.524 331.104C400.583 331.727 400.332 332.357 400.332 332.767C400.332 333.177 400.583 333.807 401.524 334.43C402.448 335.043 403.846 335.489 405.494 335.489C407.142 335.489 408.54 335.043 409.464 334.43C410.405 333.807 410.656 333.177 410.656 332.767C410.656 332.357 410.405 331.727 409.464 331.104C408.54 330.492 407.142 330.045 405.494 330.045C403.846 330.045 402.448 330.492 401.524 331.104Z" fill="url(#challenge-paint3_linear)"/>
<path fill-rule="evenodd" clip-rule="evenodd" d="M254.368 233.299C253.427 233.922 253.176 234.552 253.176 234.961C253.176 235.371 253.427 236.001 254.368 236.624C255.292 237.237 256.69 237.683 258.338 237.683C259.986 237.683 261.383 237.237 262.308 236.624C262.354 236.594 262.397 236.564 262.44 236.534C262.501 236.482 262.565 236.434 262.631 236.39C263.308 235.846 263.5 235.32 263.5 234.961C263.5 234.552 263.248 233.922 262.308 233.299C261.383 232.686 259.986 232.24 258.338 232.24C256.69 232.24 255.292 232.686 254.368 233.299ZM266.967 237.563C267.386 236.792 267.638 235.92 267.638 234.961C267.638 232.726 266.27 230.96 264.593 229.849C262.901 228.728 260.683 228.102 258.338 228.102C255.992 228.102 253.775 228.728 252.082 229.849C250.406 230.96 249.038 232.726 249.038 234.961C249.038 237.197 250.406 238.963 252.082 240.074C253.775 241.195 255.992 241.821 258.338 241.821C260.345 241.821 262.258 241.363 263.829 240.528L369.16 301.46C368.741 302.231 368.49 303.103 368.49 304.061C368.49 306.297 369.857 308.063 371.534 309.174C373.226 310.295 375.444 310.921 377.79 310.921C380.135 310.921 382.353 310.295 384.045 309.174C385.722 308.063 387.089 306.297 387.089 304.061C387.089 301.825 385.722 300.06 384.045 298.949C382.353 297.828 380.135 297.202 377.79 297.202C375.782 297.202 373.869 297.66 372.298 298.495L266.967 237.563ZM373.538 302.6C373.574 302.575 373.609 302.549 373.643 302.521C373.699 302.48 373.758 302.439 373.819 302.399C374.744 301.786 376.142 301.34 377.79 301.34C379.437 301.34 380.835 301.786 381.76 302.399C382.7 303.022 382.951 303.651 382.951 304.061C382.951 304.471 382.7 305.101 381.76 305.724C380.835 306.337 379.437 306.783 377.79 306.783C376.142 306.783 374.744 306.337 373.819 305.724C372.879 305.101 372.628 304.471 372.628 304.061C372.628 303.696 372.828 303.155 373.538 302.6Z" fill="url(#challenge-paint4_linear)"/>
<path opacity="0.5" d="M235.65 197.945C241.369 201.29 241.792 206.455 236.591 209.483L202.607 229.268C197.407 232.295 188.556 232.037 182.836 228.693L145.451 206.83C139.732 203.485 139.309 198.319 144.509 195.292L178.494 175.507C183.694 172.48 192.545 172.738 198.265 176.083L235.65 197.945Z" fill="#EBEBFA"/>
<path d="M240.23 191.875H240.231C240.231 193.826 239.029 195.715 236.591 197.134L202.607 216.919C197.407 219.945 188.556 219.689 182.836 216.345L145.451 194.48C142.412 192.703 140.869 190.413 140.869 188.202H140.87V175.753H140.87C140.857 173.79 142.059 171.889 144.508 170.462L178.494 150.677C183.694 147.65 192.545 147.907 198.265 151.252L235.65 173.115C238.667 174.88 240.211 177.152 240.231 179.349H240.23V191.875Z" fill="url(#challenge-paint5_radial)"/>
<path d="M235.65 173.114C241.369 176.458 241.792 181.624 236.592 184.651L202.607 204.437C197.408 207.465 188.556 207.206 182.836 203.862L145.451 181.998C139.732 178.654 139.31 173.488 144.509 170.461L178.495 150.676C183.694 147.649 192.546 147.906 198.265 151.251L235.65 173.114Z" fill="url(#challenge-paint6_linear)"/>
<path d="M279.625 96.3709L337.077 63.2352L394.53 96.3709V162.645L337.077 195.782L279.626 162.646L279.625 96.3709Z" fill="url(#challenge-paint7_linear)"/>
<path d="M337.077 129.508V195.782L394.53 162.645V96.3709L337.077 129.508Z" fill="url(#challenge-paint8_linear)"/>
<path d="M279.627 96.3709L337.078 129.508L394.531 96.3709L337.078 63.2352L279.627 96.3709Z" fill="url(#challenge-paint9_linear)"/>
<path d="M279.627 96.3709L279.625 162.645L337.077 195.782L337.076 129.508L279.627 96.3709Z" fill="url(#challenge-paint10_linear)"/>
<path d="M329.945 114.616C317.199 114.616 306.829 107.549 306.829 98.863C306.829 90.1767 317.199 83.1104 329.945 83.1104C342.691 83.1104 353.061 90.1767 353.061 98.863C353.061 107.549 342.691 114.616 329.945 114.616ZM329.945 85.7058C318.632 85.7058 309.427 91.6078 309.427 98.863C309.427 106.118 318.632 112.021 329.945 112.021C341.259 112.021 350.463 106.118 350.463 98.863C350.463 91.6078 341.259 85.7058 329.945 85.7058Z" fill="url(#challenge-paint11_linear)"/>
<path d="M331.244 84.3209H328.646V113.318H331.244V84.3209Z" fill="url(#challenge-paint12_radial)"/>
<path d="M351.762 97.5653H308.128V100.161H351.762V97.5653Z" fill="url(#challenge-paint13_linear)"/>
<path d="M343.4 109.476L314.499 90.212V87.153L345.982 108.076L343.4 109.476Z" fill="url(#challenge-paint14_linear)"/>
<path d="M315.425 108.736L312.843 107.228L346.305 88.0578V90.9309L315.425 108.736Z" fill="url(#challenge-paint15_linear)"/>
<path d="M329.945 103.047C333.433 103.047 336.26 101.174 336.26 98.8625C336.26 96.5513 333.433 94.6777 329.945 94.6777C326.457 94.6777 323.629 96.5513 323.629 98.8625C323.629 101.174 326.457 103.047 329.945 103.047Z" fill="url(#challenge-paint16_linear)"/>
<path d="M329.881 112.848C317.135 112.848 306.765 105.781 306.765 97.095C306.765 88.4087 317.135 81.3424 329.881 81.3424C342.627 81.3424 352.997 88.4087 352.997 97.095C352.997 105.781 342.628 112.848 329.881 112.848ZM329.881 83.9384C318.568 83.9384 309.363 89.8403 309.363 97.0956C309.363 104.351 318.568 110.253 329.881 110.253C341.195 110.253 350.399 104.351 350.399 97.0956C350.399 89.8403 341.195 83.9384 329.881 83.9384Z" fill="url(#challenge-paint17_radial)"/>
<path d="M331.18 82.5534H328.582V111.55H331.18V82.5534Z" fill="url(#challenge-paint18_radial)"/>
<path d="M351.698 95.7979H308.064V98.3933H351.698V95.7979Z" fill="url(#challenge-paint19_radial)"/>
<path d="M344.476 108.468L313.717 87.9654L315.159 85.806L345.919 106.309L344.476 108.468Z" fill="url(#challenge-paint20_radial)"/>
<path d="M314.078 107.708L312.779 105.461L345.684 86.4824L346.983 88.7305L314.078 107.708Z" fill="url(#challenge-paint21_radial)"/>
<path d="M329.881 101.28C333.369 101.28 336.197 99.4063 336.197 97.095C336.197 94.7838 333.369 92.9102 329.881 92.9102C326.393 92.9102 323.566 94.7838 323.566 97.095C323.566 99.4063 326.393 101.28 329.881 101.28Z" fill="url(#challenge-paint22_radial)"/>
<path d="M161.961 170.218L190.551 186.708L219.142 170.218L190.551 153.728L161.961 170.218Z" fill="#EBEBFA"/>
<path d="M161.96 128.462L190.551 111.972L219.142 128.462V161.443L190.551 177.933L161.961 161.444L161.96 128.462Z" fill="#C3C3ED"/>
<path d="M190.552 111.972L190.551 144.953L219.142 161.444L219.142 128.462L190.552 111.972Z" fill="#AEB1E5"/>
<path d="M190.551 144.952V177.933L219.142 161.443V128.462L190.551 144.952Z" fill="url(#challenge-paint23_linear)"/>
<path d="M161.961 128.462L161.96 161.443L190.551 177.933L190.55 144.952L161.961 128.462Z" fill="#E0E0FB"/>
<path d="M180.479 80.6671L151.889 97.1573C151.889 97.1573 148.874 118.265 161.961 128.463L190.551 111.972L180.479 80.6671Z" fill="url(#challenge-paint24_linear)"/>
<path d="M161.961 128.462C155.273 130.658 148.098 126.387 145.317 117.744C142.535 109.099 145.236 100.832 151.889 97.1574L161.961 128.462Z" fill="#E0E0FB"/>
<path d="M190.551 111.972C183.862 114.168 176.688 109.897 173.906 101.254C171.125 92.6096 173.826 84.3422 180.478 80.6676L190.551 111.972Z" fill="#AEB1E5"/>
<path d="M343.488 81.343C346.007 81.343 348.048 79.5818 348.048 77.4093C348.048 75.2369 346.007 73.4757 343.488 73.4757C340.97 73.4757 338.928 75.2369 338.928 77.4093C338.928 79.5818 340.97 81.343 343.488 81.343Z" fill="url(#challenge-paint25_radial)"/>
<path d="M370.406 90.4092L347.5 77.6014L347.502 77.6003C347.038 77.4093 346.82 77.3361 346.322 77.6237C345.556 78.0654 344.935 79.0429 344.935 79.8085C344.935 80.149 345.058 80.3899 345.263 80.5134L345.261 80.5098L367.896 94.0579L370.406 90.4092Z" fill="url(#challenge-paint26_linear)"/>
<path d="M367.475 93.1952C367.475 94.1171 368.224 94.4342 369.147 93.9017C370.07 93.3696 370.819 92.1902 370.819 91.2678C370.819 90.3459 370.071 90.0288 369.147 90.5614C368.224 91.0934 367.475 92.2728 367.475 93.1952Z" fill="url(#challenge-paint27_linear)"/>
<path d="M329.997 142.612C329.997 144.319 328.611 144.905 326.904 143.92C325.195 142.936 323.809 140.753 323.809 139.045C323.809 137.339 325.195 136.752 326.904 137.737C328.611 138.722 329.997 140.905 329.997 142.612Z" fill="#11CDEF"/>
<path d="M329.997 154.613C329.997 156.319 328.611 156.905 326.904 155.921C325.195 154.936 323.809 152.753 323.809 151.046C323.809 149.339 325.195 148.753 326.904 149.738C328.611 150.723 329.997 152.905 329.997 154.613Z" fill="#FB6340"/>
<path d="M329.997 166.614C329.997 168.32 328.611 168.906 326.904 167.922C325.195 166.937 323.809 164.754 323.809 163.047C323.809 161.34 325.195 160.754 326.904 161.739C328.611 162.723 329.997 164.907 329.997 166.614Z" fill="#2DCE89"/>
<path d="M361.825 140.142C361.825 142.798 363.981 143.71 366.639 142.177C369.299 140.645 371.455 137.249 371.455 134.592C371.455 131.936 369.299 131.024 366.639 132.557C363.981 134.089 361.825 137.485 361.825 140.142Z" fill="url(#challenge-paint28_linear)"/>
<path d="M412.441 234.961L371.202 136.277L370.962 135.694C370.375 135.078 369.322 135.05 368.119 135.743C366.278 136.804 365.073 139.156 364.551 140.921C364.459 141.231 334.241 240.266 334.241 240.266C334.241 240.266 373.341 281.408 412.441 234.961Z" fill="url(#challenge-paint29_linear)"/>
<path opacity="0.5" d="M223.925 326.7C231.191 330.891 231.74 337.37 225.152 341.171L127.807 397.343C121.219 401.145 109.989 400.829 102.722 396.638L5.83088 340.65C-1.4352 336.46 -1.98494 329.981 4.60255 326.179L101.949 270.007C108.537 266.206 119.767 266.522 127.034 270.713L223.925 326.7Z" fill="#EBEBFA"/>
<path d="M229.744 309.644V322.545H229.747C229.627 324.88 228.108 327.125 225.152 328.83L127.807 385.002C121.219 388.805 109.989 388.489 102.722 384.297L5.83095 328.31C1.90485 326.047 -0.0602736 323.114 0.0015588 320.297L0 320.296V308.271L229.744 309.644Z" fill="url(#challenge-paint30_radial)"/>
<path d="M223.925 302.019C231.191 306.21 231.741 312.689 225.153 316.489L127.807 372.661C121.219 376.463 109.989 376.147 102.723 371.956L5.83125 315.969C-1.43484 311.779 -1.98457 305.299 4.60291 301.498L101.949 245.326C108.537 241.524 119.768 241.84 127.034 246.031L223.925 302.019Z" fill="url(#challenge-paint31_linear)"/>
<path d="M267.035 260.523C267.035 260.523 270.273 263.411 274.983 265.1C278.063 266.205 284.954 268.43 289.303 265.923C289.303 265.923 284.135 310.835 272.685 320.166C260.103 324.87 250.201 313.622 247.916 309.881C243.567 302.756 244.768 291.603 244.768 291.603C249.117 289.096 255.864 278.615 259.086 274.268C262.312 269.918 266.81 260.653 267.035 260.523Z" fill="url(#challenge-paint32_linear)"/>
<path d="M272.684 263.519C272.684 263.519 275.923 266.406 280.633 268.097C283.712 269.201 290.603 271.425 294.952 268.918C294.952 268.918 296.154 278.685 291.805 290.827C289.522 297.199 284.134 310.836 272.684 320.166C261.235 324.041 255.849 316.616 253.566 312.877C249.217 305.751 250.417 294.598 250.417 294.598C254.766 292.09 261.513 281.61 264.737 277.263C267.962 272.912 272.459 263.65 272.684 263.519Z" fill="url(#challenge-paint33_linear)"/>
<path opacity="0.4" d="M272.684 270.509C272.869 270.403 275.495 272.792 279.251 273.958C281.815 274.752 287.489 276.375 291.081 274.304C291.081 274.304 292.072 281.994 288.48 291.671C286.594 296.752 282.144 307.632 272.685 315.239C263.229 318.537 258.776 312.792 256.891 309.886C253.299 304.351 254.289 295.52 254.289 295.52C257.883 293.449 263.456 285.031 266.121 281.528C268.784 278.026 272.5 270.617 272.684 270.509Z" fill="white"/>
<path d="M244.767 291.603L250.417 294.598C250.417 294.598 249.217 305.751 253.566 312.878C255.849 316.617 261.235 324.041 272.684 320.166C260.102 324.871 250.2 313.622 247.915 309.882C243.567 302.756 244.767 291.603 244.767 291.603Z" fill="url(#challenge-paint34_linear)"/>
<path d="M274.972 265.121C276.341 266.072 278.274 267.25 280.633 268.097C283.712 269.201 290.604 271.425 294.953 268.918L289.303 265.923C284.955 268.43 278.063 266.205 274.984 265.1L274.972 265.121Z" fill="url(#challenge-paint35_linear)"/>
<path d="M267.034 260.523C266.809 260.653 262.311 269.918 259.085 274.268C255.863 278.616 249.115 289.096 244.766 291.603L250.417 294.598C254.765 292.09 261.512 281.611 264.736 277.263C267.96 272.913 272.458 263.65 272.684 263.519L267.034 260.523Z" fill="url(#challenge-paint36_linear)"/>
<path d="M477.58 156.887C477.58 156.887 474.343 159.774 469.633 161.464C466.555 162.569 459.662 164.793 455.314 162.285C455.314 162.285 460.481 207.199 471.931 216.529C484.514 221.233 494.416 209.985 496.7 206.244C501.049 199.119 499.848 187.966 499.848 187.966C495.5 185.459 488.752 174.979 485.529 170.63C482.303 166.281 477.807 157.017 477.58 156.887Z" fill="url(#challenge-paint37_linear)"/>
<path d="M471.931 159.883C471.931 159.883 468.693 162.769 463.982 164.459C460.904 165.564 454.012 167.788 449.663 165.281C449.663 165.281 448.462 175.049 452.811 187.191C455.094 193.564 460.481 207.199 471.931 216.529C483.381 220.405 488.767 212.979 491.05 209.24C495.398 202.114 494.199 190.961 494.199 190.961C489.85 188.454 483.103 177.974 479.879 173.626C476.655 169.276 472.157 160.013 471.931 159.883Z" fill="url(#challenge-paint38_linear)"/>
<path opacity="0.4" d="M471.931 166.873C471.746 166.766 469.121 169.156 465.367 170.322C462.801 171.117 457.126 172.739 453.535 170.667C453.535 170.667 452.543 178.356 456.136 188.035C458.023 193.115 462.472 203.996 471.931 211.603C481.388 214.902 485.839 209.156 487.727 206.252C491.318 200.715 490.328 191.885 490.328 191.885C486.734 189.814 481.16 181.395 478.496 177.893C475.832 174.391 472.117 166.98 471.931 166.873Z" fill="white"/>
<path d="M499.848 187.966L494.199 190.961C494.199 190.961 495.398 202.114 491.05 209.24C488.767 212.979 483.381 220.405 471.931 216.529C484.514 221.233 494.416 209.985 496.7 206.244C501.049 199.12 499.848 187.966 499.848 187.966Z" fill="url(#challenge-paint39_linear)"/>
<path d="M469.644 161.485C468.273 162.435 466.341 163.613 463.982 164.459C460.904 165.564 454.012 167.788 449.662 165.281L455.314 162.286C459.662 164.794 466.555 162.569 469.633 161.464L469.644 161.485Z" fill="url(#challenge-paint40_linear)"/>
<path d="M477.58 156.887C477.807 157.017 482.303 166.281 485.529 170.63C488.752 174.979 495.499 185.459 499.848 187.966L494.199 190.961C489.85 188.454 483.103 177.974 479.879 173.626C476.655 169.276 472.157 160.012 471.931 159.882L477.58 156.887Z" fill="url(#challenge-paint41_linear)"/>
<path opacity="0.8" d="M229.606 143.011V176.963L191.296 198.988L191.294 198.986L149.242 174.55V143.011" fill="url(#challenge-paint42_linear)"/>
<path d="M213.617 228.97C213.621 235.255 217.493 238.119 222.265 235.367L305.506 187.354C310.28 184.603 314.145 177.276 314.141 170.991L314.096 101.602C314.091 95.3177 310.22 92.4544 305.447 95.2061L222.205 143.218C217.433 145.97 213.567 153.297 213.571 159.581L213.617 228.97Z" fill="url(#challenge-paint43_linear)"/>
<path d="M236.534 142.328L220.617 151.509" stroke="white" stroke-width="1.55169" stroke-miterlimit="10" stroke-linecap="round" stroke-linejoin="round"/>
<path d="M255.866 131.178L244.943 137.478" stroke="white" stroke-width="1.55169" stroke-miterlimit="10" stroke-linecap="round" stroke-linejoin="round"/>
<path d="M276.935 119.026L261.302 128.042" stroke="white" stroke-width="1.55169" stroke-miterlimit="10" stroke-linecap="round" stroke-linejoin="round"/>
<path d="M307.071 101.644L297.067 107.415" stroke="white" stroke-width="1.55169" stroke-miterlimit="10" stroke-linecap="round" stroke-linejoin="round"/>
<path d="M244.941 151.303L220.7 165.285" stroke="white" stroke-width="1.55169" stroke-miterlimit="10" stroke-linecap="round" stroke-linejoin="round"/>
<path d="M258.338 143.578L250.406 148.152" stroke="white" stroke-width="1.55169" stroke-miterlimit="10" stroke-linecap="round" stroke-linejoin="round"/>
<path d="M279.09 131.609L268.911 137.48" stroke="white" stroke-width="1.55169" stroke-miterlimit="10" stroke-linecap="round" stroke-linejoin="round"/>
<path d="M295.187 122.325L285.273 128.042" stroke="white" stroke-width="1.55169" stroke-miterlimit="10" stroke-linecap="round" stroke-linejoin="round"/>
<path d="M307.071 115.468L299.181 120.019" stroke="white" stroke-width="1.55169" stroke-miterlimit="10" stroke-linecap="round" stroke-linejoin="round"/>
<path d="M272.264 153.98L250.895 166.305" stroke="white" stroke-width="1.55169" stroke-miterlimit="10" stroke-linecap="round" stroke-linejoin="round"/>
<path d="M283.696 147.386L276.874 151.321" stroke="white" stroke-width="1.55169" stroke-miterlimit="10" stroke-linecap="round" stroke-linejoin="round"/>
<path d="M294.263 141.29L287.913 144.953" stroke="white" stroke-width="1.55169" stroke-miterlimit="10" stroke-linecap="round" stroke-linejoin="round"/>
<path d="M307.071 133.903L299.492 138.274" stroke="white" stroke-width="1.55169" stroke-miterlimit="10" stroke-linecap="round" stroke-linejoin="round"/>
<path d="M236.533 146.937L220.618 156.116" stroke="white" stroke-width="1.55169" stroke-miterlimit="10" stroke-linecap="round" stroke-linejoin="round"/>
<path d="M255.866 135.786L241.496 144.075" stroke="white" stroke-width="1.55169" stroke-miterlimit="10" stroke-linecap="round" stroke-linejoin="round"/>
<path d="M270.272 127.477L263.229 131.54" stroke="white" stroke-width="1.55169" stroke-miterlimit="10" stroke-linecap="round" stroke-linejoin="round"/>
<path d="M287.197 117.715L279.206 122.324" stroke="white" stroke-width="1.55169" stroke-miterlimit="10" stroke-linecap="round" stroke-linejoin="round"/>
<path d="M297.067 112.022L292.573 114.615" stroke="white" stroke-width="1.55169" stroke-miterlimit="10" stroke-linecap="round" stroke-linejoin="round"/>
<path d="M307.071 106.252L303.177 108.499" stroke="white" stroke-width="1.55169" stroke-miterlimit="10" stroke-linecap="round" stroke-linejoin="round"/>
<path d="M227.406 156.809L220.62 160.724" stroke="white" stroke-width="1.55169" stroke-miterlimit="10" stroke-linecap="round" stroke-linejoin="round"/>
<path d="M236.596 151.509L231.896 154.22" stroke="white" stroke-width="1.55169" stroke-miterlimit="10" stroke-linecap="round" stroke-linejoin="round"/>
<path d="M246.287 145.919L241.496 148.683" stroke="white" stroke-width="1.55169" stroke-miterlimit="10" stroke-linecap="round" stroke-linejoin="round"/>
<path d="M261.3 137.26L252.515 142.327" stroke="white" stroke-width="1.55169" stroke-miterlimit="10" stroke-linecap="round" stroke-linejoin="round"/>
<path d="M274.743 129.507L266.75 134.118" stroke="white" stroke-width="1.55169" stroke-miterlimit="10" stroke-linecap="round" stroke-linejoin="round"/>
<path d="M307.071 110.86L278.971 127.069" stroke="white" stroke-width="1.55169" stroke-miterlimit="10" stroke-linecap="round" stroke-linejoin="round"/>
<path d="M236.533 160.762L230.636 164.164" stroke="white" stroke-width="1.55169" stroke-miterlimit="10" stroke-linecap="round" stroke-linejoin="round"/>
<path d="M250.225 152.865L243.389 156.808" stroke="white" stroke-width="1.55169" stroke-miterlimit="10" stroke-linecap="round" stroke-linejoin="round"/>
<path d="M273.997 139.154L258.338 148.186" stroke="white" stroke-width="1.55169" stroke-miterlimit="10" stroke-linecap="round" stroke-linejoin="round"/>
<path d="M293.262 128.042L290.228 129.793L282.367 134.326L278.098 136.789" stroke="white" stroke-width="1.55169" stroke-miterlimit="10" stroke-linecap="round" stroke-linejoin="round"/>
<path d="M307.071 120.077L297.067 125.848" stroke="white" stroke-width="1.55169" stroke-miterlimit="10" stroke-linecap="round" stroke-linejoin="round"/>
<path d="M230.636 168.772L220.62 174.55" stroke="white" stroke-width="1.55169" stroke-miterlimit="10" stroke-linecap="round" stroke-linejoin="round"/>
<path d="M247.983 158.766L236.681 165.286" stroke="white" stroke-width="1.55169" stroke-miterlimit="10" stroke-linecap="round" stroke-linejoin="round"/>
<path d="M273.997 143.762L255.713 154.308" stroke="white" stroke-width="1.55169" stroke-miterlimit="10" stroke-linecap="round" stroke-linejoin="round"/>
<path d="M281.988 139.154L278.096 141.398" stroke="white" stroke-width="1.55169" stroke-miterlimit="10" stroke-linecap="round" stroke-linejoin="round"/>
<path d="M302.234 127.475L289.98 134.544" stroke="white" stroke-width="1.55169" stroke-miterlimit="10" stroke-linecap="round" stroke-linejoin="round"/>
<path d="M271.218 149.974L248.681 162.972L239.888 168.045" stroke="white" stroke-width="1.55169" stroke-miterlimit="10" stroke-linecap="round" stroke-linejoin="round"/>
<path d="M288.032 140.275L283.202 143.061" stroke="white" stroke-width="1.55169" stroke-miterlimit="10" stroke-linecap="round" stroke-linejoin="round"/>
<path d="M270.272 164.345L263.229 168.408" stroke="white" stroke-width="1.55169" stroke-miterlimit="10" stroke-linecap="round" stroke-linejoin="round"/>
<path d="M287.197 154.583L279.206 159.192" stroke="white" stroke-width="1.55169" stroke-miterlimit="10" stroke-linecap="round" stroke-linejoin="round"/>
<path d="M297.067 148.891L292.573 151.482" stroke="white" stroke-width="1.55169" stroke-miterlimit="10" stroke-linecap="round" stroke-linejoin="round"/>
<path d="M250.298 187.826V177.941C250.298 177.195 249.76 176.901 249.096 177.284L231.515 187.417C230.851 187.798 230.314 188.713 230.314 189.459V199.343C230.314 205.548 234.787 207.999 240.305 204.818C245.825 201.638 250.298 194.03 250.298 187.826Z" fill="white"/>
<path d="M243.3 187.965C243.3 189.113 243.941 189.676 244.733 189.22C245.524 188.763 246.166 187.462 246.166 186.312V171.631C246.166 170.482 245.524 169.92 244.733 170.376C243.942 170.833 243.3 172.134 243.3 173.284V187.965Z" fill="white"/>
<path d="M237.312 191.416C237.312 192.565 236.67 193.867 235.879 194.323C235.088 194.779 234.446 194.217 234.446 193.067V178.387C234.446 177.237 235.087 175.936 235.879 175.48C236.67 175.023 237.312 175.586 237.312 176.735V191.416Z" fill="white"/>
<path d="M238.363 216.014L242.249 213.775V201.514L238.363 203.754V216.014Z" fill="white"/>
<path d="M221.745 101.552L226.309 100.485L225.964 100.566C232.191 99.2025 236.439 93.4246 235.678 86.9179C234.849 79.8298 228.384 74.5611 221.238 75.1518C220.589 75.2058 219.955 75.306 219.342 75.4487V75.4493L215.767 76.3099L221.745 101.552Z" fill="#FB6340"/>
<path d="M232.053 87.79C232.882 94.8806 227.763 101.105 220.618 101.696C213.471 102.287 207.007 97.0187 206.178 89.9296C205.348 82.8405 210.467 76.6141 217.613 76.0239C224.758 75.4332 231.223 80.7019 232.053 87.79Z" fill="url(#challenge-paint44_linear)"/>
<path d="M223.403 82.8364C223.403 82.8364 220.733 82.3173 218.451 83.3201C216.459 84.1969 214.777 86.3438 215.201 89.5138C216.104 96.3076 223.266 95.0644 226.309 93.1152" stroke="white" stroke-width="1.55169" stroke-miterlimit="10" stroke-linecap="round" stroke-linejoin="round"/>
<path d="M212.379 88.5177L221.369 87.4577" stroke="white" stroke-width="1.55169" stroke-miterlimit="10" stroke-linecap="round" stroke-linejoin="round"/>
<path d="M212.786 91.1759L221.775 90.1196" stroke="white" stroke-width="1.55169" stroke-miterlimit="10" stroke-linecap="round" stroke-linejoin="round"/>
<path d="M176.986 35.4835L172.872 36.421C167.514 37.2645 162.66 31.9672 162.028 24.59C161.441 17.7257 164.716 11.4785 169.49 9.96485V9.96745L173.846 8.95627L176.986 35.4835Z" fill="#FB6340"/>
<path d="M184.69 20.7872C185.321 28.166 181.491 34.8289 176.133 35.6709C170.775 36.5144 165.921 31.2172 165.289 23.8399C164.657 16.4627 168.488 9.79823 173.846 8.95628C179.203 8.1138 184.059 13.411 184.69 20.7872Z" fill="url(#challenge-paint45_linear)"/>
<path d="M178.197 15.8876C178.197 15.8876 176.194 15.4292 174.484 16.5494C172.991 17.5274 171.733 19.8233 172.056 23.1195C172.742 30.1857 178.11 28.6612 180.39 26.5283" stroke="white" stroke-width="1.55169" stroke-miterlimit="10" stroke-linecap="round" stroke-linejoin="round"/>
<path d="M169.938 22.1695L176.678 20.7784" stroke="white" stroke-width="1.55169" stroke-miterlimit="10" stroke-linecap="round" stroke-linejoin="round"/>
<path d="M170.246 24.9331L176.986 23.5446" stroke="white" stroke-width="1.55169" stroke-miterlimit="10" stroke-linecap="round" stroke-linejoin="round"/>
<path d="M202.573 51.8357L207.461 53.9878L207.462 53.9888C208.567 54.4108 209.768 54.646 211.035 54.6616C217.628 54.7415 223.572 48.8577 224.314 41.5184C224.909 35.6304 221.975 30.5948 217.386 28.791L217.385 28.7931L213.755 27.2301L202.573 51.8357Z" fill="#FB6340"/>
<path d="M220.726 39.9725C219.985 47.3124 214.039 53.1962 207.448 53.1157C200.855 53.0353 196.113 47.0207 196.855 39.6803C197.596 32.3415 203.542 26.4567 210.133 26.5371C216.726 26.6181 221.468 32.6332 220.726 39.9725Z" fill="url(#challenge-paint46_linear)"/>
<path d="M213.941 34.0706C213.941 34.0706 211.633 33.2821 209.356 34.0898C207.368 34.7973 205.394 36.8336 205.11 40.1205C204.497 47.1649 211.241 46.5794 214.406 44.8742" stroke="white" stroke-width="1.55169" stroke-miterlimit="10" stroke-linecap="round" stroke-linejoin="round"/>
<path d="M202.765 38.8303L211.126 38.6068" stroke="white" stroke-width="1.55169" stroke-miterlimit="10" stroke-linecap="round" stroke-linejoin="round"/>
<path d="M202.573 41.5918L210.933 41.3725" stroke="white" stroke-width="1.55169" stroke-miterlimit="10" stroke-linecap="round" stroke-linejoin="round"/>
<path d="M167.17 75.2972L172.05 73.9055C172.772 73.7311 173.533 73.6392 174.326 73.6382C180.624 73.6315 186.592 79.3492 187.657 86.4077C188.548 92.3138 185.725 97.2876 181.089 98.7582L181.089 98.7577L177.003 99.9199L167.17 75.2972Z" fill="#FB6340"/>
<path d="M183.452 87.6083C184.518 94.6673 180.277 100.394 173.979 100.401C167.682 100.407 161.714 94.6907 160.649 87.6316C159.584 80.5731 163.824 74.8456 170.122 74.8388C176.419 74.8326 182.387 80.5503 183.452 87.6083Z" fill="url(#challenge-paint47_linear)"/>
<path d="M175.564 82.0255C175.564 82.0255 173.177 81.2988 171.203 82.1029C169.481 82.8073 168.093 84.7886 168.616 87.9493C169.732 94.7228 176.014 94.0745 178.616 92.3963" stroke="white" stroke-width="1.55169" stroke-miterlimit="10" stroke-linecap="round" stroke-linejoin="round"/>
<path d="M166.072 86.7404L173.98 86.4191" stroke="white" stroke-width="1.55169" stroke-miterlimit="10" stroke-linecap="round" stroke-linejoin="round"/>
<path d="M166.556 89.395L174.464 89.0773" stroke="white" stroke-width="1.55169" stroke-miterlimit="10" stroke-linecap="round" stroke-linejoin="round"/>
<path d="M194.567 129.506L189.672 129.432C186.166 129.303 182.935 126.487 181.453 121.705C179.32 114.813 181.632 106.446 186.618 103.015C188.004 102.062 189.451 101.59 190.863 101.554V101.555L195.118 101.621L194.567 129.506Z" fill="#FB6340"/>
<path d="M203.596 109.352C205.729 116.245 203.416 124.612 198.431 128.042C193.444 131.473 187.673 128.666 185.538 121.773C183.405 114.882 185.717 106.514 190.703 103.083C195.69 99.6531 201.461 102.461 203.596 109.352Z" fill="url(#challenge-paint48_linear)"/>
<path d="M196.328 107.731C196.328 107.731 194.303 108.258 192.888 110.183C191.652 111.865 190.915 114.717 191.906 117.777C194.029 124.342 198.886 120.24 200.64 117.051" stroke="white" stroke-width="1.55169" stroke-miterlimit="10" stroke-linecap="round" stroke-linejoin="round"/>
<path d="M189.672 117.88L195.876 113.242" stroke="white" stroke-width="1.55169" stroke-miterlimit="10" stroke-linecap="round" stroke-linejoin="round"/>
<path d="M190.54 120.429L196.744 115.792" stroke="white" stroke-width="1.55169" stroke-miterlimit="10" stroke-linecap="round" stroke-linejoin="round"/>
<path d="M234.802 58.7467L239.012 63.2353C239.012 63.2353 243.721 57.9307 247.273 58.7467C250.824 59.5627 255.586 60.7982 258.877 56.8183L255.76 53.1168C255.76 53.1168 253.329 56.1794 250.044 55.7802C242.723 54.89 238.327 55.4474 234.802 58.7467Z" fill="url(#challenge-paint49_linear)"/>
<path d="M239.012 63.2352C239.012 63.2352 243.721 57.9307 247.273 58.7467C247.682 58.8412 248.109 58.9403 248.547 59.0374C247.192 58.3652 245.773 57.4236 243.982 56.2992C243.34 55.8959 242.676 55.6597 242.011 55.5455C239.08 55.8897 236.8 56.877 234.802 58.7472L239.012 63.2352Z" fill="#FB6340"/>
<path d="M163.877 49.248L159.72 55.545C159.72 55.545 162.586 58.8817 170.026 54.5551C175.963 51.1027 179.205 61.1869 179.205 61.1869C179.205 61.1869 183.946 61.2274 184.758 59.3904C184.758 59.3904 182.151 51.5839 177.496 51.4541C172.84 51.3243 169.463 56.2556 163.877 49.248Z" fill="#FB6340"/>
<path d="M179.205 61.187C179.205 61.187 183.946 61.2274 184.758 59.3904C184.758 59.3904 182.151 51.5839 177.496 51.4541C174.309 51.3654 171.721 53.6462 168.614 52.8484C169.435 53.3742 170.526 53.7744 172.005 53.8627L172.006 53.8663C176.679 53.34 179.205 61.187 179.205 61.187Z" fill="url(#challenge-paint50_linear)"/>
<path d="M197.261 0C197.261 0 202.392 0.129771 203.237 0C203.237 0 204.146 4.73663 200.704 7.20228C200.704 7.20228 199.817 11.0954 203.345 13.561C203.345 13.561 201.397 15.4334 200.304 15.7952C200.304 15.7952 196.88 14.5992 196.779 11.1603C196.677 7.72136 200.444 8.37022 197.261 0Z" fill="#FB6340"/>
<path d="M197.261 0C200.243 7.84127 197.125 7.76756 196.803 10.5545C198.033 8.03904 200.704 7.20228 200.704 7.20228C204.146 4.73663 203.237 0 203.237 0C202.392 0.129771 197.261 0 197.261 0Z" fill="url(#challenge-paint51_linear)"/>
<path d="M178.584 293.369L183.726 328.893C183.726 329.574 182.893 330.126 181.866 330.126C180.838 330.126 180.196 329.748 180.005 328.893L173.61 296.238L175.113 293.369H178.584V293.369Z" fill="#9BA0A4"/>
<path d="M146.808 311.695L143.85 351.892C143.85 352.574 143.017 353.125 141.989 353.125C140.962 353.125 140.129 352.573 140.129 351.892L141.443 311.373L146.808 311.695Z" fill="#9BA0A4"/>
<path d="M57.2645 262.822L47.3568 298.343C47.1765 298.997 48.1902 299.576 49.2175 299.576C50.2447 299.576 50.8433 299.054 51.0781 298.343L62.2381 265.69L60.3904 262.822H57.2645Z" fill="#9BA0A4"/>
<path d="M119.211 331.248C119.211 331.248 117.113 334.458 118.065 335.834C119.018 337.209 121.618 337.464 125.113 336.264C128.609 335.062 131.131 335.16 132.305 333.676C133.479 332.191 135.991 328.039 130.622 328.645L119.211 331.248Z" fill="#2D32A3"/>
<path d="M120.276 344.914C121.958 344.914 123.322 343.552 123.322 341.871C123.322 340.191 121.958 338.829 120.276 338.829C118.594 338.829 117.231 340.191 117.231 341.871C117.231 343.552 118.594 344.914 120.276 344.914Z" fill="#9BA0A4"/>
<path d="M107.847 331.067C107.847 331.067 117.46 337.572 120.058 340.419C120.058 340.419 121.6 340.063 121.616 339.058C121.616 339.058 118.065 332.365 111.397 328.645L107.847 331.067Z" fill="#9BA0A4"/>
<path d="M98.4926 357.385C100.175 357.385 101.539 356.023 101.539 354.342C101.539 352.662 100.175 351.299 98.4926 351.299C96.8104 351.299 95.4467 352.662 95.4467 354.342C95.4467 356.023 96.8104 357.385 98.4926 357.385Z" fill="#9BA0A4"/>
<path d="M94.9245 337.065C94.9245 337.065 96.3316 350.965 96.4604 353.561C96.4604 353.561 98.2681 353.9 98.5544 353.124C98.5544 353.124 100.098 344.401 99.3827 336.264L94.9245 337.065Z" fill="#9BA0A4"/>
<path d="M75.5143 344.139C77.1962 344.139 78.5597 342.777 78.5597 341.097C78.5597 339.417 77.1962 338.054 75.5143 338.054C73.8324 338.054 72.4689 339.417 72.4689 341.097C72.4689 342.777 73.8324 344.139 75.5143 344.139Z" fill="#9BA0A4"/>
<path d="M75.1122 340.418C75.1122 340.418 83.5126 334.64 87.6694 333.675L83.8539 331.248C83.8539 331.248 77.1043 334.613 74.3328 338.679C74.3328 338.68 73.6932 339.876 75.1122 340.418Z" fill="#9BA0A4"/>
<path d="M69.9957 323.114L95.4472 308.435C97.1697 307.442 100.176 307.565 102.161 308.71L121.7 319.981C123.685 321.125 123.899 322.859 122.176 323.852L95.8031 339.065L95.309 339.35L69.9957 323.114Z" fill="url(#challenge-paint52_linear)"/>
<path d="M97.2476 325.357C97.2476 325.357 104.383 327.693 112.177 321.724C119.971 315.754 123.153 313.843 123.153 313.843C123.153 313.843 122.742 314.888 122.049 316.359C121.357 317.83 117.633 330.836 118.845 332.249C118.845 332.249 125.08 337.469 130.623 328.645C130.623 328.645 131.315 321.724 131.792 317.917C132.268 314.111 132.306 306.103 132.306 306.103L124.195 301.425L102.564 307.492L97.2476 325.357Z" fill="url(#challenge-paint53_linear)"/>
<path d="M118.433 318.096L121.701 319.981C123.686 321.125 123.899 322.859 122.177 323.852L104.811 333.869" fill="url(#challenge-paint54_linear)"/>
<path d="M144.404 315.338L50.0384 260.91V258.654L182.874 290.895V293.152L144.404 315.338Z" fill="#C3C3ED"/>
<path d="M144.404 313.081L50.0384 258.654L88.5075 236.466L182.874 290.895L144.404 313.081Z" fill="url(#challenge-paint55_linear)"/>
<path d="M120.828 290.711L94.8991 275.755V274.958L105.469 268.862L131.398 283.817V284.614L120.828 290.711Z" fill="#C3C3ED"/>
<path d="M120.828 289.914L94.8991 274.958L105.469 268.862L131.398 283.817L120.828 289.914Z" fill="url(#challenge-paint56_linear)"/>
<path d="M140.151 295.061C138.751 296.843 136.043 297.743 134.102 297.074C132.162 296.405 131.725 294.42 133.125 292.639L134.508 290.88C135.908 289.1 138.617 288.2 140.557 288.868C142.497 289.537 142.934 291.523 141.534 293.303L140.151 295.061Z" fill="#DFDFFB"/>
<path d="M136.649 268.642V269.47L136.648 269.469C136.617 269.686 136.453 269.901 136.158 270.071L128.496 274.49C127.865 274.854 126.872 274.87 126.279 274.526L114.114 267.425C113.853 267.273 113.713 267.077 113.692 266.873V266.052L136.649 268.642Z" fill="#C3C3ED"/>
<path d="M128.496 273.734C127.865 274.098 126.872 274.114 126.279 273.771L114.114 266.67C113.521 266.325 113.553 265.75 114.185 265.386L121.847 260.967C122.478 260.603 123.471 260.586 124.064 260.931L136.229 268.032C136.821 268.376 136.789 268.951 136.158 269.315L128.496 273.734Z" fill="url(#challenge-paint57_linear)"/>
<path d="M129.367 270.678L128.609 271.115L120.62 266.507V239.608L121.378 239.171L129.367 243.779V270.678Z" fill="#C3C3ED"/>
<path d="M128.609 271.115L120.62 266.507V239.608L128.609 244.216V271.115Z" fill="url(#challenge-paint58_radial)"/>
<path d="M142.85 273.897L144.55 273.4C145.616 273.01 146.311 271.757 146.311 269.886V244.676C146.311 241.615 144.448 238.057 142.148 236.73L111.387 218.997C110.525 218.5 109.724 218.386 109.06 218.601L107.539 219.041" fill="url(#challenge-paint59_radial)"/>
<path d="M144.715 270.348C144.715 273.411 142.851 274.818 140.552 273.492L109.791 255.758C107.493 254.432 105.629 250.875 105.629 247.812V222.603C105.629 219.54 107.493 218.133 109.791 219.458L140.552 237.192C142.851 238.519 144.715 242.076 144.715 245.138V270.348Z" fill="url(#challenge-paint60_linear)"/>
<path d="M141.534 269.841L108.693 250.9V224.001L141.534 242.942V269.841Z" fill="url(#challenge-paint61_linear)"/>
<path d="M136.61 243.901L133.948 247.443L121.806 248.758L121.09 245.989L132.517 241.904L136.61 243.901Z" fill="url(#challenge-paint62_linear)"/>
<path d="M121.7 251.104L119.8 243.754L121.146 243.445L123.046 250.795L121.7 251.104Z" fill="url(#challenge-paint63_linear)"/>
<path d="M116.082 249.619L115.534 247.502L123.845 245.598L124.392 247.716L116.082 249.619Z" fill="url(#challenge-paint64_linear)"/>
<path d="M115.927 250.139C115.757 250.178 115.566 250.007 115.501 249.754L114.967 247.686C114.902 247.435 114.987 247.199 115.157 247.161L115.833 247.006C116.003 246.967 116.194 247.139 116.259 247.391L116.794 249.458C116.858 249.709 116.773 249.945 116.603 249.984L115.927 250.139Z" fill="url(#challenge-paint65_linear)"/>
<path d="M131.792 293.369C131.792 293.369 135.085 290.022 140.128 290.711C140.128 290.711 142.489 294.645 140.128 296.332C137.767 298.019 133.87 298.538 133.87 298.538L131.792 293.369Z" fill="#FCB4B4"/>
<path d="M93.4052 272.067C93.4052 272.067 91.0031 272.209 88.4051 274.018C85.8071 275.828 80.2214 287.767 80.2214 287.767L96.4599 326.438C96.4599 326.438 99.8591 326.307 103.545 322.928C107.231 319.55 110.262 313.922 111.267 311.373C112.407 308.483 109.572 282.531 106.461 279.786C103.35 277.042 93.4052 272.067 93.4052 272.067Z" fill="url(#challenge-paint66_linear)"/>
<path d="M109.925 252.772C109.925 252.772 110.705 258.906 110.445 260.684C110.185 262.461 110.083 270.149 103.517 270.413L104.124 252.772H109.925Z" fill="#FCB4B4"/>
<path d="M103.517 245.331C103.517 245.331 105.664 245.563 108.152 246.922C109.914 247.883 112.065 250.096 112.783 250.145C112.783 250.145 113.303 255.714 103.517 254.329V245.331Z" fill="#1B284C"/>
<path d="M107.822 282.412C107.822 282.412 99.9658 277.467 100.573 290.617C100.722 293.848 108.155 306.599 110.498 307.275C116.456 308.994 134.397 299.975 134.347 299.253C134.347 299.253 132.615 293.894 131.792 292.971C131.792 292.971 116.029 298.18 114.732 297.69C113.69 297.295 109.182 285.038 107.822 282.412Z" fill="url(#challenge-paint67_linear)"/>
<path d="M103.408 277.611C103.408 277.611 105.727 271.251 105.628 265.316C105.531 259.411 105.628 246.198 104.204 244.847C104.204 244.847 94.8992 243.445 90.6998 250.144C88.3408 253.907 87.2356 257.367 87.669 261.592C88.1018 265.817 90.0072 272.339 92.2586 274.018C94.51 275.698 103.408 277.611 103.408 277.611Z" fill="url(#challenge-paint68_linear)"/>
<path d="M95.8156 339.056L98.6162 337.437L98.6173 337.438C99.1348 337.119 99.446 336.502 99.446 335.634V297.652C99.446 295.689 97.8529 293.181 95.8873 292.05L76.408 280.845C75.295 280.206 74.3021 280.144 73.6495 280.569V280.57L70.4882 282.459L95.8156 339.056Z" fill="url(#challenge-paint69_linear)"/>
<path d="M96.4599 337.389C96.4599 339.353 94.8669 340.028 92.9012 338.897L73.4219 327.692C71.4568 326.562 69.8637 324.054 69.8637 322.091V284.109C69.8637 282.146 71.4568 281.471 73.4219 282.601L92.9012 293.806C94.8669 294.936 96.4599 297.445 96.4599 299.408V337.389Z" fill="url(#challenge-paint70_linear)"/>
<path fill-rule="evenodd" clip-rule="evenodd" d="M273.718 300.228C272.729 299.656 271.463 299.994 270.891 300.983C270.319 301.972 270.657 303.238 271.646 303.81L356.988 353.166C356.569 353.937 356.318 354.809 356.318 355.767C356.318 358.003 357.685 359.768 359.362 360.879C361.054 362 363.272 362.626 365.617 362.626C367.963 362.626 370.181 362 371.873 360.879C373.55 359.768 374.917 358.003 374.917 355.767C374.917 353.531 373.55 351.765 371.873 350.654C370.181 349.533 367.963 348.907 365.617 348.907C363.61 348.907 361.696 349.366 360.125 350.201L273.718 300.228ZM361.322 354.341C361.39 354.295 361.455 354.246 361.518 354.193C361.559 354.163 361.603 354.134 361.647 354.104C362.572 353.491 363.97 353.045 365.617 353.045C367.265 353.045 368.663 353.491 369.588 354.104C370.528 354.727 370.779 355.357 370.779 355.767C370.779 356.177 370.528 356.806 369.588 357.429C368.663 358.042 367.265 358.488 365.617 358.488C363.97 358.488 362.572 358.042 361.647 357.429C360.707 356.806 360.456 356.177 360.456 355.767C360.456 355.409 360.647 354.883 361.322 354.341Z" fill="url(#challenge-paint71_linear)"/>
<path d="M144.219 142.466V175.653" stroke="url(#challenge-paint72_linear)" stroke-width="2.58616" stroke-miterlimit="10" stroke-linecap="round" stroke-linejoin="round"/>
<path d="M144.219 127.401V134.507" stroke="url(#challenge-paint73_linear)" stroke-width="2.58616" stroke-miterlimit="10" stroke-linecap="round" stroke-linejoin="round"/>
<path d="M157.902 156.116V171.66" stroke="url(#challenge-paint74_linear)" stroke-width="2.58616" stroke-miterlimit="10" stroke-linecap="round" stroke-linejoin="round"/>
<path d="M224.93 115.469V130.954" stroke="url(#challenge-paint75_linear)" stroke-width="2.58616" stroke-miterlimit="10" stroke-linecap="round" stroke-linejoin="round"/>
<path d="M231.896 107.375V133.903" stroke="url(#challenge-paint76_linear)" stroke-width="2.58616" stroke-miterlimit="10" stroke-linecap="round" stroke-linejoin="round"/>
<path d="M244.733 127.477V117.744" stroke="url(#challenge-paint77_linear)" stroke-width="2.58616" stroke-miterlimit="10" stroke-linecap="round" stroke-linejoin="round"/>
<path d="M130.083 92.1844C131.234 92.1844 132.167 91.2477 132.167 90.0922C132.167 88.9367 131.234 88 130.083 88C128.933 88 128 88.9367 128 90.0922C128 91.2477 128.933 92.1844 130.083 92.1844Z" fill="#FB6340"/>
<path d="M148.083 59.1844C149.234 59.1844 150.167 58.2477 150.167 57.0922C150.167 55.9367 149.234 55 148.083 55C146.933 55 146 55.9367 146 57.0922C146 58.2477 146.933 59.1844 148.083 59.1844Z" fill="#11CDEF"/>
<path d="M236.083 29.1844C237.234 29.1844 238.167 28.2477 238.167 27.0922C238.167 25.9367 237.234 25 236.083 25C234.933 25 234 25.9367 234 27.0922C234 28.2477 234.933 29.1844 236.083 29.1844Z" fill="#11CDEF"/>
<path d="M250.083 81.1844C251.234 81.1844 252.167 80.2477 252.167 79.0922C252.167 77.9367 251.234 77 250.083 77C248.933 77 248 77.9367 248 79.0922C248 80.2477 248.933 81.1844 250.083 81.1844Z" fill="#2DCE89"/>
<path d="M219.083 114.184C220.234 114.184 221.167 113.248 221.167 112.092C221.167 110.937 220.234 110 219.083 110C217.933 110 217 110.937 217 112.092C217 113.248 217.933 114.184 219.083 114.184Z" fill="#11CDEF"/>
<path d="M238.083 116.184C239.234 116.184 240.167 115.248 240.167 114.092C240.167 112.937 239.234 112 238.083 112C236.933 112 236 112.937 236 114.092C236 115.248 236.933 116.184 238.083 116.184Z" fill="#FB6340"/>
<path d="M137.083 22.1844C138.234 22.1844 139.167 21.2477 139.167 20.0922C139.167 18.9367 138.234 18 137.083 18C135.933 18 135 18.9367 135 20.0922C135 21.2477 135.933 22.1844 137.083 22.1844Z" fill="#11CDEF"/>
<path d="M149.083 29.1844C150.234 29.1844 151.167 28.2477 151.167 27.0922C151.167 25.9367 150.234 25 149.083 25C147.933 25 147 25.9367 147 27.0922C147 28.2477 147.933 29.1844 149.083 29.1844Z" fill="#2DCE89"/>
<path d="M208.083 67.1844C209.234 67.1844 210.167 66.2477 210.167 65.0922C210.167 63.9367 209.234 63 208.083 63C206.933 63 206 63.9367 206 65.0922C206 66.2477 206.933 67.1844 208.083 67.1844Z" fill="#5E72E4"/>
<path d="M152.083 140.184C153.234 140.184 154.167 139.248 154.167 138.092C154.167 136.937 153.234 136 152.083 136C150.933 136 150 136.937 150 138.092C150 139.248 150.933 140.184 152.083 140.184Z" fill="#11CDEF"/>
<path d="M158.083 152.184C159.234 152.184 160.167 151.248 160.167 150.092C160.167 148.937 159.234 148 158.083 148C156.933 148 156 148.937 156 150.092C156 151.248 156.933 152.184 158.083 152.184Z" fill="#2FCF8A"/>
<defs>
<linearGradient id="challenge-paint0_linear" x1="490" y1="498.5" x2="158.068" y2="270.55" gradientUnits="userSpaceOnUse">
<stop offset="0.2144" stop-color="white"/>
<stop offset="1" stop-color="#5E72E4"/>
</linearGradient>
<linearGradient id="challenge-paint1_linear" x1="656" y1="422.5" x2="191.971" y2="215.272" gradientUnits="userSpaceOnUse">
<stop offset="0.2144" stop-color="white"/>
<stop offset="1" stop-color="#5E72E4"/>
</linearGradient>
<linearGradient id="challenge-paint2_linear" x1="594" y1="386" x2="470.555" y2="105.739" gradientUnits="userSpaceOnUse">
<stop offset="0.2144" stop-color="white"/>
<stop offset="1" stop-color="#5E72E4"/>
</linearGradient>
<linearGradient id="challenge-paint3_linear" x1="466.5" y1="435" x2="403.073" y2="149.448" gradientUnits="userSpaceOnUse">
<stop offset="0.2144" stop-color="white"/>
<stop offset="1" stop-color="#5E72E4"/>
</linearGradient>
<linearGradient id="challenge-paint4_linear" x1="547" y1="423" x2="256.513" y2="139.928" gradientUnits="userSpaceOnUse">
<stop offset="0.2144" stop-color="white"/>
<stop offset="1" stop-color="#5E72E4"/>
</linearGradient>
<radialGradient id="challenge-paint5_radial" cx="0" cy="0" r="1" gradientUnits="userSpaceOnUse" gradientTransform="translate(190.551 183.797) scale(43.0816 43.0387)">
<stop stop-color="#F7F7FF"/>
<stop offset="1" stop-color="#DFDFFB"/>
</radialGradient>
<linearGradient id="challenge-paint6_linear" x1="140.87" y1="177.556" x2="240.232" y2="177.556" gradientUnits="userSpaceOnUse">
<stop stop-color="#F8F8FF"/>
<stop offset="1" stop-color="#FEFEFF"/>
</linearGradient>
<linearGradient id="challenge-paint7_linear" x1="279.625" y1="129.509" x2="394.53" y2="129.509" gradientUnits="userSpaceOnUse">
<stop stop-color="#F7F7FF"/>
<stop offset="1" stop-color="#DFDFFB"/>
</linearGradient>
<linearGradient id="challenge-paint8_linear" x1="342.349" y1="157.185" x2="394.244" y2="132.558" gradientUnits="userSpaceOnUse">
<stop stop-color="#F7F7FF"/>
<stop offset="1" stop-color="#DFDFFB"/>
</linearGradient>
<linearGradient id="challenge-paint9_linear" x1="279.627" y1="96.3715" x2="394.531" y2="96.3715" gradientUnits="userSpaceOnUse">
<stop stop-color="#F8F8FF"/>
<stop offset="1" stop-color="#FEFEFF"/>
</linearGradient>
<linearGradient id="challenge-paint10_linear" x1="247.881" y1="119.948" x2="332.366" y2="156.525" gradientUnits="userSpaceOnUse">
<stop stop-color="#F7F7FF"/>
<stop offset="1" stop-color="#DFDFFB"/>
</linearGradient>
<linearGradient id="challenge-paint11_linear" x1="306.829" y1="98.8633" x2="353.061" y2="98.8633" gradientUnits="userSpaceOnUse">
<stop stop-color="#5E72E4"/>
<stop offset="1" stop-color="#2D32A3"/>
</linearGradient>
<radialGradient id="challenge-paint12_radial" cx="0" cy="0" r="1" gradientUnits="userSpaceOnUse" gradientTransform="translate(329.629 98.691) scale(30.1363 30.1064)">
<stop stop-color="#5E72E4"/>
<stop offset="1" stop-color="#2D32A3"/>
</radialGradient>
<linearGradient id="challenge-paint13_linear" x1="308.128" y1="98.863" x2="351.762" y2="98.863" gradientUnits="userSpaceOnUse">
<stop stop-color="#5E72E4"/>
<stop offset="1" stop-color="#2D32A3"/>
</linearGradient>
<linearGradient id="challenge-paint14_linear" x1="314.499" y1="98.3146" x2="345.982" y2="98.3146" gradientUnits="userSpaceOnUse">
<stop stop-color="#5E72E4"/>
<stop offset="1" stop-color="#2D32A3"/>
</linearGradient>
<linearGradient id="challenge-paint15_linear" x1="310.968" y1="99.1353" x2="349.848" y2="97.6893" gradientUnits="userSpaceOnUse">
<stop stop-color="#5E72E4"/>
<stop offset="1" stop-color="#2D32A3"/>
</linearGradient>
<linearGradient id="challenge-paint16_linear" x1="310.954" y1="99.5674" x2="350.574" y2="98.0939" gradientUnits="userSpaceOnUse">
<stop stop-color="#5E72E4"/>
<stop offset="1" stop-color="#2D32A3"/>
</linearGradient>
<radialGradient id="challenge-paint17_radial" cx="0" cy="0" r="1" gradientUnits="userSpaceOnUse" gradientTransform="translate(329.565 96.9233) scale(30.1371 30.1071)">
<stop stop-color="#5E72E4"/>
<stop offset="1" stop-color="#2D32A3"/>
</radialGradient>
<radialGradient id="challenge-paint18_radial" cx="0" cy="0" r="1" gradientUnits="userSpaceOnUse" gradientTransform="translate(329.566 96.9233) scale(30.1363 30.1064)">
<stop stop-color="#5E72E4"/>
<stop offset="1" stop-color="#2D32A3"/>
</radialGradient>
<radialGradient id="challenge-paint19_radial" cx="0" cy="0" r="1" gradientUnits="userSpaceOnUse" gradientTransform="translate(329.566 96.9231) scale(30.1375 30.1075)">
<stop stop-color="#5E72E4"/>
<stop offset="1" stop-color="#2D32A3"/>
</radialGradient>
<radialGradient id="challenge-paint20_radial" cx="0" cy="0" r="1" gradientUnits="userSpaceOnUse" gradientTransform="translate(329.566 96.9231) scale(30.1368 30.1068)">
<stop stop-color="#5E72E4"/>
<stop offset="1" stop-color="#2D32A3"/>
</radialGradient>
<radialGradient id="challenge-paint21_radial" cx="0" cy="0" r="1" gradientUnits="userSpaceOnUse" gradientTransform="translate(329.566 96.9231) scale(30.1369 30.1069)">
<stop stop-color="#5E72E4"/>
<stop offset="1" stop-color="#2D32A3"/>
</radialGradient>
<radialGradient id="challenge-paint22_radial" cx="0" cy="0" r="1" gradientUnits="userSpaceOnUse" gradientTransform="translate(329.566 96.9228) scale(30.1389 30.109)">
<stop stop-color="#5E72E4"/>
<stop offset="1" stop-color="#2D32A3"/>
</radialGradient>
<linearGradient id="challenge-paint23_linear" x1="192.865" y1="158.459" x2="219.031" y2="146.947" gradientUnits="userSpaceOnUse">
<stop stop-color="#F7F7FF"/>
<stop offset="1" stop-color="#DEDEFB"/>
</linearGradient>
<linearGradient id="challenge-paint24_linear" x1="159.46" y1="84.698" x2="180.33" y2="123.734" gradientUnits="userSpaceOnUse">
<stop stop-color="#AEB1E5"/>
<stop offset="0.722" stop-color="#C3C3ED"/>
<stop offset="1" stop-color="#AEB1E5"/>
</linearGradient>
<radialGradient id="challenge-paint25_radial" cx="0" cy="0" r="1" gradientUnits="userSpaceOnUse" gradientTransform="translate(341.063 77.5398) scale(5.58606 5.58051)">
<stop stop-color="#5E72E4"/>
<stop offset="1" stop-color="#2D32A3"/>
</radialGradient>
<linearGradient id="challenge-paint26_linear" x1="368.97" y1="92.1251" x2="342.516" y2="76.2934" gradientUnits="userSpaceOnUse">
<stop stop-color="#5E72E4"/>
<stop offset="1" stop-color="#2D32A3"/>
</linearGradient>
<linearGradient id="challenge-paint27_linear" x1="367.475" y1="92.2316" x2="370.819" y2="92.2316" gradientUnits="userSpaceOnUse">
<stop stop-color="#5E72E4"/>
<stop offset="1" stop-color="#2D32A3"/>
</linearGradient>
<linearGradient id="challenge-paint28_linear" x1="361.825" y1="137.367" x2="371.454" y2="137.367" gradientUnits="userSpaceOnUse">
<stop stop-color="#5E72E4"/>
<stop offset="1" stop-color="#2D32A3"/>
</linearGradient>
<linearGradient id="challenge-paint29_linear" x1="366.17" y1="113.48" x2="373.15" y2="234.541" gradientUnits="userSpaceOnUse">
<stop stop-color="#5E72E4"/>
<stop offset="1" stop-color="#2D32A3" stop-opacity="0"/>
</linearGradient>
<radialGradient id="challenge-paint30_radial" cx="0" cy="0" r="1" gradientUnits="userSpaceOnUse" gradientTransform="translate(114.874 347.965) scale(85.9498 85.8643)">
<stop stop-color="#F7F7FF"/>
<stop offset="1" stop-color="#DFDFFB"/>
</radialGradient>
<linearGradient id="challenge-paint31_linear" x1="0.000551653" y1="308.994" x2="229.755" y2="308.994" gradientUnits="userSpaceOnUse">
<stop stop-color="#F8F8FF"/>
<stop offset="1" stop-color="#FEFEFF"/>
</linearGradient>
<linearGradient id="challenge-paint32_linear" x1="244.616" y1="290.91" x2="289.303" y2="290.91" gradientUnits="userSpaceOnUse">
<stop stop-color="#5E72E4"/>
<stop offset="1" stop-color="#2D32A3"/>
</linearGradient>
<linearGradient id="challenge-paint33_linear" x1="293.719" y1="302.505" x2="253.777" y2="282.154" gradientUnits="userSpaceOnUse">
<stop stop-color="#5E72E4"/>
<stop offset="1" stop-color="#2D32A3"/>
</linearGradient>
<linearGradient id="challenge-paint34_linear" x1="267.516" y1="332.499" x2="256.7" y2="306.622" gradientUnits="userSpaceOnUse">
<stop stop-color="#5E72E4"/>
<stop offset="1" stop-color="#2D32A3"/>
</linearGradient>
<linearGradient id="challenge-paint35_linear" x1="289.915" y1="268.139" x2="270.168" y2="265.099" gradientUnits="userSpaceOnUse">
<stop stop-color="#5E72E4"/>
<stop offset="1" stop-color="#2D32A3"/>
</linearGradient>
<linearGradient id="challenge-paint36_linear" x1="244.766" y1="277.561" x2="272.684" y2="277.561" gradientUnits="userSpaceOnUse">
<stop stop-color="#5E72E4"/>
<stop offset="1" stop-color="#2D32A3"/>
</linearGradient>
<linearGradient id="challenge-paint37_linear" x1="500" y1="187.274" x2="455.315" y2="187.274" gradientUnits="userSpaceOnUse">
<stop stop-color="#5E72E4"/>
<stop offset="1" stop-color="#2D32A3"/>
</linearGradient>
<linearGradient id="challenge-paint38_linear" x1="450.896" y1="198.869" x2="490.84" y2="178.518" gradientUnits="userSpaceOnUse">
<stop stop-color="#5E72E4"/>
<stop offset="1" stop-color="#2D32A3"/>
</linearGradient>
<linearGradient id="challenge-paint39_linear" x1="477.099" y1="228.862" x2="487.916" y2="202.985" gradientUnits="userSpaceOnUse">
<stop stop-color="#5E72E4"/>
<stop offset="1" stop-color="#2D32A3"/>
</linearGradient>
<linearGradient id="challenge-paint40_linear" x1="454.7" y1="164.503" x2="474.448" y2="161.463" gradientUnits="userSpaceOnUse">
<stop stop-color="#5E72E4"/>
<stop offset="1" stop-color="#2D32A3"/>
</linearGradient>
<linearGradient id="challenge-paint41_linear" x1="499.848" y1="173.924" x2="471.931" y2="173.924" gradientUnits="userSpaceOnUse">
<stop stop-color="#5E72E4"/>
<stop offset="1" stop-color="#2D32A3"/>
</linearGradient>
<linearGradient id="challenge-paint42_linear" x1="189.424" y1="150.599" x2="189.424" y2="209.688" gradientUnits="userSpaceOnUse">
<stop offset="0.0059" stop-color="white" stop-opacity="0"/>
<stop offset="0.8652" stop-color="#F5365C"/>
</linearGradient>
<linearGradient id="challenge-paint43_linear" x1="213.572" y1="165.287" x2="314.141" y2="165.287" gradientUnits="userSpaceOnUse">
<stop stop-color="#00FFFF"/>
<stop offset="1" stop-color="#27AFE3"/>
</linearGradient>
<linearGradient id="challenge-paint44_linear" x1="206.089" y1="88.8598" x2="232.141" y2="88.8598" gradientUnits="userSpaceOnUse">
<stop stop-color="#FB6340"/>
<stop offset="0.9949" stop-color="#FAAB5A"/>
</linearGradient>
<linearGradient id="challenge-paint45_linear" x1="183.362" y1="26.9267" x2="164.375" y2="16.4454" gradientUnits="userSpaceOnUse">
<stop stop-color="#FB6340"/>
<stop offset="0.9949" stop-color="#FAAB5A"/>
</linearGradient>
<linearGradient id="challenge-paint46_linear" x1="196.778" y1="39.8265" x2="220.803" y2="39.8265" gradientUnits="userSpaceOnUse">
<stop stop-color="#FB6340"/>
<stop offset="0.9949" stop-color="#FAAB5A"/>
</linearGradient>
<linearGradient id="challenge-paint47_linear" x1="160.484" y1="87.6199" x2="183.616" y2="87.6199" gradientUnits="userSpaceOnUse">
<stop stop-color="#FB6340"/>
<stop offset="0.9949" stop-color="#FAAB5A"/>
</linearGradient>
<linearGradient id="challenge-paint48_linear" x1="201.641" y1="105.517" x2="187.54" y2="125.579" gradientUnits="userSpaceOnUse">
<stop stop-color="#FB6340"/>
<stop offset="0.9949" stop-color="#FAAB5A"/>
</linearGradient>
<linearGradient id="challenge-paint49_linear" x1="234.803" y1="58.1761" x2="258.877" y2="58.1761" gradientUnits="userSpaceOnUse">
<stop stop-color="#FB6340"/>
<stop offset="0.9949" stop-color="#FAAB5A"/>
</linearGradient>
<linearGradient id="challenge-paint50_linear" x1="168.614" y1="56.3193" x2="184.758" y2="56.3193" gradientUnits="userSpaceOnUse">
<stop stop-color="#FB6340"/>
<stop offset="0.9949" stop-color="#FAAB5A"/>
</linearGradient>
<linearGradient id="challenge-paint51_linear" x1="196.803" y1="5.27726" x2="203.345" y2="5.27726" gradientUnits="userSpaceOnUse">
<stop stop-color="#FB6340"/>
<stop offset="0.9949" stop-color="#FAAB5A"/>
</linearGradient>
<linearGradient id="challenge-paint52_linear" x1="108.94" y1="329.167" x2="99.3314" y2="324.315" gradientUnits="userSpaceOnUse">
<stop offset="0.777" stop-color="#DFDFFB"/>
<stop offset="1" stop-color="#F7F7FF"/>
</linearGradient>
<linearGradient id="challenge-paint53_linear" x1="97.2477" y1="317.604" x2="132.306" y2="317.604" gradientUnits="userSpaceOnUse">
<stop stop-color="#2D32A3"/>
<stop offset="1" stop-color="#5E72E4"/>
</linearGradient>
<linearGradient id="challenge-paint54_linear" x1="110.767" y1="325.551" x2="101.159" y2="320.699" gradientUnits="userSpaceOnUse">
<stop offset="0.777" stop-color="#DFDFFB"/>
<stop offset="1" stop-color="#F7F7FF"/>
</linearGradient>
<linearGradient id="challenge-paint55_linear" x1="69.8325" y1="209.835" x2="159.263" y2="334.645" gradientUnits="userSpaceOnUse">
<stop stop-color="#E1E1FC"/>
<stop offset="0.439" stop-color="#F6F6FF"/>
<stop offset="1" stop-color="#E1E1FC"/>
</linearGradient>
<linearGradient id="challenge-paint56_linear" x1="100.394" y1="271.715" x2="125.248" y2="286.696" gradientUnits="userSpaceOnUse">
<stop stop-color="#DFDFFB"/>
<stop offset="1" stop-color="#F4F4FE"/>
</linearGradient>
<linearGradient id="challenge-paint57_linear" x1="113.863" y1="267.351" x2="136.826" y2="267.351" gradientUnits="userSpaceOnUse">
<stop stop-color="#F7F7FF"/>
<stop offset="1" stop-color="#DFDFFB"/>
</linearGradient>
<radialGradient id="challenge-paint58_radial" cx="0" cy="0" r="1" gradientUnits="userSpaceOnUse" gradientTransform="translate(124.615 255.361) scale(11.5026 11.4912)">
<stop stop-color="#F7F7FF"/>
<stop offset="1" stop-color="#DFDFFB"/>
</radialGradient>
<radialGradient id="challenge-paint59_radial" cx="0" cy="0" r="1" gradientUnits="userSpaceOnUse" gradientTransform="translate(152.732 240.487) scale(18.9575 18.9387)">
<stop stop-color="#F4F4FE"/>
<stop offset="1" stop-color="#DFDFFB"/>
</radialGradient>
<linearGradient id="challenge-paint60_linear" x1="108.222" y1="222.398" x2="160.286" y2="296.503" gradientUnits="userSpaceOnUse">
<stop stop-color="#F7F7FF"/>
<stop offset="1" stop-color="#DFDFFB"/>
</linearGradient>
<linearGradient id="challenge-paint61_linear" x1="108.693" y1="246.921" x2="141.534" y2="246.921" gradientUnits="userSpaceOnUse">
<stop stop-color="#FF4877"/>
<stop offset="0.9949" stop-color="#F884A5"/>
</linearGradient>
<linearGradient id="challenge-paint62_linear" x1="124.956" y1="234.661" x2="136.344" y2="265.972" gradientUnits="userSpaceOnUse">
<stop stop-color="#FC9BA5"/>
<stop offset="1" stop-color="white"/>
</linearGradient>
<linearGradient id="challenge-paint63_linear" x1="117.779" y1="237.274" x2="129.165" y2="268.582" gradientUnits="userSpaceOnUse">
<stop stop-color="#FC9BA5"/>
<stop offset="1" stop-color="white"/>
</linearGradient>
<linearGradient id="challenge-paint64_linear" x1="116.382" y1="237.78" x2="127.77" y2="269.093" gradientUnits="userSpaceOnUse">
<stop stop-color="#FC9BA5"/>
<stop offset="1" stop-color="white"/>
</linearGradient>
<linearGradient id="challenge-paint65_linear" x1="112.467" y1="239.206" x2="123.852" y2="270.51" gradientUnits="userSpaceOnUse">
<stop stop-color="#FC9BA5"/>
<stop offset="1" stop-color="white"/>
</linearGradient>
<linearGradient id="challenge-paint66_linear" x1="99.4469" y1="278.629" x2="94.0398" y2="309.431" gradientUnits="userSpaceOnUse">
<stop stop-color="#F778A0"/>
<stop offset="1" stop-color="#F5365C"/>
</linearGradient>
<linearGradient id="challenge-paint67_linear" x1="106.185" y1="283.389" x2="128.488" y2="308.762" gradientUnits="userSpaceOnUse">
<stop stop-color="#F778A0"/>
<stop offset="1" stop-color="#F5365C"/>
</linearGradient>
<linearGradient id="challenge-paint68_linear" x1="97.9207" y1="246.828" x2="95.5669" y2="275.699" gradientUnits="userSpaceOnUse">
<stop stop-color="#F778A0"/>
<stop offset="1" stop-color="#F5365C"/>
</linearGradient>
<linearGradient id="challenge-paint69_linear" x1="70.4883" y1="309.677" x2="99.4458" y2="309.677" gradientUnits="userSpaceOnUse">
<stop stop-color="#F7F7FF"/>
<stop offset="1" stop-color="#DFDFFB"/>
</linearGradient>
<linearGradient id="challenge-paint70_linear" x1="92.4833" y1="294.172" x2="68.8774" y2="336.238" gradientUnits="userSpaceOnUse">
<stop stop-color="#E1E1FC"/>
<stop offset="0.439" stop-color="#F6F6FF"/>
<stop offset="1" stop-color="#E1E1FC"/>
</linearGradient>
<linearGradient id="challenge-paint71_linear" x1="423.5" y1="489" x2="188.373" y2="250.367" gradientUnits="userSpaceOnUse">
<stop offset="0.2144" stop-color="white"/>
<stop offset="1" stop-color="#5E72E4"/>
</linearGradient>
<linearGradient id="challenge-paint72_linear" x1="193" y1="172" x2="192.107" y2="152.768" gradientUnits="userSpaceOnUse">
<stop stop-color="white" stop-opacity="0"/>
<stop offset="1" stop-color="#5E72E4"/>
</linearGradient>
<linearGradient id="challenge-paint73_linear" x1="186" y1="126.529" x2="184.605" y2="120.157" gradientUnits="userSpaceOnUse">
<stop stop-color="white" stop-opacity="0"/>
<stop offset="1" stop-color="#5E72E4"/>
</linearGradient>
<linearGradient id="challenge-paint74_linear" x1="206.5" y1="166" x2="205.906" y2="158.015" gradientUnits="userSpaceOnUse">
<stop stop-color="white" stop-opacity="0"/>
<stop offset="1" stop-color="#5E72E4"/>
</linearGradient>
<linearGradient id="challenge-paint75_linear" x1="268.5" y1="125.5" x2="266.54" y2="109.844" gradientUnits="userSpaceOnUse">
<stop stop-color="white" stop-opacity="0"/>
<stop offset="1" stop-color="#5E72E4"/>
</linearGradient>
<linearGradient id="challenge-paint76_linear" x1="270" y1="132" x2="268.988" y2="110.585" gradientUnits="userSpaceOnUse">
<stop stop-color="white" stop-opacity="0"/>
<stop offset="1" stop-color="#5E72E4"/>
</linearGradient>
<linearGradient id="challenge-paint77_linear" x1="262.5" y1="123" x2="261.315" y2="115.551" gradientUnits="userSpaceOnUse">
<stop stop-color="white" stop-opacity="0"/>
<stop offset="1" stop-color="#5E72E4"/>
</linearGradient>
</defs>
</svg>
